<svg width="170" height="58" viewBox="0 0 170 58" fill="none" xmlns="http://www.w3.org/2000/svg">
<g id="logo">
<g id="Layer 1">
<g id="Group">
<path id="Vector" d="M71.6148 26.4198V41.3225H56.7121V37.4965H64.4791C61.8525 32.2457 57.8129 26.4175 54.8601 26.4175C52.9752 26.4175 51.6232 29.6121 50.3158 32.7034C48.6046 36.743 46.6682 41.3225 42.2483 41.3225C37.8284 41.3225 35.8896 36.743 34.1784 32.7034C32.8733 29.6121 31.5213 26.4175 29.6341 26.4175C27.7469 26.4175 26.3973 29.6121 25.0898 32.7034C23.3787 36.743 21.4422 41.3225 17.02 41.3225C13.708 41.3225 10.2458 38.5152 6.73431 32.9827C5.79306 31.4993 4.97621 30.0228 4.32368 28.7647V37.4942H0.5V22.5914H15.4004V26.4175H7.40093C10.0252 31.6683 14.0671 37.4965 17.02 37.4965C18.9072 37.4965 20.2592 34.3019 21.5666 31.2129C23.2754 27.1709 25.2142 22.5914 29.6341 22.5914C34.054 22.5914 35.9928 27.1709 37.7016 31.2129C39.0091 34.3019 40.3611 37.4965 42.2483 37.4965C44.1355 37.4965 45.4851 34.3019 46.7926 31.2129C48.5014 27.1709 50.4402 22.5914 54.8601 22.5914C58.172 22.5914 61.6343 25.3987 65.1457 30.9312C66.202 32.5978 67.1034 34.2526 67.7888 35.6023V26.4198H71.6148Z" fill="white"/>
<g id="Group_2">
<path id="Vector_2" d="M85.0839 37.1138L83.4948 41.3225H78.5703L87.1096 19.2512H92.2219L100.639 41.3225H95.6818L94.1537 37.1138H85.0816H85.0839ZM86.3937 33.1235H92.8158L89.6353 24.0514L86.3937 33.1235Z" fill="white"/>
<path id="Vector_3" d="M106.002 31.2221H112.393V24.8939H116.79V41.3224H112.393V35.0247H106.002V41.3224H101.605V24.8939H106.002V31.2221Z" fill="white"/>
<path id="Vector_4" d="M123.893 35.0575V41.3224H119.496V24.8939H123.893V31.2526H126.075L129.629 24.8939H134.648L129.784 32.6868L135.021 41.3224H129.909L126.23 35.0575H123.893Z" fill="white"/>
<path id="Vector_5" d="M140.385 34.7148L147.992 24.8963H151.764V41.3224H147.337V31.8136L139.948 41.3224H135.988V24.8939H140.385V34.7125V34.7148Z" fill="white"/>
<path id="Vector_6" d="M169.499 24.8939V41.3224H165.102V28.7293H160.457C160.415 29.6635 160.38 30.6001 160.349 31.5343C160.319 32.4685 160.272 33.4145 160.208 34.3721C160.166 34.8087 160.126 35.2664 160.084 35.7429C160.042 36.2218 159.976 36.71 159.882 37.2076C159.788 37.7052 159.652 38.1747 159.476 38.6113C159.3 39.0479 159.065 39.4422 158.774 39.7966C158.234 40.3999 157.589 40.806 156.842 41.0125C156.094 41.2214 155.326 41.3247 154.535 41.3247H153.07V37.4588H153.507C154.047 37.4588 154.479 37.3391 154.8 37.0996C155.122 36.8602 155.361 36.5387 155.516 36.1326C155.671 35.7265 155.791 35.2805 155.875 34.7923C155.957 34.3041 156.021 33.7994 156.063 33.2807C156.166 31.9709 156.234 30.6306 156.265 29.2598C156.295 27.889 156.333 26.4337 156.373 24.8963H169.496L169.499 24.8939Z" fill="white"/>
</g>
<path id="Vector_7" d="M142.24 22.0186L138.25 16.5002H142.677L146.137 22.0186H142.24Z" fill="white"/>
</g>
</g>
</g>
</svg>
