<svg width="182" height="46" viewBox="0 0 182 46" fill="none" xmlns="http://www.w3.org/2000/svg">
<g id="Vector">
<path d="M61.7163 20.8344C60.6844 20.8344 59.7075 20.68 58.7887 20.3728C57.8684 20.0656 57.0658 19.5993 56.381 18.9755C55.6963 18.3516 55.156 17.5594 54.7618 16.5987C54.3676 15.6396 54.1697 14.5151 54.1697 13.2301V12.6702C54.1697 11.4397 54.3613 10.3683 54.7476 9.45437C55.1324 8.54203 55.6492 7.78097 56.2962 7.17586C56.9433 6.57075 57.7129 6.1138 58.605 5.80657C59.4971 5.49934 60.4394 5.34494 61.4352 5.34494C63.8381 5.34494 65.6537 5.9594 66.8835 7.18989C68.1132 8.42038 68.7273 10.1998 68.7273 12.5298V14.0675H57.972C57.972 14.7381 58.0851 15.3121 58.3097 15.7877C58.5343 16.2634 58.8201 16.6502 59.1688 16.948C59.5159 17.2459 59.9148 17.4611 60.3656 17.5906C60.8163 17.7216 61.2671 17.7855 61.7163 17.7855C62.6555 17.7855 63.3827 17.642 63.8978 17.352C64.4145 17.0634 64.7663 16.6673 64.9532 16.1636H68.4446C68.2939 16.9278 68.0269 17.603 67.6421 18.191C67.2573 18.7774 66.7782 19.2671 66.2066 19.6585C65.6333 20.05 64.9674 20.3432 64.2072 20.5397C63.4471 20.7346 62.6162 20.8329 61.7147 20.8329L61.7163 20.8344ZM57.972 11.5239H65.0962C65.0962 10.9281 65.0019 10.4291 64.815 10.0283C64.6266 9.62748 64.3737 9.30153 64.0549 9.05044C63.736 8.79935 63.3654 8.62157 62.9429 8.51863C62.5204 8.4157 62.065 8.36424 61.5781 8.36424C61.1273 8.36424 60.6907 8.42038 60.2682 8.53267C59.8457 8.64496 59.4657 8.83055 59.128 9.09255C58.7903 9.35456 58.517 9.68518 58.3113 10.0844C58.104 10.4852 57.9925 10.9656 57.9736 11.5239H57.972Z" fill="white"/>
<path d="M77.7371 20.8344C76.6863 20.8344 75.7094 20.6754 74.8095 20.3588C73.9096 20.0422 73.1337 19.5712 72.4866 18.9474C71.8396 18.3236 71.3323 17.536 70.9663 16.5847C70.6004 15.6333 70.4166 14.5151 70.4166 13.2301V12.6702C70.4166 11.4771 70.6145 10.4291 71.0087 9.52455C71.4029 8.62001 71.9338 7.85738 72.5997 7.232C73.2656 6.60818 74.0446 6.13719 74.9367 5.8206C75.8288 5.50401 76.7617 5.34494 77.7386 5.34494C78.7893 5.34494 79.7144 5.4853 80.5123 5.76446C81.3101 6.04362 81.9902 6.42571 82.554 6.91073C83.1178 7.39575 83.5576 7.96343 83.878 8.61689C84.1968 9.27034 84.4026 9.96902 84.4968 10.7145H80.696C80.4887 10.0252 80.1605 9.47932 79.7113 9.07852C79.2605 8.67771 78.604 8.47809 77.7402 8.47809C77.2518 8.47809 76.7963 8.5623 76.3754 8.72917C75.9529 8.89761 75.5822 9.15337 75.2634 9.49804C74.9446 9.8427 74.6901 10.2763 74.5033 10.7987C74.3148 11.3212 74.2221 11.945 74.2221 12.6717V13.2316C74.2221 14.0145 74.3116 14.6851 74.4891 15.245C74.6666 15.8049 74.9163 16.2649 75.2351 16.6283C75.554 16.9917 75.9293 17.2568 76.3612 17.4253C76.7931 17.5937 77.2533 17.6763 77.7402 17.6763C78.4909 17.6763 79.1239 17.4908 79.6406 17.1165C80.1573 16.7437 80.5091 16.1932 80.696 15.4665H84.4968C84.4026 16.2868 84.1733 17.0276 83.8073 17.6888C83.4414 18.3501 82.9671 18.9146 82.386 19.3809C81.8033 19.8472 81.1232 20.2059 80.3442 20.457C79.5652 20.7081 78.6967 20.8344 77.7402 20.8344H77.7371Z" fill="white"/>
<path d="M93.5053 20.8344C92.4923 20.8344 91.5343 20.68 90.6328 20.3728C89.7312 20.0656 88.9381 19.5946 88.2533 18.9614C87.5686 18.3282 87.0283 17.536 86.6341 16.5847C86.2399 15.6333 86.042 14.5151 86.042 13.2301V12.6702C86.042 11.4584 86.2399 10.3963 86.6341 9.48244C87.0283 8.5701 87.567 7.80904 88.2533 7.20393C88.9381 6.59882 89.7312 6.13719 90.6328 5.8206C91.5343 5.50401 92.4907 5.34494 93.5053 5.34494C94.5199 5.34494 95.4764 5.49934 96.3779 5.80657C97.2794 6.1138 98.0726 6.57543 98.7573 7.18989C99.4421 7.80436 99.9824 8.5701 100.377 9.48244C100.771 10.3963 100.967 11.4584 100.967 12.6702V13.2301C100.967 14.498 100.771 15.6115 100.377 16.5706C99.9824 17.5313 99.4421 18.3282 98.7573 18.9614C98.0726 19.5946 97.2794 20.0656 96.3779 20.3728C95.4764 20.68 94.5199 20.8344 93.5053 20.8344ZM93.5053 17.7029C94.0299 17.7029 94.5184 17.6093 94.9691 17.4237C95.4199 17.2381 95.8047 16.9527 96.1235 16.5706C96.4423 16.1885 96.6952 15.7175 96.8836 15.1592C97.0705 14.5993 97.1648 13.9568 97.1648 13.2301V12.6702C97.1648 11.9996 97.0705 11.4023 96.8836 10.8814C96.6952 10.3605 96.4423 9.92223 96.1235 9.56666C95.8047 9.21264 95.4199 8.94283 94.9691 8.75569C94.5184 8.5701 94.0299 8.47653 93.5053 8.47653C92.9808 8.47653 92.4923 8.5701 92.0416 8.75569C91.5908 8.94283 91.206 9.21264 90.8872 9.56666C90.5684 9.92067 90.3139 10.3589 90.127 10.8814C89.9386 11.4038 89.8459 11.9996 89.8459 12.6702V13.2301C89.8459 13.9755 89.9401 14.6274 90.127 15.1873C90.3139 15.7472 90.5684 16.2119 90.8872 16.5847C91.206 16.9574 91.5908 17.2381 92.0416 17.4237C92.4923 17.6108 92.9792 17.7029 93.5053 17.7029Z" fill="white"/>
<path d="M103.358 20.4991V5.68024H106.793V7.94472C107.15 7.23668 107.737 6.62689 108.554 6.1138C109.371 5.60071 110.454 5.34494 111.807 5.34494C113.627 5.34494 114.989 5.82996 115.89 6.79845C116.792 7.76849 117.242 9.16585 117.242 10.9921V20.4976H113.525V11.8296C113.525 10.7114 113.289 9.87233 112.821 9.31401C112.352 8.75413 111.563 8.47497 110.456 8.47497C109.873 8.47497 109.367 8.56854 108.936 8.75413C108.504 8.94127 108.152 9.18768 107.88 9.49492C107.608 9.80215 107.406 10.1608 107.275 10.571C107.144 10.9812 107.079 11.4007 107.079 11.8296V20.4976H103.363L103.358 20.4991Z" fill="white"/>
<path d="M126.951 20.8344C125.938 20.8344 124.98 20.68 124.079 20.3728C123.177 20.0656 122.384 19.5946 121.699 18.9614C121.015 18.3282 120.474 17.536 120.08 16.5847C119.686 15.6333 119.49 14.5151 119.49 13.2301V12.6702C119.49 11.4584 119.686 10.3963 120.08 9.48244C120.474 8.5701 121.013 7.80904 121.699 7.20393C122.384 6.59882 123.177 6.13719 124.079 5.8206C124.98 5.50401 125.937 5.34494 126.951 5.34494C127.966 5.34494 128.923 5.49934 129.824 5.80657C130.726 6.1138 131.519 6.57543 132.203 7.18989C132.888 7.80436 133.429 8.5701 133.823 9.48244C134.217 10.3963 134.413 11.4584 134.413 12.6702V13.2301C134.413 14.498 134.217 15.6115 133.823 16.5706C133.429 17.5313 132.888 18.3282 132.203 18.9614C131.519 19.5946 130.726 20.0656 129.824 20.3728C128.923 20.68 127.966 20.8344 126.951 20.8344ZM126.951 17.7029C127.476 17.7029 127.965 17.6093 128.415 17.4237C128.866 17.2381 129.251 16.9527 129.57 16.5706C129.888 16.1885 130.141 15.7175 130.33 15.1592C130.517 14.5993 130.611 13.9568 130.611 13.2301V12.6702C130.611 11.9996 130.517 11.4023 130.33 10.8814C130.141 10.3605 129.888 9.92223 129.57 9.56666C129.251 9.21264 128.866 8.94283 128.415 8.75569C127.965 8.5701 127.476 8.47653 126.951 8.47653C126.427 8.47653 125.938 8.5701 125.488 8.75569C125.037 8.94283 124.652 9.21264 124.333 9.56666C124.015 9.92067 123.76 10.3589 123.573 10.8814C123.385 11.4038 123.292 11.9996 123.292 12.6702V13.2301C123.292 13.9755 123.386 14.6274 123.573 15.1873C123.76 15.7472 124.015 16.2119 124.333 16.5847C124.652 16.9574 125.037 17.2381 125.488 17.4237C125.938 17.6108 126.427 17.7029 126.951 17.7029Z" fill="white"/>
<path d="M136.808 20.4991V5.68024H140.299V8.02893C140.637 7.28347 141.168 6.65029 141.89 6.12784C142.613 5.60695 143.5 5.34494 144.551 5.34494C145.771 5.34494 146.713 5.58199 147.381 6.05766C148.047 6.53332 148.521 7.17118 148.802 7.97279C149.215 7.20861 149.806 6.58011 150.576 6.08573C151.345 5.59135 152.275 5.34494 153.363 5.34494C154.959 5.34494 156.179 5.79721 157.024 6.70019C157.869 7.60473 158.292 8.98806 158.292 10.8517V20.4976H154.574V11.7469C154.574 10.5539 154.381 9.71013 153.998 9.21732C153.613 8.72294 152.999 8.47653 152.154 8.47653C151.779 8.47653 151.427 8.55138 151.099 8.69954C150.77 8.84926 150.48 9.0676 150.225 9.35612C149.972 9.64463 149.775 9.98929 149.633 10.3901C149.492 10.7909 149.423 11.2432 149.423 11.7454V20.496H145.705V11.7454C145.705 10.5523 145.509 9.70858 145.115 9.21576C144.72 8.72138 144.102 8.47497 143.257 8.47497C142.881 8.47497 142.529 8.54983 142.201 8.69798C141.873 8.8477 141.582 9.06604 141.328 9.35456C141.075 9.64307 140.877 9.98774 140.737 10.3885C140.596 10.7893 140.527 11.2416 140.527 11.7438V20.4945H136.811L136.808 20.4991Z" fill="white"/>
<path d="M163.386 4.08291C162.692 4.08291 162.142 3.88797 161.738 3.49496C161.335 3.10351 161.134 2.61849 161.134 2.04146C161.134 1.46442 161.335 0.956007 161.738 0.573916C162.142 0.191825 162.69 0 163.386 0C164.082 0 164.63 0.194944 165.033 0.586393C165.437 0.977841 165.638 1.46286 165.638 2.0399C165.638 2.61693 165.435 3.12535 165.033 3.50744C164.63 3.88953 164.08 4.08136 163.386 4.08136V4.08291ZM161.528 5.67678H165.245V20.4957H161.528V5.67678Z" fill="white"/>
<path d="M175.242 20.8344C174.191 20.8344 173.214 20.6754 172.314 20.3588C171.413 20.0422 170.638 19.5712 169.991 18.9474C169.344 18.3236 168.837 17.536 168.471 16.5847C168.105 15.6333 167.921 14.5151 167.921 13.2301V12.6702C167.921 11.4771 168.118 10.4291 168.512 9.52455C168.906 8.62001 169.437 7.85738 170.103 7.232C170.769 6.60818 171.548 6.13719 172.44 5.8206C173.332 5.50401 174.265 5.34494 175.242 5.34494C176.293 5.34494 177.218 5.4853 178.015 5.76446C178.813 6.04362 179.493 6.42571 180.057 6.91073C180.621 7.39575 181.061 7.96343 181.381 8.61689C181.7 9.27034 181.906 9.96902 182 10.7145H178.199C177.992 10.0252 177.664 9.47932 177.214 9.07852C176.764 8.67771 176.107 8.47809 175.243 8.47809C174.755 8.47809 174.301 8.5623 173.879 8.72917C173.456 8.89761 173.085 9.15337 172.767 9.49804C172.448 9.8427 172.193 10.2763 172.006 10.7987C171.818 11.3212 171.725 11.945 171.725 12.6717V13.2316C171.725 14.0145 171.815 14.6851 171.992 15.245C172.17 15.8049 172.419 16.2649 172.738 16.6283C173.057 16.9917 173.433 17.2568 173.864 17.4253C174.296 17.5937 174.757 17.6763 175.243 17.6763C175.994 17.6763 176.627 17.4908 177.144 17.1165C177.66 16.7437 178.012 16.1932 178.199 15.4665H182C181.906 16.2868 181.676 17.0276 181.311 17.6888C180.945 18.3501 180.47 18.9146 179.889 19.3809C179.306 19.8472 178.626 20.2059 177.847 20.457C177.068 20.7081 176.2 20.8344 175.243 20.8344H175.242Z" fill="white"/>
<path d="M60.5054 45.9921C59.5473 45.9921 58.6804 45.8283 57.9014 45.5024C57.1224 45.1764 56.4549 44.7008 55.902 44.0769C55.3476 43.4531 54.9204 42.6609 54.6204 41.7002C54.3204 40.7411 54.1697 39.6353 54.1697 38.3877V37.8278C54.1697 36.6347 54.3142 35.5867 54.6063 34.6822C54.8969 33.7776 55.3193 33.0135 55.8737 32.3896C56.4266 31.7658 57.0941 31.2948 57.8731 30.9782C58.6521 30.6616 59.53 30.5026 60.5054 30.5026C61.4807 30.5026 62.3681 30.7178 63.1659 31.1451C63.9638 31.574 64.6061 32.1791 65.0946 32.962V26.0844H68.8106V45.6552H65.3757V43.3907C65.0004 44.0801 64.3941 44.6867 63.5601 45.2076C62.7246 45.7285 61.7069 45.9905 60.5054 45.9905V45.9921ZM61.4069 42.8886C61.9315 42.8886 62.4199 42.7997 62.8707 42.6234C63.3214 42.4472 63.7109 42.1852 64.0392 41.8405C64.3674 41.4959 64.625 41.081 64.8135 40.596C65.0004 40.111 65.0946 39.562 65.0946 38.946V37.2679C65.0946 36.6909 65.0004 36.1778 64.8135 35.7302C64.625 35.2826 64.3674 34.8958 64.0392 34.5699C63.7109 34.2439 63.3214 34.0022 62.8707 33.8431C62.4199 33.6856 61.9315 33.6061 61.4069 33.6061C60.8823 33.6061 60.4363 33.695 60.0138 33.8712C59.5913 34.049 59.2254 34.3141 58.916 34.6681C58.6065 35.0222 58.371 35.4604 58.2123 35.9828C58.0521 36.5053 57.9736 37.1198 57.9736 37.8278V38.3877C57.9736 39.1332 58.0584 39.785 58.2265 40.3449C58.3961 40.9048 58.6348 41.3696 58.9442 41.7423C59.2536 42.115 59.6196 42.3989 60.0421 42.5954C60.4645 42.7903 60.92 42.8886 61.4069 42.8886Z" fill="white"/>
<path d="M76.4123 45.9928C75.6051 45.9928 74.8873 45.8712 74.2591 45.6294C73.6293 45.3877 73.1 45.0617 72.6681 44.6516C72.2362 44.2414 71.9079 43.7533 71.6833 43.184C71.4587 42.6164 71.3457 41.9957 71.3457 41.3251C71.3457 39.8528 71.7964 38.7487 72.6979 38.0126C73.5994 37.2764 74.9313 36.9084 76.6966 36.9084H81.1461V36.1536C81.1461 35.1289 80.9073 34.4193 80.4283 34.0295C79.9493 33.6396 79.2692 33.4415 78.3866 33.4415C77.5604 33.4415 76.951 33.5865 76.5568 33.8751C76.1626 34.1636 75.9459 34.5503 75.9098 35.0354H72.1938C72.2315 34.3835 72.3995 33.7815 72.7011 33.2325C73.0011 32.6836 73.4188 32.2079 73.9544 31.8071C74.49 31.4063 75.1417 31.0897 75.9113 30.8573C76.6809 30.6249 77.5541 30.508 78.5295 30.508C79.5048 30.508 80.3545 30.6109 81.1335 30.8152C81.9125 31.0211 82.5784 31.3564 83.1328 31.8211C83.6857 32.2874 84.1129 32.8832 84.4144 33.6099C84.7144 34.3367 84.8652 35.2132 84.8652 36.2378V41.8849C84.8652 42.6678 84.8793 43.3525 84.9076 43.9404C84.9359 44.5284 84.9877 45.1007 85.0631 45.6606H81.5999C81.5622 45.3066 81.5293 44.9853 81.501 44.6968C81.4727 44.4083 81.4586 44.0683 81.4586 43.6769C81.2513 43.9935 80.989 44.296 80.6702 44.5861C80.3513 44.8746 79.9854 45.1226 79.5723 45.3269C79.1593 45.5327 78.6897 45.6949 78.1651 45.8166C77.639 45.9382 77.0578 45.999 76.4186 45.999L76.4123 45.9928ZM77.5384 43.2246C78.0269 43.2246 78.4902 43.1544 78.9315 43.0156C79.3729 42.8753 79.7577 42.6709 80.0859 42.4011C80.4142 42.1313 80.6717 41.796 80.8602 41.3952C81.0471 40.9944 81.1413 40.5515 81.1413 40.0665V39.3117H77.3971C76.6652 39.3117 76.1061 39.4848 75.7213 39.8294C75.3365 40.1741 75.1433 40.6264 75.1433 41.1863C75.1433 41.7836 75.3302 42.2717 75.7072 42.6538C76.0825 43.0359 76.6919 43.2277 77.5369 43.2277L77.5384 43.2246Z" fill="white"/>
<path d="M93.7029 45.8263C92.8202 45.8263 92.0553 45.7374 91.4082 45.5612C90.7612 45.3849 90.235 45.0949 89.8314 44.6941C89.4277 44.2933 89.1278 43.7848 88.9299 43.1704C88.7336 42.5559 88.6346 41.7995 88.6346 40.9059V33.916H86.6635V30.8405H88.6346V27.4859H92.3506V30.8405H95.9551V33.916H92.3506V40.346C92.3506 40.7562 92.3836 41.1102 92.4495 41.4081C92.5155 41.706 92.6333 41.9492 92.8013 42.1348C92.971 42.322 93.1956 42.4608 93.4767 42.5544C93.7578 42.6479 94.1143 42.6947 94.5463 42.6947C94.8274 42.6947 95.1101 42.69 95.3912 42.6807C95.6724 42.6713 95.9535 42.6479 96.2362 42.6105V45.6859C95.8797 45.7234 95.509 45.7561 95.1242 45.7842C94.7394 45.8123 94.2651 45.8263 93.7029 45.8263Z" fill="white"/>
<path d="M103.248 45.9928C102.44 45.9928 101.723 45.8712 101.094 45.6294C100.466 45.3877 99.9352 45.0617 99.5033 44.6516C99.0714 44.2414 98.7431 43.7533 98.5186 43.184C98.294 42.6164 98.1809 41.9957 98.1809 41.3251C98.1809 39.8528 98.6316 38.7487 99.5331 38.0126C100.435 37.2764 101.767 36.9084 103.532 36.9084H107.981V36.1536C107.981 35.1289 107.743 34.4193 107.264 34.0295C106.784 33.6396 106.104 33.4415 105.222 33.4415C104.396 33.4415 103.786 33.5865 103.392 33.8751C102.998 34.1636 102.783 34.5503 102.745 35.0354H99.0274C99.0651 34.3835 99.2332 33.7815 99.5347 33.2325C99.8347 32.6836 100.252 32.2079 100.788 31.8071C101.324 31.4063 101.975 31.0897 102.745 30.8573C103.515 30.6249 104.388 30.508 105.363 30.508C106.338 30.508 107.188 30.6109 107.967 30.8152C108.746 31.0211 109.412 31.3564 109.966 31.8211C110.519 32.2874 110.947 32.8832 111.248 33.6099C111.548 34.3367 111.699 35.2132 111.699 36.2378V41.8849C111.699 42.6678 111.713 43.3525 111.741 43.9404C111.769 44.5268 111.821 45.1007 111.897 45.6606H108.434C108.396 45.3066 108.363 44.9853 108.335 44.6968C108.306 44.4083 108.292 44.0683 108.292 43.6769C108.085 43.9935 107.823 44.296 107.504 44.5861C107.185 44.8746 106.819 45.1226 106.406 45.3269C105.993 45.5327 105.523 45.6949 104.999 45.8166C104.473 45.9382 103.892 45.999 103.252 45.999L103.248 45.9928ZM104.374 43.2246C104.862 43.2246 105.325 43.1544 105.767 43.0156C106.208 42.8753 106.593 42.6709 106.921 42.4011C107.249 42.1313 107.507 41.796 107.695 41.3952C107.882 40.9944 107.977 40.5515 107.977 40.0665V39.3117H104.232C103.5 39.3117 102.941 39.4848 102.557 39.8294C102.172 40.1741 101.98 40.6264 101.98 41.1863C101.98 41.7836 102.167 42.2717 102.544 42.6538C102.919 43.0359 103.529 43.2277 104.374 43.2277V43.2246Z" fill="white"/>
<path d="M5.68361 6.69098H0V12.308H5.68361V6.69098Z" fill="white"/>
<path d="M17.0488 6.69098H11.3651V23.5404H17.0488V6.69098Z" fill="white"/>
<path d="M22.7324 29.1598V34.7752H34.0996V40.3922H17.0504V23.5428H22.7324V12.3104H28.416V17.9273H34.0996V23.5428H28.416V29.1598H22.7324Z" fill="white"/>
<path d="M39.781 12.3104H34.0974V17.9273H39.781V12.3104Z" fill="white"/>
<path d="M11.3657 23.5419V29.1589H5.68361V34.7743H0V17.9265H5.68361V23.5419H11.3657Z" fill="white"/>
<path d="M39.781 29.1587H34.0974V34.7757H39.781V29.1587Z" fill="white"/>
<path d="M11.3687 34.7715H5.6851V40.3885H11.3687V34.7715Z" fill="white"/>
<path d="M17.0489 40.3876H11.3652V46H17.0489V40.3876Z" fill="white"/>
<path d="M39.781 40.3876H34.0974V46H39.781V40.3876Z" fill="white"/>
</g>
</svg>
