<svg width="178" height="60" viewBox="0 0 178 60" fill="none" xmlns="http://www.w3.org/2000/svg">
<g id="&#208;&#173;&#208;&#186;&#208;&#190;&#208;&#189;&#208;&#190;&#208;&#188;&#208;&#184;&#209;&#135;&#208;&#181;&#209;&#129;&#208;&#186;&#208;&#184;&#208;&#181; &#208;&#189;&#208;&#176;&#209;&#131;&#208;&#186;&#208;&#184;">
<path d="M3.60567 10.7778H8.05974V6.41124C8.05974 5.57951 7.89478 4.89796 7.56484 4.36657C7.25848 3.81209 6.66932 3.53485 5.79736 3.53485C5.0668 3.53485 4.51298 3.78898 4.13592 4.29726C3.78242 4.80554 3.60567 5.40623 3.60567 6.09934V7.27762H0V6.23796C0 5.38313 0.153182 4.53985 0.459547 3.70812C0.789478 2.85329 1.21367 2.16019 1.73214 1.6288C2.2506 1.09742 2.86333 0.693108 3.57032 0.415865C4.30088 0.138622 5.04323 0 5.79736 0C6.62218 0 7.39988 0.150173 8.13044 0.45052C8.88457 0.727763 9.52086 1.12052 10.0393 1.6288C10.5578 2.13708 10.9584 2.73777 11.2412 3.43088C11.524 4.12399 11.6654 4.87485 11.6654 5.68348V18.9218C11.6654 20.0539 11.4769 21.0358 11.0998 21.8675C10.7228 22.6993 10.2514 23.3462 9.68583 23.8082C9.12023 24.2703 8.48394 24.6053 7.77694 24.8132C7.09351 24.9981 6.41009 25.0905 5.72666 25.0905C4.9254 25.0905 4.17127 24.9403 3.46427 24.6399C2.75728 24.3165 2.14455 23.8891 1.62609 23.3577C1.10763 22.8263 0.706995 22.2256 0.424197 21.5556C0.141399 20.8625 0 20.1348 0 19.3723V17.8475H3.60567V19.0604C3.60567 19.5456 3.66459 19.9499 3.78242 20.2734C3.92382 20.5968 4.10057 20.851 4.31267 21.0358C4.54833 21.2206 4.79578 21.3592 5.05501 21.4517C5.33781 21.521 5.59704 21.5556 5.83271 21.5556C6.65753 21.5556 7.23491 21.3015 7.56484 20.7932C7.89478 20.2849 8.05974 19.6727 8.05974 18.9565V13.8968H3.60567V10.7778Z" fill="white"/>
<path d="M14.6428 24.8825V7.31228H18.2485V14.4859H19.6271C20.1691 14.4859 20.5344 14.3011 20.723 13.9314C20.9115 13.5618 21.0647 13.0997 21.1825 12.5452L21.5714 10.5352C21.7127 10.0038 21.8895 9.53022 22.1016 9.11436C22.3373 8.67539 22.6436 8.32884 23.0207 8.0747C23.4213 7.79745 23.8809 7.60107 24.3993 7.48556C24.9414 7.37004 25.5541 7.31228 26.2375 7.31228H26.3082V10.4313H26.2022C25.778 10.4313 25.4245 10.5121 25.1417 10.6738C24.8589 10.8125 24.6586 11.1475 24.5407 11.6789L24.1872 13.6196C24.1637 13.6889 24.1283 13.8275 24.0812 14.0354C24.0576 14.2433 23.9987 14.4744 23.9044 14.7285C23.8102 14.9596 23.6805 15.1906 23.5156 15.4216C23.3742 15.6527 23.1857 15.8259 22.95 15.9415L26.5557 24.8825H22.8793L20.016 17.4316H18.2485V24.8825H14.6428Z" fill="white"/>
<path d="M27.9951 13.2037C27.9951 12.4875 28.0422 11.829 28.1365 11.2283C28.2307 10.6276 28.4075 10.0963 28.6667 9.63419C29.0909 8.87177 29.6918 8.25952 30.4695 7.79745C31.2708 7.33538 32.237 7.10435 33.3682 7.10435C34.4994 7.10435 35.4539 7.33538 36.2315 7.79745C37.0328 8.25952 37.6455 8.87177 38.0697 9.63419C38.329 10.0963 38.5057 10.6276 38.6 11.2283C38.6942 11.829 38.7414 12.4875 38.7414 13.2037V18.9911C38.7414 19.7073 38.6942 20.3658 38.6 20.9665C38.5057 21.5672 38.329 22.0986 38.0697 22.5606C37.6455 23.323 37.0328 23.9353 36.2315 24.3974C35.4539 24.8594 34.4994 25.0905 33.3682 25.0905C32.237 25.0905 31.2708 24.8594 30.4695 24.3974C29.6918 23.9353 29.0909 23.323 28.6667 22.5606C28.4075 22.0986 28.2307 21.5672 28.1365 20.9665C28.0422 20.3658 27.9951 19.7073 27.9951 18.9911V13.2037ZM31.6007 19.5456C31.6007 20.2156 31.7539 20.7239 32.0603 21.0705C32.3902 21.3939 32.8262 21.5556 33.3682 21.5556C33.9102 21.5556 34.3344 21.3939 34.6408 21.0705C34.9707 20.7239 35.1357 20.2156 35.1357 19.5456V12.6492C35.1357 11.9792 34.9707 11.4825 34.6408 11.159C34.3344 10.8125 33.9102 10.6392 33.3682 10.6392C32.8262 10.6392 32.3902 10.8125 32.0603 11.159C31.7539 11.4825 31.6007 11.9792 31.6007 12.6492V19.5456Z" fill="white"/>
<path d="M41.3968 24.8825V7.31228H45.0024V14.4859H48.6434V7.31228H52.2491V24.8825H48.6434V17.4316H45.0024V24.8825H41.3968Z" fill="white"/>
<path d="M54.8871 13.2037C54.8871 12.4875 54.9342 11.829 55.0285 11.2283C55.1228 10.6276 55.2995 10.0963 55.5587 9.63419C55.9829 8.87177 56.5839 8.25952 57.3616 7.79745C58.1628 7.33538 59.1291 7.10435 60.2603 7.10435C61.3914 7.10435 62.3459 7.33538 63.1236 7.79745C63.9248 8.25952 64.5376 8.87177 64.9618 9.63419C65.221 10.0963 65.3978 10.6276 65.492 11.2283C65.5863 11.829 65.6334 12.4875 65.6334 13.2037V18.9911C65.6334 19.7073 65.5863 20.3658 65.492 20.9665C65.3978 21.5672 65.221 22.0986 64.9618 22.5606C64.5376 23.323 63.9248 23.9353 63.1236 24.3974C62.3459 24.8594 61.3914 25.0905 60.2603 25.0905C59.1291 25.0905 58.1628 24.8594 57.3616 24.3974C56.5839 23.9353 55.9829 23.323 55.5587 22.5606C55.2995 22.0986 55.1228 21.5672 55.0285 20.9665C54.9342 20.3658 54.8871 19.7073 54.8871 18.9911V13.2037ZM58.4928 19.5456C58.4928 20.2156 58.646 20.7239 58.9523 21.0705C59.2822 21.3939 59.7182 21.5556 60.2603 21.5556C60.8023 21.5556 61.2265 21.3939 61.5328 21.0705C61.8628 20.7239 62.0277 20.2156 62.0277 19.5456V12.6492C62.0277 11.9792 61.8628 11.4825 61.5328 11.159C61.2265 10.8125 60.8023 10.6392 60.2603 10.6392C59.7182 10.6392 59.2822 10.8125 58.9523 11.159C58.646 11.4825 58.4928 11.9792 58.4928 12.6492V19.5456Z" fill="white"/>
<path d="M68.2888 24.8825V7.31228H71.9652L75.6062 16.7385H75.6769L79.3179 7.31228H82.9943V24.8825H79.53V14.2433H79.4593L76.5606 22.0061H74.7224L71.8238 14.2433H71.7531V24.8825H68.2888Z" fill="white"/>
<path d="M93.7052 24.8825V13.7235H93.6346L89.64 24.8825H85.9637V7.31228H89.3572V18.4713H89.4279L93.3871 7.31228H97.0988V24.8825H93.7052Z" fill="white"/>
<path d="M107.047 24.8825V17.397C106.882 17.4432 106.693 17.4778 106.481 17.501C106.128 17.5703 105.633 17.6049 104.996 17.6049C104.784 17.6049 104.525 17.5934 104.219 17.5703C103.936 17.5472 103.63 17.5009 103.3 17.4316C102.97 17.3623 102.64 17.2699 102.31 17.1544C102.004 17.0158 101.709 16.8425 101.426 16.6346C100.743 16.1032 100.307 15.5371 100.118 14.9365C99.9532 14.3358 99.8707 13.6658 99.8707 12.9264V7.31228H103.476V12.6145C103.476 13.2846 103.653 13.7928 104.007 14.1394C104.407 14.4859 104.938 14.6592 105.597 14.6592C106.069 14.6592 106.434 14.6246 106.693 14.5552C106.835 14.5321 106.952 14.4975 107.047 14.4513V7.31228H110.652V24.8825H107.047Z" fill="white"/>
<path d="M124.043 17.4316H116.903V19.8229C116.903 20.3773 117.056 20.8048 117.362 21.1051C117.692 21.4055 118.128 21.5556 118.67 21.5556C119.354 21.5556 119.801 21.3592 120.013 20.9665C120.249 20.5737 120.391 20.181 120.438 19.7882H124.043C124.043 21.3361 123.56 22.5837 122.594 23.531C122.123 24.0162 121.557 24.3974 120.897 24.6746C120.237 24.9518 119.495 25.0905 118.67 25.0905C117.539 25.0905 116.573 24.8594 115.771 24.3974C114.994 23.9353 114.393 23.323 113.969 22.5606C113.709 22.0986 113.533 21.5672 113.438 20.9665C113.344 20.3658 113.297 19.7073 113.297 18.9911V13.2037C113.297 12.4875 113.344 11.829 113.438 11.2283C113.533 10.6276 113.709 10.0963 113.969 9.63419C114.393 8.87177 114.994 8.25952 115.771 7.79745C116.573 7.33538 117.539 7.10435 118.67 7.10435C119.495 7.10435 120.237 7.24297 120.897 7.52021C121.581 7.79745 122.158 8.17866 122.629 8.66384C123.572 9.7035 124.043 11.0088 124.043 12.5799V17.4316ZM116.903 14.6592H120.438V12.6492C120.438 11.9792 120.273 11.4825 119.943 11.159C119.636 10.8125 119.212 10.6392 118.67 10.6392C118.128 10.6392 117.692 10.8125 117.362 11.159C117.056 11.4825 116.903 11.9792 116.903 12.6492V14.6592Z" fill="white"/>
<path d="M130.516 19.8229C130.516 20.3773 130.67 20.8048 130.976 21.1051C131.306 21.4055 131.742 21.5556 132.284 21.5556C132.967 21.5556 133.415 21.3592 133.627 20.9665C133.863 20.5737 134.004 20.181 134.051 19.7882H137.657C137.657 21.3361 137.174 22.5837 136.208 23.531C135.736 24.0162 135.171 24.3974 134.511 24.6746C133.851 24.9518 133.109 25.0905 132.284 25.0905C131.153 25.0905 130.187 24.8594 129.385 24.3974C128.608 23.9353 128.007 23.323 127.582 22.5606C127.323 22.0986 127.146 21.5672 127.052 20.9665C126.958 20.3658 126.911 19.7073 126.911 18.9911V13.2037C126.911 12.4875 126.958 11.829 127.052 11.2283C127.146 10.6276 127.323 10.0963 127.582 9.63419C128.007 8.87177 128.608 8.25952 129.385 7.79745C130.187 7.33538 131.153 7.10435 132.284 7.10435C133.109 7.10435 133.851 7.24297 134.511 7.52021C135.194 7.79745 135.772 8.17866 136.243 8.66384C137.186 9.7035 137.657 11.0551 137.657 12.7185H134.051C134.051 12.0023 133.886 11.4825 133.557 11.159C133.25 10.8125 132.826 10.6392 132.284 10.6392C131.742 10.6392 131.306 10.8125 130.976 11.159C130.67 11.4825 130.516 11.9792 130.516 12.6492V19.8229Z" fill="white"/>
<path d="M139.782 24.8825V7.31228H143.388V14.4859H144.767C145.309 14.4859 145.674 14.3011 145.862 13.9314C146.051 13.5618 146.204 13.0997 146.322 12.5452L146.711 10.5352C146.852 10.0038 147.029 9.53022 147.241 9.11436C147.477 8.67539 147.783 8.32884 148.16 8.0747C148.561 7.79745 149.02 7.60107 149.539 7.48556C150.081 7.37004 150.694 7.31228 151.377 7.31228H151.448V10.4313H151.342C150.917 10.4313 150.564 10.5121 150.281 10.6738C149.998 10.8125 149.798 11.1475 149.68 11.6789L149.327 13.6196C149.303 13.6889 149.268 13.8275 149.221 14.0354C149.197 14.2433 149.138 14.4744 149.044 14.7285C148.95 14.9596 148.82 15.1906 148.655 15.4216C148.514 15.6527 148.325 15.8259 148.089 15.9415L151.695 24.8825H148.019L145.155 17.4316H143.388V24.8825H139.782Z" fill="white"/>
<path d="M161.194 24.8825V13.7235H161.124L157.129 24.8825H153.453V7.31228H156.846V18.4713H156.917L160.876 7.31228H164.588V24.8825H161.194Z" fill="white"/>
<path d="M178 17.4316H170.859V19.8229C170.859 20.3773 171.013 20.8048 171.319 21.1051C171.649 21.4055 172.085 21.5556 172.627 21.5556C173.31 21.5556 173.758 21.3592 173.97 20.9665C174.206 20.5737 174.347 20.181 174.394 19.7882H178C178 21.3361 177.517 22.5837 176.551 23.531C176.079 24.0162 175.514 24.3974 174.854 24.6746C174.194 24.9518 173.452 25.0905 172.627 25.0905C171.496 25.0905 170.529 24.8594 169.728 24.3974C168.95 23.9353 168.35 23.323 167.925 22.5606C167.666 22.0986 167.489 21.5672 167.395 20.9665C167.301 20.3658 167.254 19.7073 167.254 18.9911V13.2037C167.254 12.4875 167.301 11.829 167.395 11.2283C167.489 10.6276 167.666 10.0963 167.925 9.63419C168.35 8.87177 168.95 8.25952 169.728 7.79745C170.529 7.33538 171.496 7.10435 172.627 7.10435C173.452 7.10435 174.194 7.24297 174.854 7.52021C175.537 7.79745 176.115 8.17866 176.586 8.66384C177.529 9.7035 178 11.0088 178 12.5799V17.4316ZM170.859 14.6592H174.394V12.6492C174.394 11.9792 174.229 11.4825 173.899 11.159C173.593 10.8125 173.169 10.6392 172.627 10.6392C172.085 10.6392 171.649 10.8125 171.319 11.159C171.013 11.4825 170.859 11.9792 170.859 12.6492V14.6592Z" fill="white"/>
<path d="M0.247448 52.8957V35.3254H3.85312V42.4991H7.49414V35.3254H11.0998V52.8957H7.49414V45.4448H3.85312V52.8957H0.247448Z" fill="white"/>
<path d="M20.8784 52.8957V51.0936H20.8077C20.3364 51.7405 19.8533 52.2372 19.3584 52.5838C18.8871 52.9303 18.2154 53.1036 17.3435 53.1036C16.9193 53.1036 16.4833 53.0343 16.0355 52.8957C15.6113 52.7801 15.1989 52.5491 14.7983 52.2025C14.3977 51.8791 14.0677 51.417 13.8085 50.8163C13.5728 50.1925 13.455 49.3955 13.455 48.4251C13.455 47.4317 13.5375 46.5653 13.7024 45.826C13.8674 45.0635 14.1738 44.4282 14.6215 43.9199C15.0457 43.4347 15.6231 43.0766 16.3537 42.8456C17.0842 42.5915 18.0151 42.4644 19.1463 42.4644C19.2641 42.4644 19.3937 42.4644 19.5351 42.4644C19.6765 42.4644 19.8062 42.4759 19.924 42.4991C20.0418 42.5222 20.1832 42.5337 20.3482 42.5337C20.5132 42.5337 20.6899 42.5453 20.8784 42.5684V40.7316C20.8784 40.1309 20.7488 39.6342 20.4896 39.2414C20.2304 38.8487 19.759 38.6523 19.0756 38.6523C18.6043 38.6523 18.1683 38.8025 17.7677 39.1028C17.3906 39.4032 17.1432 39.8421 17.0253 40.4197H13.5257C13.62 38.8487 14.162 37.578 15.1518 36.6076C15.6231 36.1456 16.1887 35.7875 16.8486 35.5333C17.5084 35.2561 18.2508 35.1175 19.0756 35.1175C19.8297 35.1175 20.5367 35.233 21.1966 35.464C21.8564 35.6951 22.4338 36.0416 22.9287 36.5037C23.4001 36.9657 23.7771 37.5433 24.0599 38.2364C24.3427 38.9296 24.4841 39.7382 24.4841 40.6623V52.8957H20.8784ZM20.8784 45.3408C20.4778 45.2715 20.1479 45.2368 19.8886 45.2368C19.111 45.2368 18.4393 45.4217 17.8737 45.7913C17.3317 46.1379 17.0607 46.7848 17.0607 47.732C17.0607 48.402 17.2256 48.9449 17.5556 49.3608C17.8855 49.7767 18.345 49.9846 18.9342 49.9846C19.5469 49.9846 20.0183 49.7882 20.3482 49.3955C20.7017 49.0027 20.8784 48.4482 20.8784 47.732V45.3408Z" fill="white"/>
<path d="M25.2052 35.3254H29.023L31.4974 46.2765H31.5681L34.0073 35.3254H37.719L32.5579 55.9453C32.3694 56.7308 32.0984 57.3777 31.7449 57.886C31.415 58.3943 31.0261 58.8102 30.5784 59.1336C30.1306 59.4571 29.6475 59.6765 29.129 59.7921C28.6341 59.9307 28.1157 60 27.5736 60H26.5838V56.6731H27.3969C27.7504 56.6731 28.0567 56.6269 28.316 56.5345C28.5752 56.4421 28.8109 56.2341 29.023 55.9107C29.2115 55.5872 29.3882 55.1251 29.5532 54.5245C29.7182 53.9469 29.9067 53.1382 30.1188 52.0986L25.2052 35.3254Z" fill="white"/>
<path d="M39.1529 52.8957V35.3254H42.7585V42.4991H44.1372C44.6792 42.4991 45.0445 42.3142 45.233 41.9446C45.4216 41.5749 45.5747 41.1128 45.6926 40.5583L46.0814 38.5483C46.2228 38.017 46.3996 37.5433 46.6117 37.1275C46.8473 36.6885 47.1537 36.3419 47.5308 36.0878C47.9314 35.8106 48.3909 35.6142 48.9094 35.4987C49.4514 35.3832 50.0642 35.3254 50.7476 35.3254H50.8183V38.4444H50.7122C50.288 38.4444 49.9345 38.5252 49.6517 38.687C49.3689 38.8256 49.1686 39.1606 49.0508 39.692L48.6973 41.6327C48.6737 41.702 48.6384 41.8406 48.5913 42.0485C48.5677 42.2565 48.5088 42.4875 48.4145 42.7416C48.3202 42.9727 48.1906 43.2037 48.0257 43.4347C47.8843 43.6658 47.6957 43.8391 47.4601 43.9546L51.0657 52.8957H47.3894L44.526 45.4448H42.7585V52.8957H39.1529Z" fill="white"/>
<path d="M60.5649 52.8957V41.7366H60.4942L56.4997 52.8957H52.8233V35.3254H56.2169V46.4844H56.2876L60.2467 35.3254H63.9584V52.8957H60.5649Z" fill="white"/>
</g>
</svg>
