<svg width="190" height="24" viewBox="0 0 190 24" fill="none" xmlns="http://www.w3.org/2000/svg">
    <path d="M40.0682 0V23.6531H35.246V0H40.0682Z" fill="white"/>
    <path d="M0 5.91837V23.6429H4.80218V13C4.80218 12.3469 4.92224 11.7755 5.17235 11.2857C5.42246 10.7959 5.75261 10.4184 6.18281 10.1429C6.603 9.86734 7.08322 9.73469 7.62346 9.73469C8.41383 9.73469 9.05411 9.9898 9.54434 10.5102C10.0346 11.0306 10.2747 11.7245 10.2747 12.5918V23.6531H14.9468V12.8265C14.9468 11.898 15.1969 11.1531 15.6871 10.5918C16.1774 10.0306 16.8677 9.7449 17.7381 9.7449C18.5084 9.7449 19.1487 9.9898 19.6589 10.4796C20.1692 10.9694 20.4293 11.7041 20.4293 12.6939V23.6531H25.2415V11.7245C25.2415 9.80612 24.7312 8.31633 23.7208 7.26531C22.7103 6.21429 21.3897 5.69388 19.769 5.69388C18.4884 5.69388 17.3879 6 16.4575 6.61224C15.5271 7.22449 14.8768 8.03061 14.5266 9.05102H14.3465C14.0764 8.02041 13.5161 7.20408 12.6758 6.60204C11.8454 6 10.8049 5.69388 9.63438 5.69388C8.46385 5.69388 7.44338 5.9898 6.603 6.59184C5.76262 7.19388 5.15234 8.0102 4.79218 9.05102H4.59209V5.91837H0Z"
          fill="white"/>
    <path d="M27.5025 5.91837V23.6531H32.3247V5.91837H27.5025Z" fill="white"/>
    <path d="M47.1714 23.6531V0H42.3493V23.6531H47.1714Z" fill="white"/>
    <path fillRule="evenodd" clipRule="evenodd"
          d="M58.0164 24C56.2256 24 54.6949 23.6327 53.4043 22.8878C52.1137 22.1429 51.1232 21.0918 50.4329 19.7245C49.7426 18.3571 49.3924 16.7449 49.3924 14.8673C49.3924 12.9898 49.7426 11.4388 50.4329 10.0612C51.1232 8.68367 52.1037 7.61224 53.3743 6.83674C54.6348 6.07143 56.1255 5.68367 57.8263 5.68367C58.9768 5.68367 60.0473 5.86735 61.0377 6.2449C62.0282 6.62245 62.8986 7.17347 63.6389 7.92857C64.3793 8.67347 64.9595 9.61225 65.3797 10.7347C65.7899 11.8571 66 13.1837 66 14.6837V16.0306H54.1646V16.0408C54.1646 16.9184 54.3247 17.6735 54.6448 18.3163C54.965 18.9592 55.4152 19.449 56.0055 19.7959C56.5957 20.1429 57.296 20.3163 58.0964 20.3163C58.6367 20.3163 59.1269 20.2347 59.5671 20.0816C60.0073 19.9286 60.3975 19.6939 60.7076 19.3878C61.0177 19.0816 61.2678 18.7041 61.4279 18.2551L65.89 18.551C65.6598 19.6429 65.1996 20.5918 64.4993 21.4082C63.799 22.2245 62.8986 22.8469 61.8081 23.3061C60.7076 23.7551 59.447 23.9796 58.0064 23.9796L58.0164 24ZM54.6549 11.2347C54.36 11.761 54.2009 12.348 54.1698 12.9796H61.4679C61.4679 12.2755 61.3179 11.6429 61.0177 11.102C60.7176 10.5612 60.2974 10.1224 59.7672 9.81633C59.2369 9.5 58.6166 9.34694 57.9163 9.34694C57.216 9.34694 56.5357 9.52041 55.9754 9.85714C55.4152 10.2041 54.975 10.6531 54.6549 11.2347Z"
          fill="white"/>
    <path d="M32.3247 0.010214V3.85715H27.5025V0.010214H32.3247Z" fill="white"/>
    <path d="M78 23H109" stroke="white" strokeWidth="2" stroke-miterlimit="10"/>
    <path d="M144.117 0V3.8743H139.285V0H144.117Z" fill="white"/>
    <path d="M125.832 12.9013V22.7837H121V5.69349H125.601V8.71229H125.802C126.183 7.71913 126.834 6.93248 127.737 6.35231C128.639 5.77215 129.742 5.47716 131.035 5.47716C132.248 5.47716 133.3 5.73282 134.203 6.25398C135.105 6.77514 135.796 7.51264 136.298 8.47629C136.799 9.43995 137.05 10.5806 137.05 11.9081V22.7837H132.218V12.7439C132.218 11.7016 131.957 10.8854 131.406 10.2954C130.854 9.70545 130.092 9.41045 129.13 9.41045C128.478 9.41045 127.907 9.54812 127.416 9.82345C126.925 10.0988 126.534 10.4921 126.263 11.0231C125.982 11.5443 125.842 12.1736 125.842 12.9111L125.832 12.9013Z"
          fill="white"/>
    <path d="M139.295 22.7837V5.69349H144.127V22.7837H139.295Z" fill="white"/>
    <path d="M157.58 5.69349V15.5071H157.59C157.6 16.2741 157.44 16.9132 157.129 17.4344C156.808 17.9457 156.407 18.339 155.896 18.6045C155.385 18.87 154.843 18.9979 154.262 18.9979C153.35 18.9979 152.618 18.7127 152.077 18.1227C151.525 17.5425 151.245 16.7461 151.245 15.7332V5.69349H146.413V16.5691C146.423 17.9064 146.673 19.0569 147.164 20.0107C147.656 20.9645 148.337 21.702 149.23 22.2232C150.122 22.7443 151.144 23 152.307 23C153.61 23 154.723 22.6952 155.635 22.0855C156.548 21.4857 157.199 20.6794 157.59 19.6764H157.771V22.7837H162.412V5.69349H157.58Z"
          fill="white"/>
    <path d="M164.708 22.7837V22.7738H169.52V12.5178C169.52 11.8884 169.64 11.3378 169.89 10.8658C170.141 10.3938 170.472 10.0299 170.903 9.76445C171.324 9.49895 171.805 9.37112 172.347 9.37112C173.138 9.37112 173.78 9.61695 174.271 10.1184C174.762 10.6199 175.003 11.2886 175.003 12.1244V22.7837H179.685V12.3506C179.685 11.4558 179.935 10.7379 180.426 10.1971C180.918 9.65629 181.609 9.38096 182.481 9.38096C183.253 9.38096 183.895 9.61695 184.406 10.0889C184.917 10.5609 185.178 11.2689 185.178 12.2228V22.7837H190V11.2886C190 9.43995 189.489 8.0043 188.476 6.99148C187.464 5.97865 186.141 5.47716 184.517 5.47716C183.233 5.47716 182.131 5.77215 181.198 6.36215C180.266 6.95214 179.614 7.72897 179.264 8.71229H179.083C178.812 7.71913 178.251 6.93248 177.409 6.35231C176.577 5.77215 175.534 5.47716 174.361 5.47716C173.189 5.47716 172.166 5.76232 171.324 6.34248C170.482 6.92264 169.87 7.7093 169.51 8.71229H169.309V5.69349H164.708V22.7738H164.688L164.708 22.7837Z"
          fill="white"/>
</svg>
