<svg width="100" height="26" viewBox="0 0 100 26" fill="none" xmlns="http://www.w3.org/2000/svg">
<g id="Group 7">
<g id="uptitle_">
<path d="M38.3346 10.8466V15.1533C38.3346 15.3129 38.3434 15.4724 38.3611 15.6319C38.3789 15.7914 38.4232 15.9332 38.4941 16.0572C38.5827 16.1636 38.6979 16.2522 38.8397 16.3231C38.9992 16.394 39.2207 16.4294 39.5043 16.4294H40.7538V20.6564H39.5309C38.5915 20.6564 37.7586 20.5944 37.0319 20.4703C36.3053 20.3285 35.6849 20.0804 35.171 19.7259C34.6747 19.3538 34.2937 18.8664 34.0278 18.2638C33.762 17.6435 33.629 16.8459 33.629 15.8711V10.8466H31.6884V6.64621H33.629V3.16359H38.3346V6.64621H40.9133V10.8466H38.3346Z" fill="white"/>
<path d="M45.0674 0C45.4573 0 45.8206 0.062031 46.1574 0.186093C46.4941 0.310156 46.7865 0.496249 47.0347 0.744374C47.3005 0.992499 47.5132 1.28493 47.6727 1.62167C47.8322 1.95841 47.912 2.34833 47.912 2.79141C47.912 3.71301 47.6284 4.41308 47.0612 4.89161C46.4941 5.35241 45.8295 5.58281 45.0674 5.58281C44.6952 5.58281 44.3407 5.52964 44.004 5.4233C43.6672 5.29924 43.3659 5.12201 43.1001 4.89161C42.8342 4.66121 42.6216 4.37763 42.4621 4.04089C42.3026 3.68643 42.2228 3.26993 42.2228 2.79141C42.2228 2.34833 42.3026 1.95841 42.4621 1.62167C42.6393 1.28493 42.8608 0.992499 43.1267 0.744374C43.3925 0.496249 43.6938 0.310156 44.0306 0.186093C44.3673 0.062031 44.7129 0 45.0674 0ZM47.4334 20.6564H42.7545V6.64621H47.4334V20.6564Z" fill="white"/>
<path d="M55.7808 10.8466V15.1533C55.7808 15.3129 55.7897 15.4724 55.8074 15.6319C55.8252 15.7914 55.8695 15.9332 55.9404 16.0572C56.029 16.1636 56.1442 16.2522 56.286 16.3231C56.4455 16.394 56.667 16.4294 56.9506 16.4294H58.2001V20.6564H56.9772C56.0378 20.6564 55.2048 20.5944 54.4782 20.4703C53.7515 20.3285 53.1312 20.0804 52.6173 19.7259C52.121 19.3538 51.74 18.8664 51.4741 18.2638C51.2083 17.6435 51.0753 16.8459 51.0753 15.8711V10.8466H49.1346V6.64621H51.0753V3.16359H55.7808V6.64621H58.3596V10.8466H55.7808Z" fill="white"/>
<path d="M64.5873 20.6564H59.8818V1.83435H64.5873V20.6564Z" fill="white"/>
<path d="M73.7979 16.9345C74.3473 16.9523 74.8081 16.8548 75.1803 16.6421C75.5525 16.4117 75.7829 16.1724 75.8715 15.9243H80.4707C80.2757 16.8105 79.9656 17.5637 79.5402 18.184C79.1149 18.7866 78.6009 19.2917 77.9983 19.6994C77.3957 20.107 76.7311 20.4083 76.0044 20.6032C75.2778 20.7805 74.5245 20.8691 73.7447 20.8691C72.6636 20.8691 71.68 20.7096 70.7938 20.3906C69.9254 20.0538 69.181 19.5753 68.5607 18.955C67.9404 18.3169 67.453 17.5548 67.0985 16.6687C66.7618 15.7648 66.5934 14.7369 66.5934 13.5848C66.5934 12.486 66.7795 11.4846 67.1517 10.5808C67.5239 9.65915 68.0467 8.87047 68.7202 8.21471C69.3405 7.62984 70.0583 7.1779 70.8736 6.85888C71.7065 6.52214 72.6547 6.35377 73.7181 6.35377C74.817 6.35377 75.7474 6.50442 76.5095 6.80572C77.2894 7.10701 77.9983 7.56781 78.6363 8.18813C79.2389 8.80844 79.6908 9.55281 79.9921 10.4213C80.3112 11.2897 80.4707 12.2202 80.4707 13.2127C80.4707 13.5494 80.453 13.8596 80.4175 14.1431C80.3998 14.409 80.3555 14.6925 80.2846 14.9938H71.2457C71.2989 15.5078 71.5205 15.9598 71.9104 16.3497C72.318 16.7219 72.9472 16.9168 73.7979 16.9345ZM73.7181 10.0756C73.3105 10.0756 72.9472 10.1377 72.6282 10.2617C72.3269 10.3681 72.0787 10.5187 71.8838 10.7137C71.7065 10.8909 71.5648 11.0947 71.4584 11.3251C71.3698 11.5378 71.3255 11.7416 71.3255 11.9366H76.0576C76.0576 11.7416 76.0133 11.5378 75.9247 11.3251C75.8538 11.0947 75.7209 10.8909 75.5259 10.7137C75.3309 10.5187 75.0828 10.3681 74.7815 10.2617C74.498 10.1377 74.1435 10.0756 73.7181 10.0756Z" fill="white"/>
</g>
<g id="uptitle__2">
<path d="M6.76407 16.5889C7.22488 16.5889 7.57934 16.5092 7.82747 16.3497C8.09331 16.1901 8.28827 15.9863 8.41233 15.7382C8.53639 15.4901 8.60729 15.2154 8.62501 14.9141C8.66046 14.6128 8.67818 14.3292 8.67818 14.0634V6.64619H13.3571V14.4355C13.3571 15.5698 13.1976 16.5446 12.8786 17.3599C12.5773 18.1751 12.1431 18.8486 11.5759 19.3803C11.0088 19.8943 10.3176 20.2753 9.50231 20.5235C8.68704 20.7539 7.75657 20.8691 6.7109 20.8691C5.68296 20.8691 4.76135 20.7539 3.94608 20.5235C3.13081 20.2753 2.43961 19.8943 1.87247 19.3803C1.32305 18.8486 0.879965 18.1751 0.543224 17.3599C0.224206 16.5446 0.0646973 15.5698 0.0646973 14.4355V6.64619H4.77021V14.0634C4.77021 14.4001 4.80566 14.728 4.87655 15.047C4.94744 15.3483 5.05378 15.6141 5.19557 15.8445C5.35508 16.0749 5.55889 16.261 5.80702 16.4028C6.07287 16.5269 6.39189 16.5889 6.76407 16.5889Z" fill="#17FF9E"/>
<path d="M20.4239 8.18811C21.0619 7.49691 21.7177 7.01838 22.3912 6.75253C23.0647 6.48668 23.8268 6.35376 24.6775 6.35376C25.7054 6.37148 26.5916 6.56644 27.3359 6.93863C28.0803 7.31081 28.7095 7.82479 29.2235 8.48055C29.7374 9.11858 30.1274 9.87182 30.3932 10.7403C30.6591 11.6087 30.792 12.5303 30.792 13.5051C30.792 14.5685 30.6591 15.561 30.3932 16.4826C30.1274 17.3865 29.7109 18.1751 29.1437 18.8486C28.5943 19.5044 27.9208 20.0184 27.1233 20.3905C26.3435 20.745 25.4484 20.9045 24.4382 20.8691C23.6052 20.8691 22.8343 20.7273 22.1253 20.4437C21.4341 20.1601 20.9024 19.8323 20.5302 19.4601V25.9999H15.8247V6.64619H20.1846L20.4239 8.18811ZM23.3482 10.6605C22.8697 10.6605 22.4532 10.7491 22.0987 10.9264C21.762 11.0859 21.4696 11.3074 21.2214 11.591C20.991 11.8568 20.8138 12.167 20.6897 12.5214C20.5834 12.8582 20.5302 13.2038 20.5302 13.5582C20.5302 13.9482 20.5834 14.3292 20.6897 14.7014C20.7961 15.0559 20.9733 15.3749 21.2214 15.6585C21.4696 15.9243 21.7797 16.1458 22.1519 16.3231C22.5241 16.5003 22.9672 16.5889 23.4812 16.5889C24.0128 16.5889 24.4471 16.5003 24.7838 16.3231C25.1383 16.1281 25.413 15.8889 25.6079 15.6053C25.8206 15.3217 25.9624 15.0027 26.0333 14.6482C26.1219 14.2938 26.1662 13.9304 26.1662 13.5582C26.1662 13.2392 26.113 12.9114 26.0067 12.5746C25.9181 12.2379 25.7586 11.9277 25.5282 11.6441C25.3155 11.3606 25.0319 11.1302 24.6775 10.9529C24.323 10.758 23.8799 10.6605 23.3482 10.6605Z" fill="#17FF9E"/>
<path d="M80.5816 24.9366V20.8425H99.9354V24.9366H80.5816Z" fill="#17FF9E"/>
</g>
</g>
</svg>
