<svg width="82" height="12" viewBox="0 0 82 12" fill="none" xmlns="http://www.w3.org/2000/svg">
<path d="M34.2106 4.79494V11.9988H27.0415V10.1493H30.7779C29.5143 7.61113 27.571 4.79381 26.1505 4.79381C25.2438 4.79381 24.5934 6.33806 23.9645 7.83238C23.1413 9.78511 22.2097 11.9988 20.0835 11.9988C17.9573 11.9988 17.0246 9.78511 16.2014 7.83238C15.5736 6.33806 14.9232 4.79381 14.0153 4.79381C13.1075 4.79381 12.4582 6.33806 11.8292 7.83238C11.0061 9.78511 10.0745 11.9988 7.94713 11.9988C6.35386 11.9988 4.68833 10.6418 2.99909 7.96741C2.54629 7.25031 2.15333 6.53662 1.83942 5.92845V10.1482H0V2.94434H7.168V4.79381H3.31977C4.58219 7.33201 6.52663 10.1493 7.94713 10.1493C8.85498 10.1493 9.50539 8.60508 10.1343 7.11189C10.9564 5.15803 11.8891 2.94434 14.0153 2.94434C16.1415 2.94434 17.0742 5.15803 17.8963 7.11189C18.5252 8.60508 19.1756 10.1493 20.0835 10.1493C20.9913 10.1493 21.6406 8.60508 22.2696 7.11189C23.0916 5.15803 24.0243 2.94434 26.1505 2.94434C27.7438 2.94434 29.4093 4.30137 31.0986 6.97573C31.6067 7.78133 32.0403 8.58125 32.37 9.23367V4.79494H34.2106Z" fill="#2C2CFF"/>
<path d="M40.6881 9.96472L39.9237 11.9991H37.5547L41.6626 1.33008H44.122L48.1712 11.9991H45.7864L45.0513 9.96472H40.687H40.6881ZM41.3182 8.03583H44.4076L42.8776 3.65043L41.3182 8.03583Z" fill="white"/>
<path d="M50.7478 7.11662H53.8225V4.05762H55.9374V11.999H53.8225V8.95474H50.7478V11.999H48.6328V4.05762H50.7478V7.11662Z" fill="white"/>
<path d="M59.3571 8.97063V11.999H57.2422V4.05762H59.3571V7.13137H60.4073L62.1168 4.05762H64.531L62.1914 7.82464L64.7105 11.999H62.2512L60.4818 8.97063H59.3571Z" fill="white"/>
<path d="M67.2907 8.80497L70.9504 4.05875H72.765V11.999H70.6353V7.40255L67.0807 11.999H65.1758V4.05762H67.2907V8.80383V8.80497Z" fill="white"/>
<path d="M81.2976 4.05762V11.999H79.1827V5.91163H76.948C76.9277 6.36321 76.9108 6.81594 76.8961 7.26753C76.8814 7.71912 76.8588 8.17638 76.8283 8.63931C76.808 8.85036 76.7888 9.07161 76.7685 9.30195C76.7482 9.53341 76.7166 9.76942 76.6714 10.01C76.6262 10.2505 76.5607 10.4774 76.476 10.6885C76.3914 10.8995 76.2784 11.0901 76.1384 11.2615C75.8787 11.5531 75.5682 11.7494 75.2091 11.8492C74.8489 11.9502 74.4797 12.0001 74.0991 12.0001H73.3945V10.1314H73.6046C73.8643 10.1314 74.072 10.0735 74.2267 9.95777C74.3814 9.84204 74.4966 9.68659 74.5711 9.4903C74.6457 9.294 74.7032 9.07842 74.7439 8.84241C74.7834 8.60641 74.8139 8.36246 74.8342 8.1117C74.8839 7.47857 74.9167 6.83069 74.9313 6.16806C74.946 5.50542 74.9641 4.80194 74.9833 4.05875H81.2965L81.2976 4.05762Z" fill="white"/>
<path d="M68.1852 2.66755L66.2656 0H68.3952L70.0597 2.66755H68.1852Z" fill="white"/>
</svg>
