<svg width="86" height="29" viewBox="0 0 86 29" fill="none" xmlns="http://www.w3.org/2000/svg">
<path d="M27.597 15.2013C27.597 22.8221 21.4192 28.9999 13.7985 28.9999C6.17781 28.9999 0 22.8221 0 15.2013C0 7.58064 6.17781 1.40283 13.7985 1.40283C21.4192 1.40283 27.597 7.58064 27.597 15.2013Z" fill="#FAC942"/>
<path d="M78.9765 21.5569C78.7311 21.5569 78.4914 21.5979 78.2576 21.6797C78.0355 21.7615 77.9244 21.9193 77.9244 22.1531C77.9244 22.3168 77.9712 22.4512 78.0647 22.5564C78.1699 22.65 78.357 22.7318 78.6258 22.8019C79.0934 22.9305 79.5903 23.0357 80.1163 23.1176C80.6424 23.1994 81.1275 23.3338 81.5717 23.5209C82.016 23.6962 82.39 23.9592 82.694 24.3099C82.9979 24.6606 83.1557 25.1633 83.1674 25.818C83.1557 26.3908 83.033 26.8701 82.7992 27.2558C82.5771 27.6416 82.2848 27.9572 81.9224 28.2027C81.5717 28.4482 81.1684 28.6236 80.7125 28.7288C80.2566 28.8223 79.8007 28.8691 79.3448 28.8691C78.8421 28.8691 78.3453 28.8165 77.8543 28.7112C77.3633 28.606 76.9191 28.4307 76.5216 28.1852C76.1242 27.928 75.7852 27.6007 75.5046 27.2032C75.2357 26.8058 75.0662 26.3031 74.9961 25.6952H77.8368C77.9069 26.0108 78.0823 26.2446 78.3628 26.3966C78.6551 26.5369 78.9941 26.607 79.3799 26.607C79.6253 26.607 79.865 26.5603 80.0988 26.4668C80.3326 26.3615 80.4495 26.192 80.4495 25.9582C80.4495 25.7829 80.3969 25.6485 80.2917 25.5549C80.1865 25.4497 80.052 25.3679 79.8884 25.3094C79.7364 25.2393 79.5669 25.1925 79.3799 25.1692C79.1928 25.1341 79.0058 25.099 78.8187 25.064C78.3628 24.9704 77.9186 24.8652 77.4861 24.7483C77.0652 24.6197 76.6853 24.4502 76.3463 24.2398C76.019 24.0177 75.7501 23.7547 75.5397 23.4507C75.341 23.1351 75.2416 22.7318 75.2416 22.2408C75.2416 21.7031 75.3526 21.2472 75.5747 20.8731C75.7969 20.4873 76.0833 20.1834 76.434 19.9613C76.7964 19.7275 77.2055 19.5579 77.6614 19.4527C78.129 19.3475 78.6025 19.2949 79.0818 19.2949C79.5727 19.2949 80.0403 19.3534 80.4846 19.4703C80.9405 19.5755 81.3379 19.7508 81.6769 19.9963C82.016 20.2418 82.2965 20.5633 82.5186 20.9608C82.7407 21.3465 82.8752 21.8141 82.9219 22.3636H80.2391C80.204 22.0596 80.0637 21.8492 79.8182 21.7323C79.5844 21.6154 79.3039 21.5569 78.9765 21.5569Z" fill="white"/>
<path d="M70.9709 28.7288L70.9007 27.7293C70.5383 28.1267 70.1409 28.4131 69.7084 28.5885C69.2758 28.7522 68.7322 28.8457 68.0776 28.8691C67.3879 28.8691 66.7858 28.7522 66.2715 28.5184C65.7571 28.2729 65.3187 27.9397 64.9564 27.5189C64.6057 27.0863 64.3368 26.5837 64.1497 26.0108C63.9744 25.4263 63.8867 24.8009 63.8867 24.1346C63.8867 23.4332 63.9861 22.7902 64.1848 22.2057C64.3952 21.6095 64.6875 21.0952 65.0616 20.6627C65.4356 20.2301 65.8857 19.897 66.4118 19.6632C66.9495 19.4177 67.5691 19.2949 68.2705 19.2949C68.7848 19.2949 69.2583 19.3651 69.6908 19.5053C70.1233 19.6456 70.5033 19.8619 70.8306 20.1541V16.314H73.6011V28.7288H70.9709ZM68.7439 26.3966C69.0946 26.3849 69.3986 26.3148 69.6557 26.1862C69.9246 26.0576 70.1467 25.8939 70.3221 25.6952C70.4974 25.4848 70.626 25.2451 70.7079 24.9763C70.7897 24.7074 70.8306 24.4152 70.8306 24.0995C70.8306 23.7956 70.7897 23.5092 70.7079 23.2403C70.626 22.9714 70.4974 22.7318 70.3221 22.5214C70.1584 22.3109 69.9422 22.1473 69.6733 22.0304C69.4044 21.9135 69.0946 21.855 68.7439 21.855C68.3698 21.855 68.0484 21.9193 67.7795 22.0479C67.5223 22.1648 67.3061 22.3343 67.1307 22.5564C66.967 22.7669 66.8443 23.0124 66.7625 23.2929C66.6923 23.5618 66.6573 23.8423 66.6573 24.1346C66.6573 24.4502 66.6982 24.7425 66.78 25.0113C66.8618 25.2802 66.9846 25.514 67.1482 25.7127C67.3236 25.9115 67.5399 26.0751 67.797 26.2037C68.0659 26.3323 68.3815 26.3966 68.7439 26.3966Z" fill="white"/>
<path d="M56.132 20.5048C56.5411 20.0606 56.9854 19.7508 57.4647 19.5755C57.9439 19.4001 58.4057 19.3066 58.8499 19.2949C59.4344 19.2949 59.9429 19.3943 60.3755 19.593C60.8197 19.7801 61.1938 20.0431 61.4977 20.3821C61.8367 20.7912 62.0705 21.2705 62.1991 21.82C62.3277 22.3694 62.392 22.9773 62.392 23.6436V28.7288H59.6215V23.8716C59.6215 23.6144 59.5981 23.3631 59.5513 23.1176C59.5046 22.8721 59.4169 22.65 59.2883 22.4512C59.1597 22.2525 58.9844 22.1005 58.7622 21.9953C58.5401 21.8784 58.2654 21.82 57.9381 21.82C57.5874 21.8317 57.2952 21.9076 57.0614 22.0479C56.8276 22.1882 56.6464 22.3694 56.5178 22.5915C56.3892 22.8019 56.2957 23.0357 56.2372 23.2929C56.1904 23.5501 56.1671 23.8073 56.1671 24.0645V28.7288H53.4141V19.4878H55.9917L56.132 20.5048Z" fill="white"/>
<path d="M49.9236 15.1567C50.4145 15.1567 50.8178 15.3029 51.1335 15.5951C51.4608 15.8874 51.6245 16.2907 51.6245 16.805C51.6245 17.3428 51.4608 17.7578 51.1335 18.05C50.8178 18.3306 50.4145 18.4709 49.9236 18.4709C49.456 18.4709 49.0526 18.3306 48.7136 18.05C48.3863 17.7695 48.2227 17.3545 48.2227 16.805C48.2227 16.2907 48.3922 15.8874 48.7312 15.5951C49.0702 15.3029 49.4676 15.1567 49.9236 15.1567ZM51.3088 28.7289H48.5558V19.4879H51.3088V28.7289Z" fill="white"/>
<path d="M36.0893 16.314L39.4736 21.9602L42.8228 16.314H46.1193V28.7288H43.2611V20.5048L40.0171 25.9056H38.8248L35.5457 20.5048V28.7288H32.6875V16.314H36.0893Z" fill="white"/>
<path d="M83.3893 11.1521C83.6581 11.1521 83.9095 11.1053 84.1433 11.0118C84.3887 10.9066 84.5699 10.8131 84.6868 10.7313L85.4233 12.9056C85.248 13.0459 85.0434 13.1686 84.8096 13.2738C84.5875 13.3674 84.3537 13.4492 84.1082 13.5193C83.8744 13.5778 83.6406 13.6187 83.4068 13.6421C83.1847 13.6772 82.9859 13.6947 82.8106 13.6947C81.6767 13.6947 80.8291 13.4024 80.268 12.8179C79.7186 12.2217 79.4439 11.3976 79.4439 10.3455V6.80341H78.0586V4.33097H79.4439V1.91113H82.2144V4.33097H84.9499V6.80341H82.2144V9.69669C82.2144 10.0825 82.2904 10.4215 82.4424 10.7137C82.606 10.9943 82.9216 11.1404 83.3893 11.1521Z" fill="white"/>
<path d="M70.6553 5.26043C70.8658 5.03832 71.0879 4.85712 71.3217 4.71684C71.5672 4.56487 71.8068 4.44797 72.0406 4.36614C72.2744 4.27262 72.5024 4.21417 72.7245 4.19079C72.9466 4.15572 73.157 4.13818 73.3557 4.13818C73.987 4.13818 74.5247 4.24924 74.969 4.47135C75.4249 4.68177 75.7873 4.98571 76.0561 5.38317C76.3367 5.76894 76.5413 6.2307 76.6699 6.76844C76.8101 7.29449 76.8803 7.8673 76.8803 8.48688V13.572H74.1097V8.71483C74.1097 8.50441 74.0805 8.2823 74.0221 8.0485C73.9753 7.80301 73.8876 7.57505 73.759 7.36463C73.6305 7.15421 73.4493 6.98471 73.2155 6.85612C72.9934 6.72753 72.7186 6.66323 72.3913 6.66323C72.0523 6.66323 71.7717 6.72753 71.5496 6.85612C71.3275 6.98471 71.1463 7.16006 71.006 7.38217C70.8775 7.59259 70.7839 7.82639 70.7255 8.08357C70.6787 8.32906 70.6553 8.57455 70.6553 8.82004V13.572H67.9023V1.15723H70.6553V5.26043Z" fill="white"/>
<path d="M63.1939 12.6077C62.8549 13.0636 62.4282 13.3675 61.9138 13.5195C61.4111 13.6598 60.9202 13.7299 60.4409 13.7299C59.7161 13.7299 59.0907 13.6072 58.5646 13.3617C58.0386 13.1045 57.606 12.7597 57.267 12.3271C56.928 11.8829 56.6708 11.3744 56.4955 10.8016C56.3318 10.2288 56.25 9.62674 56.25 8.99548C56.25 8.32915 56.3435 7.70373 56.5306 7.11923C56.7293 6.52304 57.0099 6.00867 57.3722 5.57614C57.7346 5.14361 58.1789 4.8046 58.7049 4.55911C59.2426 4.30193 59.8622 4.17334 60.5636 4.17334C61.7092 4.17334 62.6152 4.52989 63.2816 5.24298L63.5446 4.33116H65.9995V11.7836C65.9995 12.1693 65.9936 12.5609 65.982 12.9584C65.9703 13.3442 65.941 13.7241 65.8943 14.0982C65.8592 14.4723 65.7832 14.8346 65.6663 15.1854C65.5611 15.5361 65.4033 15.8692 65.1929 16.1848C64.9941 16.5472 64.7428 16.8512 64.4389 17.0967C64.1466 17.3422 63.8193 17.5409 63.4569 17.6929C63.0945 17.8448 62.7146 17.9559 62.3171 18.026C61.9197 18.1079 61.5397 18.1488 61.1773 18.1488C60.6279 18.1488 60.096 18.0786 59.5817 17.9384C59.079 17.7981 58.6231 17.5877 58.2139 17.3071C57.8048 17.0265 57.4599 16.6641 57.1794 16.2199C56.9105 15.7757 56.7293 15.2496 56.6358 14.6418H59.5115C59.57 14.8989 59.7453 15.1211 60.0376 15.3081C60.3298 15.4951 60.6981 15.5887 61.1423 15.5887C61.5748 15.5887 61.9255 15.5068 62.1944 15.3432C62.4633 15.1912 62.6678 14.9866 62.8081 14.7294C62.9601 14.4723 63.0594 14.18 63.1062 13.8527C63.1647 13.5371 63.1939 13.2214 63.1939 12.9058V12.6077ZM61.1072 11.24C61.4696 11.24 61.7852 11.1757 62.0541 11.0471C62.323 10.9185 62.5451 10.749 62.7204 10.5386C62.8958 10.3281 63.0244 10.0885 63.1062 9.81962C63.188 9.53906 63.2289 9.23512 63.2289 8.9078C63.2289 8.28823 63.0478 7.76218 62.6854 7.32965C62.3347 6.89712 61.8145 6.68085 61.1247 6.68085C60.7507 6.68085 60.4292 6.74515 60.1603 6.87374C59.8914 7.00233 59.6752 7.18352 59.5115 7.41732C59.3479 7.63943 59.2251 7.89077 59.1433 8.17133C59.0731 8.45189 59.0381 8.7383 59.0381 9.03055C59.0381 9.33449 59.079 9.62089 59.1608 9.88977C59.2426 10.1469 59.3654 10.3749 59.5291 10.5736C59.6927 10.7724 59.909 10.936 60.1779 11.0646C60.4467 11.1815 60.7565 11.24 61.1072 11.24Z" fill="white"/>
<path d="M53.1267 0C53.6177 0 54.021 0.146126 54.3366 0.438377C54.6639 0.730627 54.8276 1.13393 54.8276 1.6483C54.8276 2.18604 54.6639 2.60103 54.3366 2.89328C54.021 3.17384 53.6177 3.31412 53.1267 3.31412C52.6591 3.31412 52.2558 3.17384 51.9168 2.89328C51.5894 2.61272 51.4258 2.19773 51.4258 1.6483C51.4258 1.13393 51.5953 0.730627 51.9343 0.438377C52.2733 0.146126 52.6708 0 53.1267 0ZM54.512 13.5721H51.7589V4.33116H54.512V13.5721Z" fill="white"/>
<path d="M47.14 5.34814C47.5024 4.86885 47.8998 4.55322 48.3324 4.40125C48.7766 4.23759 49.25 4.15576 49.7527 4.15576C49.9047 4.15576 50.0508 4.16161 50.1911 4.1733C50.343 4.1733 50.4599 4.18499 50.5418 4.20837V6.85616C50.3781 6.85616 50.1911 6.85616 49.9807 6.85616C49.7702 6.84447 49.554 6.85031 49.3319 6.87369C49.1214 6.88538 48.911 6.91461 48.7006 6.96137C48.5019 6.99644 48.3265 7.06073 48.1745 7.15425C47.8238 7.37637 47.5784 7.67446 47.4381 8.04854C47.3095 8.41093 47.2452 8.861 47.2452 9.39874V13.5721H44.4922V4.33111H46.9646L47.14 5.34814Z" fill="white"/>
<path d="M32.668 13.572V1.15723H38.5071C39.0098 1.15723 39.4891 1.21568 39.945 1.33258C40.4126 1.43779 40.8218 1.61898 41.1725 1.87616C41.5232 2.12165 41.8037 2.44897 42.0141 2.85813C42.2246 3.26728 42.3298 3.76995 42.3298 4.36614C42.3298 4.8805 42.2246 5.35395 42.0141 5.78648C41.8154 6.20732 41.4939 6.55218 41.0497 6.82105C41.6576 7.05485 42.1135 7.42893 42.4175 7.94329C42.7331 8.44596 42.8909 9.05384 42.8909 9.76693C42.8909 10.5385 42.7272 11.1697 42.3999 11.6607C42.0843 12.1517 41.6751 12.5375 41.1725 12.818C40.6815 13.0986 40.1262 13.2973 39.5066 13.4142C38.8871 13.5194 38.2733 13.572 37.6655 13.572H32.668ZM37.5427 6.08457C38.1272 6.08457 38.6007 5.9969 38.9631 5.82155C39.3371 5.63451 39.5242 5.30719 39.5242 4.83959C39.5242 4.60579 39.4716 4.41875 39.3664 4.27846C39.2728 4.12649 39.1442 4.01544 38.9806 3.9453C38.8286 3.86347 38.6474 3.81086 38.437 3.78748C38.2383 3.7641 38.0278 3.75241 37.8057 3.75241H35.5262V6.08457H37.5427ZM35.5262 10.9944H37.683C38.0103 10.9944 38.3143 10.9769 38.5948 10.9418C38.8871 10.9067 39.1384 10.8424 39.3488 10.7489C39.5592 10.6554 39.7229 10.5209 39.8398 10.3456C39.9684 10.1586 40.0327 9.91891 40.0327 9.62665C40.0327 9.36947 39.9742 9.1649 39.8573 9.01293C39.7521 8.84927 39.606 8.72652 39.419 8.64469C39.2319 8.56286 39.0157 8.51026 38.7702 8.48688C38.5247 8.4635 38.2675 8.45181 37.9986 8.45181H35.5262V10.9944Z" fill="white"/>
</svg>
