<svg width="71" height="26" viewBox="0 0 71 26" fill="none" xmlns="http://www.w3.org/2000/svg">
<g clip-path="url(#clip0_0_455)">
<path d="M0 0H71V26H0V0Z" fill="#CF0053"/>
<path d="M4.69155 6.7367H6.25998V5.18976C6.25998 4.8951 6.20189 4.65365 6.08571 4.4654C5.97783 4.26896 5.77036 4.17074 5.46332 4.17074C5.20606 4.17074 5.01105 4.26078 4.87827 4.44084C4.75379 4.62091 4.69155 4.83372 4.69155 5.07926V5.49669H3.42188V5.12837C3.42188 4.82553 3.47582 4.52679 3.5837 4.23213C3.69988 3.92929 3.84925 3.68374 4.03182 3.49549C4.21439 3.30724 4.43015 3.164 4.6791 3.06579C4.93636 2.96757 5.19776 2.91846 5.46332 2.91846C5.75377 2.91846 6.02762 2.97166 6.28487 3.07806C6.55043 3.17628 6.77449 3.31542 6.95705 3.49549C7.13962 3.67556 7.2807 3.88837 7.38028 4.13391C7.47986 4.37946 7.52965 4.64547 7.52965 4.93194V9.62187C7.52965 10.0229 7.46326 10.3708 7.33049 10.6654C7.19771 10.9601 7.03174 11.1893 6.83258 11.353C6.63341 11.5167 6.40935 11.6354 6.16039 11.709C5.91974 11.7745 5.67908 11.8072 5.43842 11.8072C5.15627 11.8072 4.89072 11.754 4.64176 11.6476C4.3928 11.533 4.17704 11.3816 3.99447 11.1934C3.81191 11.0051 3.67083 10.7923 3.57125 10.5549C3.47167 10.3094 3.42188 10.0516 3.42188 9.78148V9.24127H4.69155V9.67098C4.69155 9.84286 4.7123 9.9861 4.75379 10.1007C4.80358 10.2153 4.86582 10.3053 4.94051 10.3708C5.02349 10.4363 5.11063 10.4854 5.20191 10.5181C5.30149 10.5427 5.39278 10.5549 5.47576 10.5549C5.76621 10.5549 5.96953 10.4649 6.08571 10.2848C6.20189 10.1048 6.25998 9.88788 6.25998 9.63415V7.84166H4.69155V6.7367Z" fill="white"/>
<path d="M8.57809 11.7336V5.50897H9.84777V8.05037H10.3332C10.5241 8.05037 10.6527 7.9849 10.7191 7.85394C10.7855 7.72298 10.8394 7.55928 10.8809 7.36284L11.0179 6.65076C11.0677 6.46251 11.1299 6.29472 11.2046 6.14739C11.2876 5.99188 11.3954 5.86911 11.5282 5.77907C11.6693 5.68085 11.8311 5.61128 12.0137 5.57036C12.2046 5.52943 12.4203 5.50897 12.661 5.50897H12.6859V6.61393H12.6485C12.4992 6.61393 12.3747 6.64258 12.2751 6.69987C12.1755 6.74898 12.105 6.86766 12.0635 7.05591L11.939 7.74344C11.9307 7.768 11.9183 7.81711 11.9017 7.89077C11.8934 7.96443 11.8726 8.04628 11.8394 8.13632C11.8062 8.21816 11.7606 8.30001 11.7025 8.38186C11.6527 8.46371 11.5863 8.5251 11.5033 8.56602L12.773 11.7336H11.4784L10.4702 9.09395H9.84777V11.7336H8.57809Z" fill="white"/>
<path d="M13.2799 7.59611C13.2799 7.34238 13.2965 7.10911 13.3297 6.89631C13.3628 6.6835 13.4251 6.49525 13.5164 6.33155C13.6657 6.06145 13.8774 5.84455 14.1512 5.68085C14.4334 5.51716 14.7736 5.43531 15.1719 5.43531C15.5703 5.43531 15.9064 5.51716 16.1802 5.68085C16.4624 5.84455 16.6781 6.06145 16.8275 6.33155C16.9188 6.49525 16.981 6.6835 17.0142 6.89631C17.0474 7.10911 17.064 7.34238 17.064 7.59611V9.64643C17.064 9.90016 17.0474 10.1334 17.0142 10.3462C16.981 10.559 16.9188 10.7473 16.8275 10.911C16.6781 11.1811 16.4624 11.398 16.1802 11.5617C15.9064 11.7254 15.5703 11.8072 15.1719 11.8072C14.7736 11.8072 14.4334 11.7254 14.1512 11.5617C13.8774 11.398 13.6657 11.1811 13.5164 10.911C13.4251 10.7473 13.3628 10.559 13.3297 10.3462C13.2965 10.1334 13.2799 9.90016 13.2799 9.64643V7.59611ZM14.5495 9.84286C14.5495 10.0802 14.6035 10.2603 14.7114 10.3831C14.8275 10.4977 14.9811 10.5549 15.1719 10.5549C15.3628 10.5549 15.5122 10.4977 15.62 10.3831C15.7362 10.2603 15.7943 10.0802 15.7943 9.84286V7.39968C15.7943 7.16232 15.7362 6.98634 15.62 6.87175C15.5122 6.74898 15.3628 6.68759 15.1719 6.68759C14.9811 6.68759 14.8275 6.74898 14.7114 6.87175C14.6035 6.98634 14.5495 7.16232 14.5495 7.39968V9.84286Z" fill="white"/>
<path d="M17.999 11.7336V5.50897H19.2687V8.05037H20.5508V5.50897H21.8205V11.7336H20.5508V9.09395H19.2687V11.7336H17.999Z" fill="white"/>
<path d="M22.7494 7.59611C22.7494 7.34238 22.766 7.10911 22.7992 6.89631C22.8324 6.6835 22.8947 6.49525 22.9859 6.33155C23.1353 6.06145 23.3469 5.84455 23.6208 5.68085C23.9029 5.51716 24.2432 5.43531 24.6415 5.43531C25.0398 5.43531 25.3759 5.51716 25.6498 5.68085C25.9319 5.84455 26.1477 6.06145 26.2971 6.33155C26.3883 6.49525 26.4506 6.6835 26.4838 6.89631C26.517 7.10911 26.5336 7.34238 26.5336 7.59611V9.64643C26.5336 9.90016 26.517 10.1334 26.4838 10.3462C26.4506 10.559 26.3883 10.7473 26.2971 10.911C26.1477 11.1811 25.9319 11.398 25.6498 11.5617C25.3759 11.7254 25.0398 11.8072 24.6415 11.8072C24.2432 11.8072 23.9029 11.7254 23.6208 11.5617C23.3469 11.398 23.1353 11.1811 22.9859 10.911C22.8947 10.7473 22.8324 10.559 22.7992 10.3462C22.766 10.1334 22.7494 9.90016 22.7494 9.64643V7.59611ZM24.0191 9.84286C24.0191 10.0802 24.0731 10.2603 24.1809 10.3831C24.2971 10.4977 24.4506 10.5549 24.6415 10.5549C24.8324 10.5549 24.9817 10.4977 25.0896 10.3831C25.2058 10.2603 25.2639 10.0802 25.2639 9.84286V7.39968C25.2639 7.16232 25.2058 6.98634 25.0896 6.87175C24.9817 6.74898 24.8324 6.68759 24.6415 6.68759C24.4506 6.68759 24.2971 6.74898 24.1809 6.87175C24.0731 6.98634 24.0191 7.16232 24.0191 7.39968V9.84286Z" fill="white"/>
<path d="M27.4686 11.7336V5.50897H28.7632L30.0453 8.8484H30.0702L31.3523 5.50897H32.6469V11.7336H31.427V7.96443H31.4021L30.3814 10.7146H29.7341L28.7134 7.96443H28.6885V11.7336H27.4686Z" fill="white"/>
<path d="M36.4186 11.7336V7.78027H36.3937L34.9871 11.7336H33.6925V5.50897H34.8875V9.46227H34.9124L36.3066 5.50897H37.6136V11.7336H36.4186Z" fill="white"/>
<path d="M41.1166 11.7336V9.08167C41.0585 9.09804 40.9921 9.11032 40.9174 9.1185C40.7929 9.14306 40.6187 9.15533 40.3946 9.15533C40.3199 9.15533 40.2286 9.15124 40.1207 9.14306C40.0212 9.13487 39.9133 9.1185 39.7971 9.09395C39.6809 9.06939 39.5647 9.03665 39.4486 8.99573C39.3407 8.94662 39.237 8.88523 39.1374 8.81157C38.8967 8.62332 38.7432 8.42279 38.6768 8.20998C38.6187 7.99717 38.5897 7.75981 38.5897 7.4979V5.50897H39.8593V7.3874C39.8593 7.62476 39.9216 7.80483 40.0461 7.9276C40.1871 8.05037 40.3739 8.11176 40.6062 8.11176C40.7722 8.11176 40.9008 8.09948 40.9921 8.07493C41.0419 8.06674 41.0834 8.05447 41.1166 8.0381V5.50897H42.3862V11.7336H41.1166Z" fill="white"/>
<path d="M47.1016 9.09395H44.5872V9.94108C44.5872 10.1375 44.6411 10.2889 44.749 10.3953C44.8652 10.5017 45.0187 10.5549 45.2096 10.5549C45.4502 10.5549 45.6079 10.4854 45.6826 10.3462C45.7656 10.2071 45.8154 10.0679 45.832 9.9288H47.1016C47.1016 10.4772 46.9315 10.9192 46.5913 11.2548C46.4253 11.4266 46.2261 11.5617 45.9938 11.6599C45.7614 11.7581 45.5 11.8072 45.2096 11.8072C44.8112 11.8072 44.471 11.7254 44.1888 11.5617C43.915 11.398 43.7034 11.1811 43.554 10.911C43.4627 10.7473 43.4005 10.559 43.3673 10.3462C43.3341 10.1334 43.3175 9.90016 43.3175 9.64643V7.59611C43.3175 7.34238 43.3341 7.10911 43.3673 6.89631C43.4005 6.6835 43.4627 6.49525 43.554 6.33155C43.7034 6.06145 43.915 5.84455 44.1888 5.68085C44.471 5.51716 44.8112 5.43531 45.2096 5.43531C45.5 5.43531 45.7614 5.48442 45.9938 5.58263C46.2344 5.68085 46.4378 5.8159 46.6037 5.98779C46.9357 6.35611 47.1016 6.81855 47.1016 7.37512V9.09395ZM44.5872 8.11176H45.832V7.39968C45.832 7.16232 45.7739 6.98634 45.6577 6.87175C45.5498 6.74898 45.4004 6.68759 45.2096 6.68759C45.0187 6.68759 44.8652 6.74898 44.749 6.87175C44.6411 6.98634 44.5872 7.16232 44.5872 7.39968V8.11176Z" fill="white"/>
<path d="M49.381 9.94108C49.381 10.1375 49.435 10.2889 49.5429 10.3953C49.659 10.5017 49.8126 10.5549 50.0034 10.5549C50.2441 10.5549 50.4018 10.4854 50.4765 10.3462C50.5594 10.2071 50.6092 10.0679 50.6258 9.9288H51.8955C51.8955 10.4772 51.7254 10.9192 51.3851 11.2548C51.2192 11.4266 51.02 11.5617 50.7876 11.6599C50.5553 11.7581 50.2939 11.8072 50.0034 11.8072C49.6051 11.8072 49.2649 11.7254 48.9827 11.5617C48.7089 11.398 48.4972 11.1811 48.3479 10.911C48.2566 10.7473 48.1944 10.559 48.1612 10.3462C48.128 10.1334 48.1114 9.90016 48.1114 9.64643V7.59611C48.1114 7.34238 48.128 7.10911 48.1612 6.89631C48.1944 6.6835 48.2566 6.49525 48.3479 6.33155C48.4972 6.06145 48.7089 5.84455 48.9827 5.68085C49.2649 5.51716 49.6051 5.43531 50.0034 5.43531C50.2939 5.43531 50.5553 5.48442 50.7876 5.58263C51.0283 5.68085 51.2316 5.8159 51.3976 5.98779C51.7295 6.35611 51.8955 6.83492 51.8955 7.42423H50.6258C50.6258 7.1705 50.5677 6.98634 50.4516 6.87175C50.3437 6.74898 50.1943 6.68759 50.0034 6.68759C49.8126 6.68759 49.659 6.74898 49.5429 6.87175C49.435 6.98634 49.381 7.16232 49.381 7.39968V9.94108Z" fill="white"/>
<path d="M52.6438 11.7336V5.50897H53.9135V8.05037H54.399C54.5898 8.05037 54.7185 7.9849 54.7849 7.85394C54.8512 7.72298 54.9052 7.55928 54.9467 7.36284L55.0836 6.65076C55.1334 6.46251 55.1956 6.29472 55.2703 6.14739C55.3533 5.99188 55.4612 5.86911 55.594 5.77907C55.735 5.68085 55.8969 5.61128 56.0794 5.57036C56.2703 5.52943 56.4861 5.50897 56.7267 5.50897H56.7516V6.61393H56.7143C56.5649 6.61393 56.4404 6.64258 56.3408 6.69987C56.2412 6.74898 56.1707 6.86766 56.1292 7.05591L56.0047 7.74344C55.9964 7.768 55.984 7.81711 55.9674 7.89077C55.9591 7.96443 55.9384 8.04628 55.9052 8.13632C55.872 8.21816 55.8263 8.30001 55.7682 8.38186C55.7184 8.46371 55.6521 8.5251 55.5691 8.56602L56.8387 11.7336H55.5442L54.5359 9.09395H53.9135V11.7336H52.6438Z" fill="white"/>
<path d="M60.1837 11.7336V7.78027H60.1588L58.7522 11.7336H57.4576V5.50897H58.6526V9.46227H58.6775L60.0717 5.50897H61.3787V11.7336H60.1837Z" fill="white"/>
<path d="M66.1016 9.09395H63.5871V9.94108C63.5871 10.1375 63.641 10.2889 63.7489 10.3953C63.8651 10.5017 64.0186 10.5549 64.2095 10.5549C64.4502 10.5549 64.6078 10.4854 64.6825 10.3462C64.7655 10.2071 64.8153 10.0679 64.8319 9.9288H66.1016C66.1016 10.4772 65.9314 10.9192 65.5912 11.2548C65.4252 11.4266 65.2261 11.5617 64.9937 11.6599C64.7614 11.7581 64.4999 11.8072 64.2095 11.8072C63.8112 11.8072 63.4709 11.7254 63.1888 11.5617C62.9149 11.398 62.7033 11.1811 62.5539 10.911C62.4627 10.7473 62.4004 10.559 62.3672 10.3462C62.334 10.1334 62.3174 9.90016 62.3174 9.64643V7.59611C62.3174 7.34238 62.334 7.10911 62.3672 6.89631C62.4004 6.6835 62.4627 6.49525 62.5539 6.33155C62.7033 6.06145 62.9149 5.84455 63.1888 5.68085C63.4709 5.51716 63.8112 5.43531 64.2095 5.43531C64.4999 5.43531 64.7614 5.48442 64.9937 5.58263C65.2344 5.68085 65.4377 5.8159 65.6037 5.98779C65.9356 6.35611 66.1016 6.81855 66.1016 7.37512V9.09395ZM63.5871 8.11176H64.8319V7.39968C64.8319 7.16232 64.7738 6.98634 64.6576 6.87175C64.5497 6.74898 64.4004 6.68759 64.2095 6.68759C64.0186 6.68759 63.8651 6.74898 63.7489 6.87175C63.641 6.98634 63.5871 7.16232 63.5871 7.39968V8.11176Z" fill="white"/>
<path d="M3.50901 21.6577V15.4331H4.77869V17.9746H6.06081V15.4331H7.33049V21.6577H6.06081V19.0181H4.77869V21.6577H3.50901Z" fill="white"/>
<path d="M10.7739 21.6577V21.0193H10.749C10.583 21.2485 10.4129 21.4245 10.2386 21.5473C10.0726 21.67 9.83613 21.7314 9.52908 21.7314C9.37971 21.7314 9.22619 21.7069 9.06851 21.6577C8.91914 21.6168 8.77392 21.535 8.63284 21.4122C8.49177 21.2976 8.37559 21.1339 8.2843 20.9211C8.20132 20.7001 8.15982 20.4177 8.15982 20.074C8.15982 19.722 8.18887 19.4151 8.24696 19.1532C8.30505 18.8831 8.41293 18.658 8.5706 18.4779C8.71997 18.306 8.92329 18.1792 9.18054 18.0973C9.4378 18.0073 9.76559 17.9623 10.1639 17.9623C10.2054 17.9623 10.2511 17.9623 10.3008 17.9623C10.3506 17.9623 10.3963 17.9664 10.4378 17.9746C10.4793 17.9827 10.5291 17.9868 10.5871 17.9868C10.6452 17.9868 10.7075 17.9909 10.7739 17.9991V17.3484C10.7739 17.1356 10.7282 16.9596 10.6369 16.8205C10.5457 16.6813 10.3797 16.6118 10.139 16.6118C9.97305 16.6118 9.81953 16.665 9.67846 16.7714C9.54568 16.8778 9.45855 17.0333 9.41705 17.2379H8.18472C8.21791 16.6813 8.40878 16.2312 8.75732 15.8874C8.92329 15.7237 9.12245 15.5968 9.35481 15.5068C9.58717 15.4086 9.84858 15.3595 10.139 15.3595C10.4046 15.3595 10.6535 15.4004 10.8859 15.4823C11.1183 15.5641 11.3216 15.6869 11.4958 15.8506C11.6618 16.0143 11.7946 16.2189 11.8942 16.4644C11.9937 16.71 12.0435 16.9965 12.0435 17.3239V21.6577H10.7739ZM10.7739 18.9813C10.6328 18.9567 10.5166 18.9445 10.4253 18.9445C10.1515 18.9445 9.91496 19.0099 9.7158 19.1409C9.52493 19.2637 9.4295 19.4928 9.4295 19.8284C9.4295 20.0658 9.48759 20.2581 9.60377 20.4055C9.71995 20.5528 9.88177 20.6265 10.0892 20.6265C10.305 20.6265 10.471 20.5569 10.5871 20.4177C10.7116 20.2786 10.7739 20.0822 10.7739 19.8284V18.9813Z" fill="white"/>
<path d="M12.2975 15.4331H13.6418L14.5132 19.3128H14.5381L15.397 15.4331H16.704L14.8866 22.7381C14.8202 23.0164 14.7248 23.2456 14.6003 23.4257C14.4841 23.6057 14.3472 23.7531 14.1895 23.8677C14.0319 23.9823 13.8617 24.06 13.6792 24.1009C13.5049 24.15 13.3223 24.1746 13.1315 24.1746H12.7829V22.996H13.0692C13.1937 22.996 13.3016 22.9796 13.3929 22.9469C13.4841 22.9141 13.5671 22.8405 13.6418 22.7259C13.7082 22.6113 13.7704 22.4476 13.8285 22.2348C13.8866 22.0302 13.953 21.7437 14.0277 21.3754L12.2975 15.4331Z" fill="white"/>
<path d="M17.2089 21.6577V15.4331H18.4786V17.9746H18.964C19.1549 17.9746 19.2835 17.9091 19.3499 17.7781C19.4163 17.6472 19.4702 17.4835 19.5117 17.287L19.6487 16.5749C19.6985 16.3867 19.7607 16.2189 19.8354 16.0716C19.9184 15.9161 20.0263 15.7933 20.159 15.7032C20.3001 15.605 20.4619 15.5355 20.6445 15.4945C20.8354 15.4536 21.0511 15.4331 21.2918 15.4331H21.3167V16.5381H21.2793C21.13 16.5381 21.0055 16.5668 20.9059 16.624C20.8063 16.6732 20.7358 16.7918 20.6943 16.9801L20.5698 17.6676C20.5615 17.6922 20.5491 17.7413 20.5325 17.8149C20.5242 17.8886 20.5034 17.9705 20.4702 18.0605C20.437 18.1423 20.3914 18.2242 20.3333 18.306C20.2835 18.3879 20.2171 18.4493 20.1341 18.4902L21.4038 21.6577H20.1092L19.101 19.0181H18.4786V21.6577H17.2089Z" fill="white"/>
<path d="M24.7488 21.6577V17.7045H24.7239L23.3173 21.6577H22.0227V15.4331H23.2177V19.3864H23.2426L24.6367 15.4331H25.9438V21.6577H24.7488Z" fill="white"/>
<path d="M70.9961 16.9673V25.9989H61.8438L70.9961 16.9673Z" fill="white"/>
<path d="M61.8438 25.9989V24.9673C61.8438 20.549 65.4255 16.9673 69.8438 16.9673H70.9961L61.8438 25.9989Z" fill="#830034"/>
</g>
<defs>
<clipPath id="clip0_0_455">
<rect width="71" height="26" rx="4" fill="white"/>
</clipPath>
</defs>
</svg>
