<svg width="137" height="33" viewBox="0 0 137 33" fill="none" xmlns="http://www.w3.org/2000/svg">
<path d="M42.3756 12.1584V23.587H39.5938V9.30127H53.5029V23.587H50.7211V12.1584H42.3756Z" fill="black"/>
<path d="M59.0747 20.7298H56.2929V12.1584H59.0747V20.7298ZM67.4202 12.1584H59.0747V9.30127H67.4202V12.1584ZM70.202 20.7298H67.4202V12.1584H70.202V20.7298ZM67.4202 23.587H59.0747V20.7298H67.4202V23.587Z" fill="black"/>
<path d="M75.7738 15.0156H72.992V12.1584H75.7738V15.0156ZM72.992 17.8727H75.7738V23.587H72.992V17.8727ZM84.1193 12.1584H75.7738V9.30127H86.9011V23.587H84.1193V17.8727H75.7738V15.0156H84.1193V12.1584Z" fill="black"/>
<path d="M100.818 12.1584H92.4729V9.30127H100.818V12.1584ZM92.4729 23.587V29.3013H89.6911V12.1584H92.4729V20.7298H100.818V23.587H92.4729ZM103.6 20.7298H100.818V12.1584H103.6V20.7298Z" fill="black"/>
<path d="M106.39 9.30127H109.172V15.0156H106.39V9.30127ZM117.517 15.0156V9.30127H120.299V23.587H117.517V17.8727H109.172V15.0156H117.517Z" fill="black"/>
<path d="M134.217 12.1584H125.871V9.30127H134.217V12.1584ZM125.871 17.8727V20.7298H123.089V12.1584H125.871V15.0156H134.217V12.1584H136.998V17.8727H125.871ZM136.998 23.587H125.871V20.7298H136.998V23.587Z" fill="black"/>
<rect y="0.5" width="31.6763" height="32" rx="6.63462" fill="#FF5841"/>
<path d="M8.35686 9.54224H14.1802V12.2557H8.35686V9.54224Z" fill="white"/>
<path d="M8.35686 9.54224H14.1802V12.2557H8.35686V9.54224Z" fill="white"/>
<path d="M8.35686 20.394H14.1802V23.1075H8.35686V20.394Z" fill="white"/>
<path d="M8.35686 20.394H14.1802V23.1075H8.35686V20.394Z" fill="white"/>
<path d="M17.1609 9.54224H22.9843V12.2557H17.1609V9.54224Z" fill="white"/>
<path d="M17.1609 9.54224H22.9843V12.2557H17.1609V9.54224Z" fill="white"/>
<path d="M17.1609 20.394H22.9843V23.1075H17.1609V20.394Z" fill="white"/>
<path d="M17.1609 20.394H22.9843V23.1075H17.1609V20.394Z" fill="white"/>
<path d="M5.51172 14.9681H25.8259V17.6816H5.51172V14.9681Z" fill="white"/>
<path d="M5.51172 14.9681H25.8259V17.6816H5.51172V14.9681Z" fill="white"/>
<path d="M11.3363 12.2573H20.0037V20.3977H11.3363V12.2573Z" fill="white"/>
</svg>
