<svg width="173" height="40" viewBox="0 0 173 40" fill="none" xmlns="http://www.w3.org/2000/svg">
<path d="M53.5128 14.5714V28.8571H50V11H67.5641V28.8571H64.0513V14.5714H53.5128Z" fill="black"/>
<path d="M74.6 25.2857H71.0872V14.5714H74.6V25.2857ZM85.1384 14.5714H74.6V11H85.1384V14.5714ZM88.6513 25.2857H85.1384V14.5714H88.6513V25.2857ZM85.1384 28.8571H74.6V25.2857H85.1384V28.8571Z" fill="black"/>
<path d="M95.6872 18.1429H92.1744V14.5714H95.6872V18.1429ZM92.1744 21.7143H95.6872V28.8571H92.1744V21.7143ZM106.226 14.5714H95.6872V11H109.738V28.8571H106.226V21.7143H95.6872V18.1429H106.226V14.5714Z" fill="black"/>
<path d="M127.313 14.5714H116.774V11H127.313V14.5714ZM116.774 28.8571V36H113.262V14.5714H116.774V25.2857H127.313V28.8571H116.774ZM130.826 25.2857H127.313V14.5714H130.826V25.2857Z" fill="black"/>
<path d="M134.349 11H137.862V18.1429H134.349V11ZM148.4 18.1429V11H151.913V28.8571H148.4V21.7143H137.862V18.1429H148.4Z" fill="black"/>
<path d="M169.487 14.5714H158.949V11H169.487V14.5714ZM158.949 21.7143V25.2857H155.436V14.5714H158.949V18.1429H169.487V14.5714H173V21.7143H158.949ZM173 28.8571H158.949V25.2857H173V28.8571Z" fill="black"/>
<rect width="40" height="40" rx="10" fill="#FF5841"/>
<path d="M10.5459 11.3027H17.8995V14.6945H10.5459V11.3027Z" fill="white"/>
<path d="M10.5459 11.3027H17.8995V14.6945H10.5459V11.3027Z" fill="white"/>
<path d="M10.5459 24.8675H17.8995V28.2593H10.5459V24.8675Z" fill="white"/>
<path d="M10.5459 24.8675H17.8995V28.2593H10.5459V24.8675Z" fill="white"/>
<path d="M21.6634 11.3027H29.017V14.6945H21.6634V11.3027Z" fill="white"/>
<path d="M21.6634 11.3027H29.017V14.6945H21.6634V11.3027Z" fill="white"/>
<path d="M21.6634 24.8675H29.017V28.2593H21.6634V24.8675Z" fill="white"/>
<path d="M21.6634 24.8675H29.017V28.2593H21.6634V24.8675Z" fill="white"/>
<path d="M6.95312 18.0851H32.6053V21.4769H6.95312V18.0851Z" fill="white"/>
<path d="M6.95312 18.0851H32.6053V21.4769H6.95312V18.0851Z" fill="white"/>
<path d="M14.3083 14.6966H25.2532V24.872H14.3083V14.6966Z" fill="white"/>
</svg>
