<svg width="100" height="32" viewBox="0 0 100 32" fill="none" xmlns="http://www.w3.org/2000/svg">
    <path d="M15.892 7.31084H11.3514V9.58111H13.6217V11.8514H9.08111V9.58111H6.81084V11.8514H2.27028V9.58111H4.54056V7.31084H0V5.04056H4.54056V2.77028H2.27028V0.5H6.81084V2.77028H9.08111V0.5H13.6217V2.77028H11.3514V5.04056H15.892V7.31084Z"
          fill="#3E51FF"/>
    <path d="M21.3514 2.81232V12.0616H19.0391V0.5H30.6006V12.0616H28.2883V2.81232H21.3514Z" fill="white"/>
    <path d="M35.2264 9.74927H32.9141V2.81232H35.2264V9.74927ZM42.1635 2.81232H35.2264V0.5H42.1635V2.81232ZM44.4758 9.74927H42.1635V2.81232H44.4758V9.74927ZM42.1635 12.0616H35.2264V9.74927H42.1635V12.0616Z"
          fill="white"/>
    <path d="M49.1092 5.12463H46.7969V2.81232H49.1092V5.12463ZM46.7969 7.43695H49.1092V12.0616H46.7969V7.43695ZM56.046 2.81232H49.1092V0.5H58.3583V12.0616H56.046V7.43695H49.1092V5.12463H56.046V2.81232Z"
          fill="white"/>
    <path d="M69.9214 2.81232H62.9842V0.5H69.9214V2.81232ZM62.9842 12.0616V16.6863H60.6719V2.81232H62.9842V9.74927H69.9214V12.0616H62.9842ZM72.2336 9.74927H69.9214V2.81232H72.2336V9.74927Z"
          fill="white"/>
    <path d="M74.5625 0.5H76.8748V5.12463H74.5625V0.5ZM83.8116 5.12463V0.5H86.1239V12.0616H83.8116V7.43695H76.8748V5.12463H83.8116Z"
          fill="white"/>
    <path d="M97.687 2.81232H90.7502V0.5H97.687V2.81232ZM90.7502 7.43695V9.74927H88.4375V2.81232H90.7502V5.12463H97.687V2.81232H99.9993V7.43695H90.7502ZM99.9993 12.0616H90.7502V9.74927H99.9993V12.0616Z"
          fill="white"/>
    <rect y="17.5" width="100" height="1" fill="#61636A"/>
    <path d="M0 27.9664C0.182232 28.1477 0.372058 28.3154 0.569476 28.4698C0.766894 28.6174 0.975702 28.7483 1.1959 28.8624C1.4161 28.9698 1.64768 29.0537 1.89066 29.1141C2.14123 29.1745 2.40319 29.2047 2.67654 29.2047C3.01822 29.2047 3.35991 29.151 3.70159 29.0436C4.04328 28.9295 4.3508 28.7752 4.62415 28.5805C4.90509 28.3792 5.13288 28.1409 5.30752 27.8658C5.48216 27.5906 5.56948 27.2919 5.56948 26.9698C5.56948 26.7886 5.52012 26.6309 5.42141 26.4966C5.3227 26.3557 5.19362 26.2383 5.03417 26.1443C4.88231 26.0503 4.70767 25.9799 4.51025 25.9329C4.32043 25.8792 4.1306 25.8523 3.94077 25.8523C3.84207 25.8523 3.71678 25.8658 3.56492 25.8926C3.42065 25.9128 3.265 25.943 3.09795 25.9832C2.9309 26.0168 2.76006 26.0604 2.58542 26.1141C2.41078 26.1611 2.24753 26.2148 2.09567 26.2752C1.94381 26.3356 1.81473 26.3993 1.70843 26.4664C1.60213 26.5268 1.5262 26.5872 1.48064 26.6477C1.48064 26.6812 1.47304 26.7383 1.45786 26.8188C1.45027 26.8993 1.43888 26.9899 1.42369 27.0906C1.4161 27.1846 1.4085 27.2752 1.40091 27.3624C1.39332 27.443 1.38573 27.5 1.37813 27.5336C1.37813 27.5738 1.37054 27.6242 1.35535 27.6846C1.34017 27.7383 1.32118 27.7953 1.29841 27.8557C1.28322 27.9094 1.25664 27.9631 1.21868 28.0168C1.18831 28.0705 1.14655 28.1141 1.09339 28.1477C0.987092 28.1074 0.911162 28.0436 0.865604 27.9564C0.820046 27.8624 0.789674 27.7617 0.774487 27.6544C0.766894 27.5403 0.766894 27.4295 0.774487 27.3221C0.782081 27.2081 0.785877 27.1141 0.785877 27.0403C0.785877 26.9732 0.785877 26.8624 0.785877 26.7081C0.79347 26.5537 0.801063 26.3725 0.808656 26.1644C0.823842 25.9564 0.842825 25.7315 0.865604 25.4899C0.895976 25.2416 0.933941 24.9966 0.979499 24.755C1.02506 24.5067 1.082 24.2718 1.15034 24.0503C1.21868 23.8221 1.3022 23.6208 1.40091 23.4463C1.49962 23.2651 1.61352 23.1242 1.7426 23.0235C1.87927 22.9161 2.03113 22.8624 2.19818 22.8624C2.3956 22.8624 2.57024 22.9027 2.7221 22.9832C2.88155 23.0638 3.01443 23.1678 3.12073 23.2953C3.23462 23.4161 3.32194 23.557 3.38269 23.7181C3.45103 23.8725 3.48519 24.0302 3.48519 24.1913C3.48519 24.3188 3.45862 24.443 3.40547 24.5638C3.35232 24.6779 3.29537 24.7886 3.23462 24.896C3.18147 25.0034 3.12832 25.1107 3.07517 25.2181C3.02202 25.3255 2.99544 25.4362 2.99544 25.5503C3.17768 25.5503 3.38269 25.5537 3.61048 25.5604C3.83827 25.5671 4.06986 25.5839 4.30524 25.6107C4.54062 25.6376 4.76841 25.6846 4.98861 25.7517C5.2164 25.8121 5.41762 25.8993 5.59226 26.0134C5.76689 26.1208 5.90357 26.2584 6.00228 26.4262C6.10858 26.594 6.16173 26.7987 6.16173 27.0403C6.16173 27.2819 6.11238 27.5134 6.01367 27.7349C5.91496 27.9497 5.77828 28.151 5.60364 28.3389C5.4366 28.5268 5.23918 28.6946 5.01139 28.8423C4.79119 28.9899 4.55201 29.1174 4.29385 29.2248C4.04328 29.3322 3.78512 29.4161 3.51936 29.4765C3.2612 29.5302 3.01063 29.557 2.76765 29.557C2.63857 29.557 2.47532 29.5403 2.2779 29.5067C2.08808 29.4664 1.89066 29.4161 1.68565 29.3557C1.48064 29.2886 1.27563 29.2081 1.07062 29.1141C0.873197 29.0134 0.694761 28.9094 0.535308 28.802C0.375854 28.6879 0.246773 28.5638 0.148064 28.4295C0.0493546 28.2953 0 28.1544 0 28.0067V27.9664ZM2.33485 23.3054C2.23614 23.3054 2.14882 23.349 2.07289 23.4362C1.99696 23.5235 1.92863 23.6376 1.86788 23.7785C1.81473 23.9128 1.76917 24.0638 1.73121 24.2315C1.70084 24.3926 1.67046 24.5537 1.64009 24.7148C1.61731 24.8691 1.60213 25.0101 1.59453 25.1376C1.58694 25.2651 1.58314 25.3591 1.58314 25.4195C1.58314 25.4396 1.58314 25.4765 1.58314 25.5302C1.58314 25.5772 1.58314 25.6275 1.58314 25.6812C1.58314 25.7349 1.58314 25.7886 1.58314 25.8423C1.58314 25.8893 1.58314 25.9228 1.58314 25.943C1.76538 25.8356 1.94002 25.7181 2.10706 25.5906C2.27411 25.4631 2.42217 25.3289 2.55125 25.1879C2.68793 25.0403 2.79423 24.8826 2.87016 24.7148C2.95368 24.5403 2.99544 24.349 2.99544 24.1409C2.99544 24.047 2.98405 23.9497 2.96128 23.849C2.9385 23.7483 2.90053 23.6577 2.84738 23.5772C2.80182 23.4966 2.73349 23.4329 2.64237 23.3859C2.55885 23.3322 2.45634 23.3054 2.33485 23.3054Z"
          fill="#61636A"/>
    <path d="M9.1344 30C9.1344 29.8255 9.14958 29.651 9.17995 29.4765C9.21033 29.302 9.2445 29.1309 9.28246 28.9631C9.32043 28.7886 9.35459 28.6174 9.38497 28.4497C9.42293 28.2752 9.44191 28.1007 9.44191 27.9262V27.8758C9.03189 27.8087 8.64844 27.7081 8.29157 27.5738C7.94229 27.4329 7.63857 27.2517 7.38041 27.0302C7.12225 26.8087 6.91724 26.547 6.76538 26.245C6.62111 25.9362 6.54897 25.5772 6.54897 25.1678C6.54897 25.1074 6.54518 25.0268 6.53759 24.9262C6.53759 24.8188 6.54897 24.7181 6.57175 24.6242C6.59453 24.5302 6.6325 24.4497 6.68565 24.3826C6.74639 24.3087 6.83371 24.2718 6.94761 24.2718C7.05391 24.2718 7.12984 24.2819 7.1754 24.302C7.22855 24.3221 7.25513 24.3826 7.25513 24.4832C7.25513 24.5705 7.24374 24.6544 7.22096 24.7349C7.19818 24.8154 7.1754 24.896 7.15262 24.9765C7.12984 25.0503 7.10706 25.1309 7.08428 25.2181C7.0615 25.2987 7.05011 25.3792 7.05011 25.4597C7.05011 25.7013 7.10706 25.9396 7.22096 26.1745C7.33485 26.4027 7.48671 26.604 7.67654 26.7785C7.87396 26.953 8.09795 27.094 8.34852 27.2013C8.59909 27.3087 8.86105 27.3624 9.1344 27.3624C9.15718 27.3624 9.18375 27.3624 9.21412 27.3624C9.25209 27.3624 9.29385 27.3624 9.33941 27.3624C9.38497 27.3557 9.42293 27.3523 9.4533 27.3523C9.49127 27.3523 9.52164 27.3523 9.54442 27.3523C9.68109 27.2718 9.7874 27.1342 9.86333 26.9396C9.94685 26.7383 10.0152 26.5168 10.0683 26.2752C10.1215 26.0268 10.167 25.7685 10.205 25.5C10.243 25.2315 10.2923 24.9899 10.3531 24.7752C10.4138 24.5537 10.486 24.3725 10.5695 24.2315C10.6606 24.0839 10.7821 24.0101 10.9339 24.0101C10.9415 24.0101 10.9567 24.0235 10.9795 24.0503C11.0023 24.0705 11.0175 24.0872 11.0251 24.1007C11.0326 24.1074 11.0402 24.1342 11.0478 24.1812C11.0554 24.2215 11.063 24.2718 11.0706 24.3322C11.0782 24.3859 11.0858 24.443 11.0934 24.5034C11.1086 24.557 11.12 24.6007 11.1276 24.6342V24.6745C11.1276 24.9966 11.0858 25.3121 11.0023 25.6208C10.9263 25.9228 10.8276 26.2215 10.7062 26.5168C10.5923 26.8054 10.467 27.094 10.3303 27.3826C10.1936 27.6644 10.0645 27.953 9.94305 28.2483C9.82916 28.5369 9.73045 28.8322 9.64692 29.1342C9.571 29.4362 9.53303 29.7517 9.53303 30.0805C9.53303 30.3221 9.55201 30.557 9.58998 30.7852C9.63554 31.0201 9.65831 31.2584 9.65831 31.5C9.55961 31.5 9.47608 31.4698 9.40775 31.4094C9.33941 31.349 9.28626 31.2718 9.24829 31.1779C9.21033 31.0839 9.17995 30.9765 9.15718 30.8557C9.14199 30.7416 9.1306 30.6275 9.12301 30.5134C9.12301 30.406 9.12301 30.3054 9.12301 30.2114C9.1306 30.1174 9.1344 30.047 9.1344 30Z"
          fill="#61636A"/>
    <path d="M22.7107 24.9765C22.6272 25.0034 22.5702 25.0403 22.5399 25.0872C22.5171 25.1275 22.4905 25.1812 22.4601 25.2483C22.445 25.2752 22.4146 25.3389 22.369 25.4396C22.3235 25.5336 22.2703 25.6477 22.2096 25.7819C22.1488 25.9161 22.0805 26.057 22.0046 26.2047C21.9362 26.3523 21.8717 26.4933 21.8109 26.6275C21.7502 26.7617 21.697 26.8792 21.6515 26.9799C21.6059 27.0805 21.5756 27.1477 21.5604 27.1812C21.5072 27.2886 21.4389 27.4128 21.3554 27.5537C21.2794 27.6946 21.1845 27.8289 21.0706 27.9564C20.9643 28.0839 20.8428 28.1913 20.7062 28.2785C20.5771 28.3658 20.4328 28.4094 20.2733 28.4094C20.0228 28.4094 19.8216 28.3255 19.6697 28.1577C19.5178 27.9832 19.4002 27.7617 19.3166 27.4933C19.2407 27.2181 19.1875 26.9128 19.1572 26.5772C19.1268 26.2349 19.1002 25.9027 19.0774 25.5805C19.0623 25.2584 19.0433 24.9564 19.0205 24.6745C18.9977 24.3926 18.9522 24.1711 18.8838 24.0101C18.8686 24.0101 18.8573 24.0101 18.8497 24.0101C18.8421 24.0101 18.8345 24.0101 18.8269 24.0101C18.8193 24.0101 18.8155 24.0101 18.8155 24.0101C18.8155 24.0101 18.8117 24.0101 18.8041 24.0101H18.7813C18.7054 24.0503 18.6333 24.1107 18.5649 24.1913C18.5042 24.2718 18.4472 24.3591 18.3941 24.453C18.3409 24.5403 18.2954 24.6242 18.2574 24.7047C18.227 24.7852 18.2043 24.849 18.1891 24.896L16.8907 28.5805C16.8831 28.6007 16.8717 28.6275 16.8565 28.6611C16.8413 28.6946 16.8185 28.7282 16.7882 28.7617C16.7654 28.7886 16.735 28.8121 16.697 28.8322C16.6667 28.8523 16.6325 28.8557 16.5945 28.8423C16.5718 28.8423 16.5414 28.8289 16.5034 28.802C16.473 28.7685 16.4427 28.7349 16.4123 28.7013C16.3819 28.6611 16.3554 28.6242 16.3326 28.5906C16.3098 28.5503 16.2946 28.5201 16.287 28.5C16.1731 27.8221 16.1086 27.1309 16.0934 26.4262C16.0782 25.7215 16.0782 25.0369 16.0934 24.3725C16.0858 24.3591 16.0668 24.3289 16.0364 24.2819C16.0137 24.2349 16.0023 24.2047 16.0023 24.1913C16.0023 24.1443 16.0175 24.0973 16.0478 24.0503C16.0858 23.9966 16.1276 23.9463 16.1731 23.8993C16.2263 23.8523 16.2794 23.8154 16.3326 23.7886C16.3933 23.755 16.4465 23.7383 16.492 23.7383C16.568 23.7383 16.6211 23.7584 16.6515 23.7987C16.6819 23.8322 16.697 23.8826 16.697 23.9497C16.697 24.3121 16.6781 24.6711 16.6401 25.0268C16.6021 25.3826 16.5831 25.745 16.5831 26.1141C16.5831 26.1611 16.5831 26.2282 16.5831 26.3154C16.5831 26.4027 16.5831 26.4899 16.5831 26.5772C16.5907 26.6577 16.5945 26.7315 16.5945 26.7987C16.5945 26.8658 16.5945 26.9027 16.5945 26.9094L16.697 27.2718C16.7046 27.2584 16.7198 27.2416 16.7426 27.2215C16.773 27.2013 16.792 27.1879 16.7995 27.1812C16.8147 27.1544 16.8413 27.104 16.8793 27.0302C16.9172 26.9564 16.9552 26.8792 16.9932 26.7987C17.0387 26.7114 17.0805 26.6309 17.1185 26.557C17.1564 26.4765 17.1792 26.4195 17.1868 26.3859C17.202 26.3523 17.2285 26.2919 17.2665 26.2047C17.3045 26.1107 17.35 26 17.4032 25.8725C17.4563 25.7383 17.5133 25.6007 17.574 25.4597C17.6424 25.3188 17.7031 25.1846 17.7563 25.057C17.8094 24.9295 17.855 24.8188 17.8929 24.7248C17.9385 24.6309 17.9689 24.5671 17.9841 24.5336C18.0144 24.4799 18.06 24.3859 18.1207 24.2517C18.1891 24.1107 18.2688 23.9732 18.3599 23.8389C18.4586 23.698 18.5611 23.5738 18.6674 23.4664C18.7813 23.3591 18.899 23.3054 19.0205 23.3054C19.1344 23.3054 19.2217 23.3725 19.2825 23.5067C19.3432 23.6409 19.3888 23.8188 19.4191 24.0403C19.4571 24.255 19.4837 24.5034 19.4989 24.7852C19.514 25.0604 19.5254 25.3456 19.533 25.6409C19.5482 25.9362 19.5672 26.2248 19.59 26.5067C19.6203 26.7819 19.6621 27.0302 19.7153 27.2517C19.7684 27.4664 19.8405 27.6409 19.9317 27.7752C20.0304 27.9094 20.1595 27.9765 20.3189 27.9765C20.3645 27.9765 20.4138 27.9564 20.467 27.9161C20.5277 27.8691 20.5847 27.8154 20.6378 27.755C20.691 27.6946 20.7365 27.6342 20.7745 27.5738C20.82 27.5134 20.8504 27.4664 20.8656 27.4329C20.9188 27.3456 20.9947 27.2081 21.0934 27.0201C21.1921 26.8322 21.3022 26.6208 21.4237 26.3859C21.5528 26.151 21.6856 25.9027 21.8223 25.6409C21.959 25.3792 22.0881 25.1309 22.2096 24.896C22.3311 24.6544 22.4412 24.4396 22.5399 24.2517C22.6386 24.0638 22.7107 23.9228 22.7563 23.8289C22.7942 23.7483 22.8436 23.6376 22.9043 23.4966C22.9727 23.3557 23.022 23.2349 23.0524 23.1342C23.1435 23.1477 23.2346 23.1711 23.3257 23.2047C23.4169 23.2383 23.4624 23.2987 23.4624 23.3859C23.4624 23.3993 23.4586 23.4195 23.451 23.4463C23.451 23.4664 23.451 23.4799 23.451 23.4866C23.3447 24.0369 23.265 24.5738 23.2118 25.0973C23.1663 25.6141 23.1435 26.1477 23.1435 26.698C23.1435 26.745 23.1435 26.8289 23.1435 26.9497C23.1435 27.0638 23.1435 27.1913 23.1435 27.3322C23.1511 27.4664 23.1549 27.594 23.1549 27.7148C23.1549 27.8289 23.1549 27.9128 23.1549 27.9664C23.1929 28.2416 23.303 28.4933 23.4852 28.7215C23.6674 28.9497 23.8535 29.1644 24.0433 29.3658V29.5973C23.9749 29.5973 23.8914 29.5671 23.7927 29.5067C23.694 29.4396 23.5953 29.3557 23.4966 29.255C23.3979 29.1544 23.2992 29.0403 23.2005 28.9128C23.1093 28.7852 23.0258 28.6611 22.9499 28.5403C22.8815 28.4195 22.8246 28.3087 22.779 28.2081C22.7335 28.1074 22.7107 28.0268 22.7107 27.9664V24.9765Z"
          fill="#61636A"/>
    <path d="M25.4442 29.2852C25.4442 29.2718 25.4442 29.255 25.4442 29.2349C25.4518 29.2148 25.4556 29.2047 25.4556 29.2047C25.5695 29.0101 25.6872 28.8221 25.8087 28.6409C25.9377 28.4597 26.0668 28.2819 26.1959 28.1074C26.3326 27.9262 26.4617 27.745 26.5831 27.5638C26.7122 27.3758 26.8299 27.1879 26.9362 27C26.9058 26.9396 26.8299 26.8859 26.7084 26.8389C26.5869 26.7919 26.4389 26.7416 26.2642 26.6879C26.0972 26.6342 25.9188 26.5738 25.7289 26.5067C25.5391 26.4329 25.3645 26.349 25.205 26.255C25.0456 26.1544 24.9127 26.0403 24.8064 25.9128C24.7001 25.7785 24.6469 25.6242 24.6469 25.4497C24.6469 25.2685 24.7153 25.1107 24.8519 24.9765C24.9886 24.8356 25.1557 24.7215 25.3531 24.6342C25.5505 24.5403 25.7593 24.4698 25.9795 24.4228C26.1997 24.3758 26.3895 24.3523 26.549 24.3523C26.8831 24.3523 27.1754 24.4027 27.426 24.5034C27.6841 24.604 27.9499 24.7349 28.2232 24.896C28.3144 24.8356 28.3903 24.7685 28.451 24.6946C28.5194 24.6208 28.5801 24.5403 28.6333 24.453C28.656 24.406 28.7054 24.3221 28.7813 24.2013C28.8648 24.0738 28.9446 23.9396 29.0205 23.7987C29.104 23.6577 29.1838 23.5268 29.2597 23.406C29.3432 23.2785 29.3964 23.1879 29.4191 23.1342C29.4799 23.094 29.5292 23.0705 29.5672 23.0638C29.6052 23.0503 29.6583 23.0436 29.7267 23.0436C29.7342 23.0436 29.7494 23.0436 29.7722 23.0436C29.8026 23.0436 29.8216 23.0436 29.8292 23.0436C29.9051 23.3255 29.962 23.6141 30 23.9094C30.038 24.2047 30.0645 24.5 30.0797 24.7953C30.1025 25.0906 30.1215 25.3859 30.1367 25.6812C30.1519 25.9765 30.1784 26.2718 30.2164 26.5671C30.2392 26.5671 30.2809 26.5705 30.3417 26.5772C30.4024 26.5772 30.448 26.5772 30.4784 26.5772C30.5847 26.5772 30.691 26.5671 30.7973 26.547C30.9036 26.5268 31.0099 26.5067 31.1162 26.4866C31.2225 26.4597 31.3288 26.4362 31.4351 26.4161C31.549 26.396 31.6629 26.3859 31.7768 26.3859H31.8109C31.8185 26.3926 31.8337 26.406 31.8565 26.4262C31.8793 26.4463 31.8983 26.4597 31.9134 26.4664C31.8679 26.5403 31.792 26.6007 31.6856 26.6477C31.5869 26.6879 31.473 26.7215 31.344 26.7483C31.2225 26.7752 31.0934 26.802 30.9567 26.8289C30.82 26.849 30.6986 26.8758 30.5923 26.9094C30.486 26.9362 30.3948 26.9698 30.3189 27.0101C30.2506 27.0503 30.2164 27.1074 30.2164 27.1812C30.2164 27.3154 30.224 27.4497 30.2392 27.5839C30.262 27.7181 30.2847 27.8557 30.3075 27.9966C30.3379 28.1309 30.3645 28.2685 30.3872 28.4094C30.41 28.5436 30.4214 28.6812 30.4214 28.8221C30.4214 28.8557 30.4176 28.9027 30.41 28.9631C30.41 29.0235 30.4024 29.0839 30.3872 29.1443C30.3797 29.2047 30.3569 29.2584 30.3189 29.3054C30.2885 29.3523 30.2392 29.3758 30.1708 29.3758C30.0949 29.3758 30.0266 29.3255 29.9658 29.2248C29.9051 29.1242 29.8557 28.9966 29.8178 28.8423C29.7798 28.6879 29.7456 28.5201 29.7153 28.3389C29.6925 28.151 29.6697 27.9732 29.6469 27.8054C29.6317 27.6309 29.6128 27.4799 29.59 27.3523C29.5672 27.2181 29.5444 27.1309 29.5216 27.0906C29.4609 27.0839 29.347 27.0772 29.18 27.0705C29.0205 27.0638 28.8497 27.057 28.6674 27.0503C28.4928 27.0369 28.3257 27.0268 28.1663 27.0201C28.0068 27.0067 27.8967 27 27.836 27H27.7221C27.5702 27 27.426 27.0638 27.2893 27.1913C27.1602 27.3121 27.0387 27.4698 26.9248 27.6644C26.8185 27.8523 26.7122 28.057 26.6059 28.2785C26.4996 28.4933 26.3971 28.698 26.2984 28.8926C26.1997 29.0805 26.0972 29.2383 25.9909 29.3658C25.8846 29.4933 25.7707 29.557 25.6492 29.557C25.5657 29.557 25.5087 29.5302 25.4784 29.4765C25.4556 29.4161 25.4442 29.3523 25.4442 29.2852ZM27.7335 26.5671C27.7942 26.6007 27.8664 26.6275 27.9499 26.6477C28.041 26.6611 28.1321 26.6678 28.2232 26.6678C28.3144 26.6678 28.3979 26.6678 28.4738 26.6678C28.5573 26.6678 28.6295 26.6678 28.6902 26.6678C28.7206 26.6678 28.7585 26.6678 28.8041 26.6678C28.8497 26.6611 28.8952 26.6577 28.9408 26.6577C28.9863 26.6577 29.0243 26.6577 29.0547 26.6577C29.0926 26.651 29.1154 26.6477 29.123 26.6477L29.2255 26.5671C29.2407 26.5537 29.2141 26.4933 29.1458 26.3859C29.0774 26.2785 28.9901 26.1678 28.8838 26.0537C28.7851 25.9329 28.6864 25.8255 28.5877 25.7315C28.489 25.6309 28.4207 25.5805 28.3827 25.5805C28.3751 25.5805 28.3675 25.5839 28.3599 25.5906C28.3523 25.5973 28.3409 25.6007 28.3257 25.6007C28.2118 25.7483 28.1055 25.9027 28.0068 26.0638C27.9081 26.2248 27.817 26.3926 27.7335 26.5671ZM25.1481 25.4396C25.1481 25.6141 25.2164 25.7685 25.3531 25.9027C25.4897 26.0302 25.6568 26.1376 25.8542 26.2248C26.0516 26.3121 26.2604 26.3758 26.4806 26.4161C26.7008 26.4564 26.8945 26.4765 27.0615 26.4765C27.1678 26.4765 27.2779 26.4295 27.3918 26.3356C27.5057 26.2349 27.6082 26.1208 27.6993 25.9933C27.798 25.8658 27.8778 25.7349 27.9385 25.6007C28.0068 25.4664 28.041 25.3624 28.041 25.2886C28.041 25.2081 27.9803 25.1342 27.8588 25.0671C27.7373 24.9933 27.593 24.9295 27.426 24.8758C27.2665 24.8221 27.1071 24.7819 26.9476 24.755C26.7882 24.7215 26.6705 24.7047 26.5945 24.7047C26.4806 24.7047 26.3402 24.7215 26.1731 24.755C26.0137 24.7819 25.8542 24.8255 25.6948 24.8859C25.5429 24.9463 25.4138 25.0235 25.3075 25.1174C25.2012 25.2047 25.1481 25.3121 25.1481 25.4396ZM28.7244 25.1074C28.7244 25.1946 28.7623 25.302 28.8383 25.4295C28.9142 25.557 29.0053 25.6812 29.1116 25.802C29.2179 25.9228 29.328 26.0268 29.4419 26.1141C29.5634 26.2013 29.6697 26.245 29.7608 26.245C29.7608 26.2114 29.757 26.1611 29.7494 26.094C29.7494 26.0268 29.7456 25.953 29.738 25.8725C29.738 25.7919 29.7342 25.7181 29.7267 25.651C29.7267 25.5839 29.7267 25.5336 29.7267 25.5C29.7115 25.406 29.6925 25.2819 29.6697 25.1275C29.6545 24.9732 29.6355 24.8221 29.6128 24.6745C29.5976 24.5268 29.5786 24.396 29.5558 24.2819C29.5406 24.1678 29.5292 24.1074 29.5216 24.1007L29.4191 23.9295C29.4115 23.9362 29.3926 23.9497 29.3622 23.9698C29.3394 23.9899 29.3242 24.0034 29.3166 24.0101C29.2938 24.0503 29.2559 24.1174 29.2027 24.2114C29.1496 24.2987 29.0888 24.3926 29.0205 24.4933C28.9598 24.594 28.9028 24.6913 28.8497 24.7852C28.7965 24.8792 28.7585 24.943 28.7358 24.9765C28.7358 24.9899 28.732 25.0134 28.7244 25.047C28.7244 25.0805 28.7244 25.1007 28.7244 25.1074Z"
          fill="#61636A"/>
    <path d="M36.1617 27.8456C36.1617 27.6644 36.1807 27.4832 36.2187 27.302C36.2642 27.1208 36.3136 26.9463 36.3667 26.7785C36.4199 26.604 36.4655 26.4295 36.5034 26.255C36.549 26.0805 36.5718 25.906 36.5718 25.7315V25.6007C36.473 25.7081 36.3667 25.8557 36.2528 26.0436C36.139 26.2315 36.0213 26.4362 35.8998 26.6577C35.7859 26.8792 35.6606 27.104 35.5239 27.3322C35.3948 27.5604 35.2582 27.7685 35.1139 27.9564C34.9696 28.1443 34.8216 28.2987 34.6697 28.4195C34.5178 28.5336 34.3584 28.5906 34.1913 28.5906C34.0926 28.5906 34.0319 28.5671 34.0091 28.5201C33.9863 28.4664 33.9749 28.4027 33.9749 28.3289C33.9749 28.0872 34.0319 27.8624 34.1458 27.6544C34.2597 27.4396 34.4002 27.2383 34.5672 27.0503C34.7418 26.8624 34.9279 26.6879 35.1253 26.5268C35.3303 26.3591 35.5163 26.1946 35.6834 26.0336C35.6834 26.0134 35.6834 25.9799 35.6834 25.9329C35.691 25.8792 35.6948 25.8389 35.6948 25.8121C35.6948 25.6174 35.6568 25.4362 35.5809 25.2685C35.5125 25.094 35.4138 24.9463 35.2847 24.8255C35.1557 24.7047 34.9962 24.6107 34.8064 24.5436C34.6241 24.4698 34.4153 24.4329 34.18 24.4329C33.9901 24.4329 33.8041 24.4732 33.6219 24.5537C33.4396 24.6275 33.265 24.7114 33.0979 24.8054C32.9385 24.8926 32.7904 24.9732 32.6538 25.047C32.5247 25.1208 32.426 25.1577 32.3576 25.1577C32.2893 25.1577 32.2437 25.1376 32.221 25.0973C32.1982 25.057 32.1868 25.0168 32.1868 24.9765C32.1868 24.8356 32.2741 24.7081 32.4487 24.594C32.6234 24.4799 32.8284 24.3792 33.0638 24.2919C33.2992 24.2047 33.5308 24.1376 33.7585 24.0906C33.9939 24.0369 34.1724 24.0101 34.2938 24.0101C34.6279 24.0101 34.8861 24.0537 35.0683 24.1409C35.2582 24.2282 35.41 24.3423 35.5239 24.4832C35.6454 24.6242 35.7479 24.7819 35.8314 24.9564C35.9226 25.1309 36.0402 25.3121 36.1845 25.5C36.1845 25.5067 36.1883 25.5101 36.1959 25.5101H36.2187C36.3326 25.5101 36.4313 25.4799 36.5148 25.4195C36.5983 25.3591 36.6743 25.2819 36.7426 25.1879C36.8109 25.094 36.8717 24.9966 36.9248 24.896C36.978 24.7886 37.0311 24.6879 37.0843 24.594C37.145 24.5 37.2058 24.4228 37.2665 24.3624C37.3273 24.302 37.3956 24.2718 37.4715 24.2718C37.5247 24.2718 37.5702 24.2819 37.6082 24.302C37.6462 24.3221 37.6651 24.3557 37.6651 24.4027V24.453C37.5664 24.7215 37.4525 24.9866 37.3235 25.2483C37.202 25.5034 37.0843 25.7651 36.9704 26.0336C36.8565 26.2953 36.7578 26.5638 36.6743 26.8389C36.5983 27.1074 36.5604 27.3826 36.5604 27.6644C36.5604 27.8859 36.5793 28.0772 36.6173 28.2383C36.6629 28.3993 36.7274 28.547 36.8109 28.6812C36.8945 28.8087 37.0046 28.9295 37.1412 29.0436C37.2855 29.151 37.4601 29.2584 37.6651 29.3658V29.5872C37.3918 29.5872 37.1602 29.5336 36.9704 29.4262C36.7806 29.3121 36.6249 29.1711 36.5034 29.0034C36.3819 28.8356 36.2946 28.651 36.2415 28.4497C36.1883 28.2416 36.1617 28.0403 36.1617 27.8456ZM35.1822 27C35.0835 27.0537 35 27.1342 34.9317 27.2416C34.8709 27.3423 34.8216 27.4396 34.7836 27.5336C34.8747 27.4664 34.9506 27.3859 35.0114 27.2919C35.0797 27.1913 35.1367 27.094 35.1822 27Z"
          fill="#61636A"/>
    <path d="M38.3599 27.8758C38.3068 27.2315 38.2574 26.6074 38.2118 26.0034C38.1739 25.3993 38.1549 24.7785 38.1549 24.1409C38.1549 24.1275 38.1549 24.0973 38.1549 24.0503C38.1549 24.0034 38.1549 23.9564 38.1549 23.9094C38.1625 23.8557 38.1663 23.8054 38.1663 23.7584C38.1663 23.7114 38.1663 23.6812 38.1663 23.6678C38.1739 23.6208 38.2005 23.5638 38.246 23.4966C38.2916 23.4228 38.3447 23.3859 38.4055 23.3859C38.4586 23.3859 38.5004 23.406 38.5308 23.4463C38.5687 23.4866 38.5953 23.5336 38.6105 23.5872C38.6257 23.6409 38.6371 23.6913 38.6446 23.7383C38.6522 23.7852 38.656 23.8154 38.656 23.8289C38.6636 23.8826 38.6712 23.9664 38.6788 24.0805C38.694 24.1879 38.7054 24.302 38.713 24.4228C38.7206 24.5436 38.7282 24.6577 38.7358 24.7651C38.7509 24.8725 38.7585 24.943 38.7585 24.9765C38.7585 25.0235 38.7585 25.1141 38.7585 25.2483C38.7585 25.3826 38.7585 25.5403 38.7585 25.7215C38.7585 25.9027 38.7585 26.0973 38.7585 26.3054C38.7585 26.5067 38.7585 26.698 38.7585 26.8792C38.7585 27.0604 38.7585 27.2181 38.7585 27.3523C38.7585 27.4799 38.7585 27.5671 38.7585 27.6141C38.7585 27.7886 38.7851 27.9597 38.8383 28.1275C38.899 28.2886 38.9598 28.453 39.0205 28.6208C39.0812 28.7819 39.1382 28.9463 39.1913 29.1141C39.2445 29.2752 39.2711 29.4396 39.2711 29.6074C39.18 29.6074 39.0926 29.5705 39.0091 29.4966C38.9332 29.4228 38.861 29.3322 38.7927 29.2248C38.732 29.1107 38.675 28.9866 38.6219 28.8523C38.5763 28.7181 38.5345 28.5872 38.4966 28.4597C38.4586 28.3322 38.4282 28.2181 38.4055 28.1174C38.3827 28.0101 38.3675 27.9295 38.3599 27.8758Z"
          fill="#61636A"/>
    <path d="M46.3554 24.9765C46.2718 25.0034 46.2149 25.0403 46.1845 25.0872C46.1617 25.1275 46.1352 25.1812 46.1048 25.2483C46.0896 25.2752 46.0592 25.3389 46.0137 25.4396C45.9681 25.5336 45.915 25.6477 45.8542 25.7819C45.7935 25.9161 45.7251 26.057 45.6492 26.2047C45.5809 26.3523 45.5163 26.4933 45.4556 26.6275C45.3948 26.7617 45.3417 26.8792 45.2961 26.9799C45.2506 27.0805 45.2202 27.1477 45.205 27.1812C45.1519 27.2886 45.0835 27.4128 45 27.5537C44.9241 27.6946 44.8292 27.8289 44.7153 27.9564C44.609 28.0839 44.4875 28.1913 44.3508 28.2785C44.2217 28.3658 44.0774 28.4094 43.918 28.4094C43.6674 28.4094 43.4662 28.3255 43.3144 28.1577C43.1625 27.9832 43.0448 27.7617 42.9613 27.4933C42.8853 27.2181 42.8322 26.9128 42.8018 26.5772C42.7715 26.2349 42.7449 25.9027 42.7221 25.5805C42.7069 25.2584 42.6879 24.9564 42.6651 24.6745C42.6424 24.3926 42.5968 24.1711 42.5285 24.0101C42.5133 24.0101 42.5019 24.0101 42.4943 24.0101C42.4867 24.0101 42.4791 24.0101 42.4715 24.0101C42.4639 24.0101 42.4601 24.0101 42.4601 24.0101C42.4601 24.0101 42.4563 24.0101 42.4487 24.0101H42.426C42.35 24.0503 42.2779 24.1107 42.2096 24.1913C42.1488 24.2718 42.0919 24.3591 42.0387 24.453C41.9856 24.5403 41.94 24.6242 41.9021 24.7047C41.8717 24.7852 41.8489 24.849 41.8337 24.896L40.5353 28.5805C40.5277 28.6007 40.5163 28.6275 40.5011 28.6611C40.486 28.6946 40.4632 28.7282 40.4328 28.7617C40.41 28.7886 40.3797 28.8121 40.3417 28.8322C40.3113 28.8523 40.2771 28.8557 40.2392 28.8423C40.2164 28.8423 40.186 28.8289 40.1481 28.802C40.1177 28.7685 40.0873 28.7349 40.0569 28.7013C40.0266 28.6611 40 28.6242 39.9772 28.5906C39.9544 28.5503 39.9393 28.5201 39.9317 28.5C39.8178 27.8221 39.7532 27.1309 39.738 26.4262C39.7229 25.7215 39.7229 25.0369 39.738 24.3725C39.7304 24.3591 39.7115 24.3289 39.6811 24.2819C39.6583 24.2349 39.6469 24.2047 39.6469 24.1913C39.6469 24.1443 39.6621 24.0973 39.6925 24.0503C39.7304 23.9966 39.7722 23.9463 39.8178 23.8993C39.8709 23.8523 39.9241 23.8154 39.9772 23.7886C40.038 23.755 40.0911 23.7383 40.1367 23.7383C40.2126 23.7383 40.2658 23.7584 40.2961 23.7987C40.3265 23.8322 40.3417 23.8826 40.3417 23.9497C40.3417 24.3121 40.3227 24.6711 40.2847 25.0268C40.2468 25.3826 40.2278 25.745 40.2278 26.1141C40.2278 26.1611 40.2278 26.2282 40.2278 26.3154C40.2278 26.4027 40.2278 26.4899 40.2278 26.5772C40.2354 26.6577 40.2392 26.7315 40.2392 26.7987C40.2392 26.8658 40.2392 26.9027 40.2392 26.9094L40.3417 27.2718C40.3493 27.2584 40.3645 27.2416 40.3872 27.2215C40.4176 27.2013 40.4366 27.1879 40.4442 27.1812C40.4594 27.1544 40.486 27.104 40.5239 27.0302C40.5619 26.9564 40.5998 26.8792 40.6378 26.7987C40.6834 26.7114 40.7251 26.6309 40.7631 26.557C40.8011 26.4765 40.8238 26.4195 40.8314 26.3859C40.8466 26.3523 40.8732 26.2919 40.9112 26.2047C40.9491 26.1107 40.9947 26 41.0478 25.8725C41.101 25.7383 41.1579 25.6007 41.2187 25.4597C41.287 25.3188 41.3478 25.1846 41.4009 25.057C41.4541 24.9295 41.4996 24.8188 41.5376 24.7248C41.5831 24.6309 41.6135 24.5671 41.6287 24.5336C41.6591 24.4799 41.7046 24.3859 41.7654 24.2517C41.8337 24.1107 41.9134 23.9732 42.0046 23.8389C42.1033 23.698 42.2058 23.5738 42.3121 23.4664C42.426 23.3591 42.5437 23.3054 42.6651 23.3054C42.779 23.3054 42.8664 23.3725 42.9271 23.5067C42.9879 23.6409 43.0334 23.8188 43.0638 24.0403C43.1017 24.255 43.1283 24.5034 43.1435 24.7852C43.1587 25.0604 43.1701 25.3456 43.1777 25.6409C43.1929 25.9362 43.2118 26.2248 43.2346 26.5067C43.265 26.7819 43.3068 27.0302 43.3599 27.2517C43.4131 27.4664 43.4852 27.6409 43.5763 27.7752C43.675 27.9094 43.8041 27.9765 43.9636 27.9765C44.0091 27.9765 44.0585 27.9564 44.1116 27.9161C44.1724 27.8691 44.2293 27.8154 44.2825 27.755C44.3356 27.6946 44.3812 27.6342 44.4191 27.5738C44.4647 27.5134 44.4951 27.4664 44.5103 27.4329C44.5634 27.3456 44.6393 27.2081 44.738 27.0201C44.8368 26.8322 44.9468 26.6208 45.0683 26.3859C45.1974 26.151 45.3303 25.9027 45.467 25.6409C45.6036 25.3792 45.7327 25.1309 45.8542 24.896C45.9757 24.6544 46.0858 24.4396 46.1845 24.2517C46.2832 24.0638 46.3554 23.9228 46.4009 23.8289C46.4389 23.7483 46.4882 23.6376 46.549 23.4966C46.6173 23.3557 46.6667 23.2349 46.697 23.1342C46.7882 23.1477 46.8793 23.1711 46.9704 23.2047C47.0615 23.2383 47.1071 23.2987 47.1071 23.3859C47.1071 23.3993 47.1033 23.4195 47.0957 23.4463C47.0957 23.4664 47.0957 23.4799 47.0957 23.4866C46.9894 24.0369 46.9096 24.5738 46.8565 25.0973C46.8109 25.6141 46.7882 26.1477 46.7882 26.698C46.7882 26.745 46.7882 26.8289 46.7882 26.9497C46.7882 27.0638 46.7882 27.1913 46.7882 27.3322C46.7957 27.4664 46.7995 27.594 46.7995 27.7148C46.7995 27.8289 46.7995 27.9128 46.7995 27.9664C46.8375 28.2416 46.9476 28.4933 47.1298 28.7215C47.3121 28.9497 47.4981 29.1644 47.6879 29.3658V29.5973C47.6196 29.5973 47.5361 29.5671 47.4374 29.5067C47.3386 29.4396 47.2399 29.3557 47.1412 29.255C47.0425 29.1544 46.9438 29.0403 46.8451 28.9128C46.754 28.7852 46.6705 28.6611 46.5945 28.5403C46.5262 28.4195 46.4692 28.3087 46.4237 28.2081C46.3781 28.1074 46.3554 28.0268 46.3554 27.9664V24.9765Z"
          fill="#61636A"/>
    <path d="M53.3713 27.2718C53.3181 27.2517 53.2498 27.2248 53.1663 27.1913C53.0828 27.151 53.003 27.1074 52.9271 27.0604C52.8512 27.0134 52.7828 26.9631 52.7221 26.9094C52.6689 26.849 52.6424 26.7852 52.6424 26.7181C52.7563 26.7181 52.8588 26.7349 52.9499 26.7685C53.0486 26.802 53.1473 26.8188 53.246 26.8188C53.246 26.3356 53.2308 25.8557 53.2005 25.3792C53.1777 24.9027 53.1663 24.4195 53.1663 23.9295C53.1663 23.9027 53.1663 23.8557 53.1663 23.7886C53.1663 23.7215 53.1663 23.651 53.1663 23.5772C53.1663 23.5034 53.1663 23.4329 53.1663 23.3658C53.1663 23.2919 53.1663 23.245 53.1663 23.2248C53.2118 22.9832 53.3219 22.802 53.4966 22.6812C53.6788 22.5604 53.9066 22.5 54.18 22.5C54.3546 22.5 54.5444 22.5403 54.7494 22.6208C54.962 22.7013 55.1746 22.8054 55.3872 22.9329C55.5998 23.0604 55.8049 23.2114 56.0023 23.3859C56.2073 23.5537 56.3857 23.7315 56.5376 23.9195C56.6894 24.1007 56.8109 24.2819 56.9021 24.4631C57.0008 24.6443 57.0501 24.8154 57.0501 24.9765C57.0501 25.4262 56.978 25.7987 56.8337 26.094C56.6894 26.3893 56.4844 26.6275 56.2187 26.8087C55.9529 26.9899 55.634 27.1275 55.262 27.2215C54.8975 27.3154 54.4951 27.3859 54.0547 27.4329C54.0774 27.5872 54.0964 27.7315 54.1116 27.8658C54.1268 27.9933 54.1382 28.1208 54.1458 28.2483C54.1534 28.3691 54.161 28.4933 54.1686 28.6208C54.1762 28.7416 54.18 28.8691 54.18 29.0034C54.18 29.0369 54.1762 29.0839 54.1686 29.1443C54.1686 29.2047 54.161 29.2651 54.1458 29.3255C54.1306 29.3859 54.104 29.4396 54.0661 29.4866C54.0357 29.5336 53.9863 29.557 53.918 29.557C53.8876 29.557 53.8573 29.547 53.8269 29.5268C53.7965 29.5067 53.7699 29.4832 53.7472 29.4564C53.7244 29.4228 53.7054 29.3926 53.6902 29.3658C53.675 29.3322 53.6674 29.3054 53.6674 29.2852L53.3713 27.2718ZM53.8497 25.7315C53.8497 25.8389 53.8421 25.9664 53.8269 26.1141C53.8117 26.2617 53.8117 26.4027 53.8269 26.5369C53.8421 26.6644 53.8876 26.7752 53.9636 26.8691C54.0395 26.9631 54.1686 27.0101 54.3508 27.0101C54.6545 27.0101 54.9393 26.9631 55.205 26.8691C55.4708 26.7685 55.7024 26.6342 55.8998 26.4664C56.1048 26.2919 56.2642 26.0872 56.3781 25.8523C56.492 25.6174 56.549 25.3658 56.549 25.0973C56.549 24.9497 56.511 24.7919 56.4351 24.6242C56.3667 24.4564 56.2718 24.2886 56.1503 24.1208C56.0289 23.953 55.8846 23.7953 55.7175 23.6477C55.5581 23.4933 55.3872 23.3591 55.205 23.245C55.0304 23.1242 54.8519 23.0302 54.6697 22.9631C54.4875 22.896 54.3166 22.8624 54.1572 22.8624C54.0205 22.8624 53.9066 22.8993 53.8155 22.9732C53.7244 23.047 53.6522 23.1409 53.5991 23.255C53.5459 23.3624 53.508 23.4799 53.4852 23.6074C53.47 23.7349 53.4624 23.8456 53.4624 23.9396C53.4624 24.0872 53.489 24.1913 53.5421 24.2517C53.5953 24.3121 53.6522 24.3591 53.713 24.3926C53.7813 24.4195 53.8421 24.4463 53.8952 24.4732C53.9484 24.5 53.9749 24.5503 53.9749 24.6242C53.9749 24.698 53.9636 24.7584 53.9408 24.8054C53.9256 24.8523 53.899 24.9094 53.861 24.9765C53.861 25.0101 53.861 25.0638 53.861 25.1376C53.861 25.2047 53.8573 25.2785 53.8497 25.3591C53.8497 25.4329 53.8497 25.5067 53.8497 25.5805C53.8497 25.6477 53.8497 25.698 53.8497 25.7315Z"
          fill="#61636A"/>
    <path d="M57.426 27.8356C57.426 27.6409 57.4487 27.4228 57.4943 27.1812C57.5475 26.9396 57.6196 26.698 57.7107 26.4564C57.8094 26.2081 57.9309 25.9698 58.0752 25.7416C58.227 25.5134 58.3979 25.3087 58.5877 25.1275C58.7851 24.9463 59.0015 24.802 59.2369 24.6946C59.4723 24.5872 59.7304 24.5336 60.0114 24.5336C60.2544 24.5336 60.4784 24.5839 60.6834 24.6846C60.8884 24.7785 61.0744 24.9027 61.2415 25.057C61.4161 25.2047 61.568 25.3792 61.697 25.5805C61.8261 25.7819 61.9362 25.9899 62.0273 26.2047C62.1185 26.4128 62.1868 26.6208 62.2323 26.8289C62.2855 27.0302 62.3121 27.2148 62.3121 27.3826C62.3121 27.6174 62.2665 27.8356 62.1754 28.0369C62.0843 28.2383 61.959 28.4195 61.7995 28.5805C61.6477 28.7416 61.4655 28.8826 61.2528 29.0034C61.0478 29.1242 60.8276 29.2282 60.5923 29.3154C60.3569 29.396 60.1139 29.4564 59.8633 29.4966C59.6203 29.5369 59.3774 29.557 59.1344 29.557C58.8079 29.557 58.5345 29.5168 58.3144 29.4362C58.1017 29.3557 57.9271 29.2416 57.7904 29.094C57.6614 28.9396 57.5664 28.7584 57.5057 28.5503C57.4525 28.3356 57.426 28.0973 57.426 27.8356ZM57.8246 28.057C57.8246 28.245 57.8588 28.4094 57.9271 28.5503C57.9954 28.6846 58.0904 28.7953 58.2118 28.8826C58.3333 28.9631 58.4776 29.0235 58.6446 29.0638C58.8117 29.0973 58.9977 29.1141 59.2027 29.1141C59.5216 29.1141 59.8443 29.0839 60.1708 29.0235C60.4973 28.9564 60.7897 28.8523 61.0478 28.7114C61.306 28.5638 61.5148 28.3792 61.6743 28.1577C61.8413 27.9295 61.9248 27.6544 61.9248 27.3322C61.9248 27.1309 61.8793 26.8893 61.7882 26.6074C61.7046 26.3255 61.5831 26.057 61.4237 25.802C61.2642 25.547 61.0668 25.3322 60.8314 25.1577C60.6036 24.9765 60.3493 24.8859 60.0683 24.8859C59.9393 24.8859 59.8292 24.8926 59.738 24.906C59.6545 24.9128 59.5482 24.9362 59.4191 24.9765V25.0671C59.4191 25.0738 59.4229 25.0906 59.4305 25.1174C59.4457 25.1443 59.4609 25.1745 59.4761 25.2081C59.4913 25.2349 59.5027 25.2617 59.5103 25.2886C59.5178 25.3154 59.5216 25.3322 59.5216 25.3389C59.5216 25.3993 59.5027 25.4463 59.4647 25.4799C59.4267 25.5067 59.3812 25.5268 59.328 25.5403C59.2825 25.5537 59.2293 25.5638 59.1686 25.5705C59.1154 25.5772 59.0661 25.5872 59.0205 25.6007C58.7699 25.6946 58.5649 25.8356 58.4055 26.0235C58.2536 26.2114 58.1321 26.4228 58.041 26.6577C57.9575 26.8859 57.9005 27.1242 57.8702 27.3725C57.8398 27.6208 57.8246 27.849 57.8246 28.057Z"
          fill="#61636A"/>
    <path d="M65.3872 30C65.3872 29.8255 65.4024 29.651 65.4328 29.4765C65.4632 29.302 65.4973 29.1309 65.5353 28.9631C65.5733 28.7886 65.6074 28.6174 65.6378 28.4497C65.6758 28.2752 65.6948 28.1007 65.6948 27.9262V27.8758C65.2847 27.8087 64.9013 27.7081 64.5444 27.5738C64.1951 27.4329 63.8914 27.2517 63.6333 27.0302C63.3751 26.8087 63.1701 26.547 63.0182 26.245C62.874 25.9362 62.8018 25.5772 62.8018 25.1678C62.8018 25.1074 62.798 25.0268 62.7904 24.9262C62.7904 24.8188 62.8018 24.7181 62.8246 24.6242C62.8474 24.5302 62.8853 24.4497 62.9385 24.3826C62.9992 24.3087 63.0866 24.2718 63.2005 24.2718C63.3068 24.2718 63.3827 24.2819 63.4282 24.302C63.4814 24.3221 63.508 24.3826 63.508 24.4832C63.508 24.5705 63.4966 24.6544 63.4738 24.7349C63.451 24.8154 63.4282 24.896 63.4055 24.9765C63.3827 25.0503 63.3599 25.1309 63.3371 25.2181C63.3144 25.2987 63.303 25.3792 63.303 25.4597C63.303 25.7013 63.3599 25.9396 63.4738 26.1745C63.5877 26.4027 63.7396 26.604 63.9294 26.7785C64.1268 26.953 64.3508 27.094 64.6014 27.2013C64.8519 27.3087 65.1139 27.3624 65.3872 27.3624C65.41 27.3624 65.4366 27.3624 65.467 27.3624C65.5049 27.3624 65.5467 27.3624 65.5923 27.3624C65.6378 27.3557 65.6758 27.3523 65.7062 27.3523C65.7441 27.3523 65.7745 27.3523 65.7973 27.3523C65.9339 27.2718 66.0402 27.1342 66.1162 26.9396C66.1997 26.7383 66.268 26.5168 66.3212 26.2752C66.3743 26.0268 66.4199 25.7685 66.4579 25.5C66.4958 25.2315 66.5452 24.9899 66.6059 24.7752C66.6667 24.5537 66.7388 24.3725 66.8223 24.2315C66.9134 24.0839 67.0349 24.0101 67.1868 24.0101C67.1944 24.0101 67.2096 24.0235 67.2323 24.0503C67.2551 24.0705 67.2703 24.0872 67.2779 24.1007C67.2855 24.1074 67.2931 24.1342 67.3007 24.1812C67.3083 24.2215 67.3159 24.2718 67.3235 24.3322C67.3311 24.3859 67.3387 24.443 67.3462 24.5034C67.3614 24.557 67.3728 24.6007 67.3804 24.6342V24.6745C67.3804 24.9966 67.3387 25.3121 67.2551 25.6208C67.1792 25.9228 67.0805 26.2215 66.959 26.5168C66.8451 26.8054 66.7198 27.094 66.5831 27.3826C66.4465 27.6644 66.3174 27.953 66.1959 28.2483C66.082 28.5369 65.9833 28.8322 65.8998 29.1342C65.8238 29.4362 65.7859 29.7517 65.7859 30.0805C65.7859 30.3221 65.8049 30.557 65.8428 30.7852C65.8884 31.0201 65.9112 31.2584 65.9112 31.5C65.8125 31.5 65.7289 31.4698 65.6606 31.4094C65.5923 31.349 65.5391 31.2718 65.5011 31.1779C65.4632 31.0839 65.4328 30.9765 65.41 30.8557C65.3948 30.7416 65.3835 30.6275 65.3759 30.5134C65.3759 30.406 65.3759 30.3054 65.3759 30.2114C65.3835 30.1174 65.3872 30.047 65.3872 30Z"
          fill="#61636A"/>
    <path d="M68.6674 29.2852C68.6674 29.2718 68.6674 29.255 68.6674 29.2349C68.675 29.2148 68.6788 29.2047 68.6788 29.2047C68.7927 29.0101 68.9104 28.8221 69.0319 28.6409C69.161 28.4597 69.2901 28.2819 69.4191 28.1074C69.5558 27.9262 69.6849 27.745 69.8064 27.5638C69.9355 27.3758 70.0532 27.1879 70.1595 27C70.1291 26.9396 70.0532 26.8859 69.9317 26.8389C69.8102 26.7919 69.6621 26.7416 69.4875 26.6879C69.3204 26.6342 69.142 26.5738 68.9522 26.5067C68.7623 26.4329 68.5877 26.349 68.4282 26.255C68.2688 26.1544 68.1359 26.0403 68.0296 25.9128C67.9233 25.7785 67.8702 25.6242 67.8702 25.4497C67.8702 25.2685 67.9385 25.1107 68.0752 24.9765C68.2118 24.8356 68.3789 24.7215 68.5763 24.6342C68.7737 24.5403 68.9825 24.4698 69.2027 24.4228C69.4229 24.3758 69.6128 24.3523 69.7722 24.3523C70.1063 24.3523 70.3986 24.4027 70.6492 24.5034C70.9074 24.604 71.1731 24.7349 71.4465 24.896C71.5376 24.8356 71.6135 24.7685 71.6743 24.6946C71.7426 24.6208 71.8033 24.5403 71.8565 24.453C71.8793 24.406 71.9286 24.3221 72.0046 24.2013C72.0881 24.0738 72.1678 23.9396 72.2437 23.7987C72.3273 23.6577 72.407 23.5268 72.4829 23.406C72.5664 23.2785 72.6196 23.1879 72.6424 23.1342C72.7031 23.094 72.7525 23.0705 72.7904 23.0638C72.8284 23.0503 72.8816 23.0436 72.9499 23.0436C72.9575 23.0436 72.9727 23.0436 72.9954 23.0436C73.0258 23.0436 73.0448 23.0436 73.0524 23.0436C73.1283 23.3255 73.1853 23.6141 73.2232 23.9094C73.2612 24.2047 73.2878 24.5 73.303 24.7953C73.3257 25.0906 73.3447 25.3859 73.3599 25.6812C73.3751 25.9765 73.4017 26.2718 73.4396 26.5671C73.4624 26.5671 73.5042 26.5705 73.5649 26.5772C73.6257 26.5772 73.6712 26.5772 73.7016 26.5772C73.8079 26.5772 73.9142 26.5671 74.0205 26.547C74.1268 26.5268 74.2331 26.5067 74.3394 26.4866C74.4457 26.4597 74.552 26.4362 74.6583 26.4161C74.7722 26.396 74.8861 26.3859 75 26.3859H75.0342C75.0418 26.3926 75.057 26.406 75.0797 26.4262C75.1025 26.4463 75.1215 26.4597 75.1367 26.4664C75.0911 26.5403 75.0152 26.6007 74.9089 26.6477C74.8102 26.6879 74.6963 26.7215 74.5672 26.7483C74.4457 26.7752 74.3166 26.802 74.18 26.8289C74.0433 26.849 73.9218 26.8758 73.8155 26.9094C73.7092 26.9362 73.6181 26.9698 73.5421 27.0101C73.4738 27.0503 73.4396 27.1074 73.4396 27.1812C73.4396 27.3154 73.4472 27.4497 73.4624 27.5839C73.4852 27.7181 73.508 27.8557 73.5308 27.9966C73.5611 28.1309 73.5877 28.2685 73.6105 28.4094C73.6333 28.5436 73.6447 28.6812 73.6447 28.8221C73.6447 28.8557 73.6409 28.9027 73.6333 28.9631C73.6333 29.0235 73.6257 29.0839 73.6105 29.1443C73.6029 29.2047 73.5801 29.2584 73.5421 29.3054C73.5118 29.3523 73.4624 29.3758 73.3941 29.3758C73.3182 29.3758 73.2498 29.3255 73.1891 29.2248C73.1283 29.1242 73.079 28.9966 73.041 28.8423C73.003 28.6879 72.9689 28.5201 72.9385 28.3389C72.9157 28.151 72.8929 27.9732 72.8702 27.8054C72.855 27.6309 72.836 27.4799 72.8132 27.3523C72.7904 27.2181 72.7677 27.1309 72.7449 27.0906C72.6841 27.0839 72.5702 27.0772 72.4032 27.0705C72.2437 27.0638 72.0729 27.057 71.8907 27.0503C71.716 27.0369 71.549 27.0268 71.3895 27.0201C71.2301 27.0067 71.12 27 71.0592 27H70.9453C70.7935 27 70.6492 27.0638 70.5125 27.1913C70.3835 27.3121 70.262 27.4698 70.1481 27.6644C70.0418 27.8523 69.9355 28.057 69.8292 28.2785C69.7229 28.4933 69.6204 28.698 69.5216 28.8926C69.4229 29.0805 69.3204 29.2383 69.2141 29.3658C69.1078 29.4933 68.9939 29.557 68.8724 29.557C68.7889 29.557 68.732 29.5302 68.7016 29.4765C68.6788 29.4161 68.6674 29.3523 68.6674 29.2852ZM70.9567 26.5671C71.0175 26.6007 71.0896 26.6275 71.1731 26.6477C71.2642 26.6611 71.3554 26.6678 71.4465 26.6678C71.5376 26.6678 71.6211 26.6678 71.697 26.6678C71.7806 26.6678 71.8527 26.6678 71.9134 26.6678C71.9438 26.6678 71.9818 26.6678 72.0273 26.6678C72.0729 26.6611 72.1185 26.6577 72.164 26.6577C72.2096 26.6577 72.2475 26.6577 72.2779 26.6577C72.3159 26.651 72.3387 26.6477 72.3462 26.6477L72.4488 26.5671C72.4639 26.5537 72.4374 26.4933 72.369 26.3859C72.3007 26.2785 72.2134 26.1678 72.1071 26.0537C72.0084 25.9329 71.9096 25.8255 71.8109 25.7315C71.7122 25.6309 71.6439 25.5805 71.6059 25.5805C71.5983 25.5805 71.5907 25.5839 71.5831 25.5906C71.5756 25.5973 71.5642 25.6007 71.549 25.6007C71.4351 25.7483 71.3288 25.9027 71.2301 26.0638C71.1314 26.2248 71.0402 26.3926 70.9567 26.5671ZM68.3713 25.4396C68.3713 25.6141 68.4396 25.7685 68.5763 25.9027C68.713 26.0302 68.88 26.1376 69.0775 26.2248C69.2749 26.3121 69.4837 26.3758 69.7039 26.4161C69.9241 26.4564 70.1177 26.4765 70.2847 26.4765C70.391 26.4765 70.5011 26.4295 70.615 26.3356C70.7289 26.2349 70.8314 26.1208 70.9226 25.9933C71.0213 25.8658 71.101 25.7349 71.1617 25.6007C71.2301 25.4664 71.2642 25.3624 71.2642 25.2886C71.2642 25.2081 71.2035 25.1342 71.082 25.0671C70.9605 24.9933 70.8163 24.9295 70.6492 24.8758C70.4898 24.8221 70.3303 24.7819 70.1708 24.755C70.0114 24.7215 69.8937 24.7047 69.8178 24.7047C69.7039 24.7047 69.5634 24.7215 69.3964 24.755C69.2369 24.7819 69.0775 24.8255 68.918 24.8859C68.7661 24.9463 68.6371 25.0235 68.5308 25.1174C68.4245 25.2047 68.3713 25.3121 68.3713 25.4396ZM71.9476 25.1074C71.9476 25.1946 71.9856 25.302 72.0615 25.4295C72.1374 25.557 72.2286 25.6812 72.3349 25.802C72.4412 25.9228 72.5513 26.0268 72.6652 26.1141C72.7866 26.2013 72.8929 26.245 72.9841 26.245C72.9841 26.2114 72.9803 26.1611 72.9727 26.094C72.9727 26.0268 72.9689 25.953 72.9613 25.8725C72.9613 25.7919 72.9575 25.7181 72.9499 25.651C72.9499 25.5839 72.9499 25.5336 72.9499 25.5C72.9347 25.406 72.9157 25.2819 72.8929 25.1275C72.8778 24.9732 72.8588 24.8221 72.836 24.6745C72.8208 24.5268 72.8018 24.396 72.779 24.2819C72.7639 24.1678 72.7525 24.1074 72.7449 24.1007L72.6424 23.9295C72.6348 23.9362 72.6158 23.9497 72.5854 23.9698C72.5626 23.9899 72.5475 24.0034 72.5399 24.0101C72.5171 24.0503 72.4791 24.1174 72.426 24.2114C72.3728 24.2987 72.3121 24.3926 72.2437 24.4933C72.183 24.594 72.126 24.6913 72.0729 24.7852C72.0197 24.8792 71.9818 24.943 71.959 24.9765C71.959 24.9899 71.9552 25.0134 71.9476 25.047C71.9476 25.0805 71.9476 25.1007 71.9476 25.1074Z"
          fill="#61636A"/>
    <path d="M76.6287 27.6946C76.6211 27.6946 76.6135 27.7148 76.6059 27.755C76.5983 27.7953 76.5869 27.8456 76.5718 27.906C76.5642 27.9664 76.5528 28.0268 76.5376 28.0872C76.53 28.1477 76.5224 28.198 76.5148 28.2383C76.5072 28.2651 76.4996 28.3221 76.492 28.4094C76.4844 28.4899 76.473 28.5772 76.4579 28.6711C76.4503 28.7651 76.4427 28.8523 76.4351 28.9329C76.4275 29.0134 76.4237 29.0738 76.4237 29.1141C76.4161 29.1208 76.4009 29.1342 76.3781 29.1544C76.3554 29.1745 76.3402 29.1913 76.3326 29.2047C76.3174 29.2047 76.306 29.2047 76.2984 29.2047H76.2415C76.2339 29.2047 76.2263 29.2047 76.2187 29.2047C76.2035 29.1913 76.1693 29.1611 76.1162 29.1141C76.063 29.0671 76.0327 29.0369 76.0251 29.0235C76.0099 28.9698 75.9871 28.8758 75.9567 28.7416C75.9339 28.6074 75.9036 28.4664 75.8656 28.3188C75.8352 28.1711 75.8049 28.0302 75.7745 27.896C75.7517 27.7617 75.7327 27.6678 75.7175 27.6141V27.5336C75.7175 27.4866 75.7137 27.396 75.7062 27.2617C75.7062 27.1275 75.7024 26.9698 75.6948 26.7886C75.6872 26.6074 75.6796 26.4161 75.672 26.2148C75.6644 26.0134 75.6568 25.8221 75.6492 25.6409C75.6492 25.4597 75.6454 25.302 75.6378 25.1678C75.6302 25.0336 75.6264 24.943 75.6264 24.896V24.8356C75.6264 24.5671 75.6796 24.302 75.7859 24.0403C75.8998 23.7718 76.0516 23.5302 76.2415 23.3154C76.4389 23.1007 76.6705 22.9262 76.9362 22.7919C77.2096 22.6577 77.5057 22.5906 77.8246 22.5906C77.9992 22.5906 78.1701 22.6208 78.3371 22.6812C78.5042 22.7416 78.6522 22.8221 78.7813 22.9228C78.9104 23.0235 79.0129 23.1443 79.0888 23.2852C79.1724 23.4262 79.2141 23.5772 79.2141 23.7383C79.2141 23.9732 79.1496 24.198 79.0205 24.4128C78.8914 24.6275 78.7282 24.8289 78.5308 25.0168C78.3409 25.2047 78.1321 25.3826 77.9043 25.5503C77.6841 25.7181 77.4753 25.8758 77.2779 26.0235C77.0881 26.1711 76.9286 26.3121 76.7995 26.4463C76.6705 26.5805 76.6059 26.7081 76.6059 26.8289C76.6059 26.9228 76.6515 27.0302 76.7426 27.151C76.8413 27.2651 76.9628 27.3859 77.1071 27.5134C77.2589 27.6342 77.426 27.755 77.6082 27.8758C77.7904 27.9899 77.9689 28.1007 78.1435 28.2081C78.3257 28.3087 78.4928 28.3993 78.6447 28.4799C78.7965 28.5604 78.9142 28.6208 78.9977 28.6611C79.0281 28.6812 79.0888 28.7114 79.18 28.7517C79.2711 28.7919 79.3698 28.8356 79.4761 28.8826C79.59 28.9295 79.6925 28.9765 79.7836 29.0235C79.8823 29.0638 79.9544 29.094 80 29.1141C80.0683 29.1342 80.1557 29.151 80.262 29.1644C80.3759 29.1711 80.4898 29.1812 80.6036 29.1946C80.7175 29.2081 80.8125 29.2315 80.8884 29.2651C80.9719 29.2919 81.0137 29.3423 81.0137 29.4161C81.0137 29.4228 81.0099 29.4295 81.0023 29.4362C81.0023 29.4362 81.0023 29.4396 81.0023 29.4463V29.4664C80.9871 29.4732 80.9681 29.4866 80.9453 29.5067C80.9226 29.5268 80.9036 29.5403 80.8884 29.547C80.8808 29.547 80.858 29.547 80.82 29.547C80.7897 29.547 80.7555 29.547 80.7175 29.547C80.6796 29.5537 80.6416 29.557 80.6036 29.557C80.5733 29.557 80.5505 29.557 80.5353 29.557C80.186 29.557 79.8368 29.4966 79.4875 29.3758C79.1382 29.2483 78.8003 29.094 78.4738 28.9128C78.1473 28.7248 77.836 28.5235 77.5399 28.3087C77.2437 28.094 76.9704 27.8893 76.7198 27.6946H76.6287ZM76.4123 24.2517C76.4123 24.3926 76.4085 24.5436 76.4009 24.7047C76.3933 24.8591 76.3895 25.0134 76.3895 25.1678C76.3971 25.3221 76.4161 25.4732 76.4465 25.6208C76.4844 25.7685 76.5452 25.906 76.6287 26.0336C76.697 25.9933 76.7995 25.9262 76.9362 25.8322C77.0729 25.7315 77.221 25.6174 77.3804 25.4899C77.5475 25.3557 77.7145 25.2114 77.8816 25.057C78.0562 24.9027 78.2118 24.7517 78.3485 24.604C78.4852 24.4497 78.5991 24.302 78.6902 24.1611C78.7813 24.0201 78.8269 23.8993 78.8269 23.7987C78.8269 23.6443 78.7927 23.5201 78.7244 23.4262C78.656 23.3255 78.5687 23.2483 78.4624 23.1946C78.3561 23.1342 78.2346 23.094 78.098 23.0738C77.9613 23.0537 77.8208 23.0436 77.6765 23.0436C77.2437 23.0436 76.9248 23.1544 76.7198 23.3758C76.5148 23.5973 76.4123 23.8893 76.4123 24.2517Z"
          fill="#61636A"/>
    <path d="M81.4693 27.6544C81.4693 27.5 81.4806 27.302 81.5034 27.0604C81.5262 26.8121 81.5642 26.547 81.6173 26.2651C81.6781 25.9765 81.7578 25.6913 81.8565 25.4094C81.9552 25.1208 82.0729 24.8591 82.2096 24.6242C82.3538 24.3893 82.5209 24.198 82.7107 24.0503C82.9005 23.9027 83.1207 23.8289 83.3713 23.8289C83.675 23.8289 83.9332 23.906 84.1458 24.0604C84.366 24.2148 84.5444 24.406 84.6811 24.6342C84.8254 24.8557 84.9355 25.094 85.0114 25.349C85.0873 25.604 85.1367 25.8322 85.1595 26.0336C85.1443 26.1141 85.1025 26.1812 85.0342 26.2349C84.9658 26.2819 84.8937 26.3054 84.8178 26.3054H84.7608C84.7532 26.2919 84.738 26.2752 84.7153 26.255C84.6925 26.2349 84.6773 26.2215 84.6697 26.2148C84.6697 26.1946 84.6659 26.1711 84.6583 26.1443C84.6583 26.1107 84.6583 26.0738 84.6583 26.0336C84.6583 25.9933 84.6545 25.9597 84.6469 25.9329C84.6469 25.8993 84.6469 25.8758 84.6469 25.8624C84.6469 25.7349 84.6659 25.6208 84.7039 25.5201C84.7418 25.4195 84.7608 25.3154 84.7608 25.2081V25.1577C84.6697 25.0638 84.5786 24.9664 84.4875 24.8658C84.3964 24.7584 84.2977 24.6611 84.1913 24.5738C84.0926 24.4866 83.9825 24.4161 83.8611 24.3624C83.7396 24.302 83.6029 24.2718 83.451 24.2718C83.2612 24.2718 83.0866 24.3356 82.9271 24.4631C82.7753 24.5839 82.6424 24.7416 82.5285 24.9362C82.4146 25.1242 82.3159 25.3389 82.2324 25.5805C82.1488 25.8154 82.0805 26.0503 82.0273 26.2852C81.9742 26.5134 81.9362 26.7282 81.9134 26.9295C81.8907 27.1242 81.8793 27.2785 81.8793 27.3926C81.8793 27.6544 81.9134 27.896 81.9818 28.1174C82.0501 28.3389 82.1602 28.5302 82.3121 28.6913C82.4639 28.8523 82.65 28.9799 82.8702 29.0738C83.098 29.1611 83.3675 29.2047 83.6788 29.2047C83.8383 29.2047 84.0053 29.1913 84.18 29.1644C84.3546 29.1376 84.5254 29.1007 84.6925 29.0537C84.8671 29.0067 85.0342 28.9497 85.1936 28.8826C85.3607 28.8154 85.5125 28.7416 85.6492 28.6611C85.6644 28.6611 85.691 28.6477 85.7289 28.6208C85.7669 28.594 85.8049 28.5671 85.8428 28.5403C85.8884 28.5067 85.9301 28.4799 85.9681 28.4597C86.0137 28.4329 86.0402 28.4128 86.0478 28.3993C86.0554 28.3993 86.0706 28.3993 86.0934 28.3993C86.1238 28.3926 86.1428 28.3893 86.1503 28.3893C86.1655 28.3893 86.1845 28.3926 86.2073 28.3993C86.2301 28.3993 86.2453 28.3993 86.2529 28.3993C86.2149 28.5403 86.1428 28.6678 86.0365 28.7819C85.9301 28.8893 85.8011 28.9866 85.6492 29.0738C85.5049 29.1611 85.3417 29.2349 85.1595 29.2953C84.9772 29.3557 84.795 29.406 84.6128 29.4463C84.4305 29.4866 84.2559 29.5168 84.0888 29.5369C83.9294 29.5503 83.7851 29.557 83.656 29.557C83.3295 29.557 83.0296 29.5134 82.7563 29.4262C82.4905 29.3389 82.2589 29.2148 82.0615 29.0537C81.8717 28.8926 81.7236 28.6946 81.6173 28.4597C81.5186 28.2248 81.4693 27.9564 81.4693 27.6544Z"
          fill="#61636A"/>
    <path d="M90.7289 24.9765C90.5163 25.0772 90.2999 25.1711 90.0797 25.2584C89.8595 25.3389 89.6393 25.4195 89.4191 25.5C89.1989 25.5805 88.9787 25.6644 88.7585 25.7517C88.5459 25.8322 88.3371 25.9262 88.1321 26.0336C88.1321 26.047 88.1321 26.0738 88.1321 26.1141C88.1321 26.1477 88.1321 26.1879 88.1321 26.2349C88.1321 26.2752 88.1321 26.3154 88.1321 26.3557C88.1321 26.3893 88.1321 26.4128 88.1321 26.4262C88.1321 26.7416 88.1435 27.0604 88.1663 27.3826C88.1967 27.7047 88.2536 28.0168 88.3371 28.3188C88.3371 28.3255 88.3485 28.3557 88.3713 28.4094C88.4017 28.4564 88.4245 28.4866 88.4396 28.5C88.4396 28.5067 88.4396 28.5201 88.4396 28.5403C88.4396 28.5604 88.4396 28.5738 88.4396 28.5805C88.4396 28.6208 88.4283 28.6644 88.4055 28.7114C88.3827 28.7517 88.3409 28.7718 88.2802 28.7718C88.2043 28.7718 88.1359 28.7282 88.0752 28.6409C88.022 28.5537 87.9727 28.4463 87.9271 28.3188C87.8891 28.1846 87.855 28.0436 87.8246 27.896C87.8018 27.7416 87.7828 27.6007 87.7677 27.4732C87.7601 27.3389 87.7525 27.2282 87.7449 27.1409C87.7449 27.047 87.7449 27 87.7449 27C87.7297 26.9463 87.7145 26.8826 87.6993 26.8087C87.6917 26.7282 87.6841 26.651 87.6765 26.5772C87.6689 26.5034 87.6614 26.4396 87.6538 26.3859C87.6462 26.3322 87.6424 26.3054 87.6424 26.3054L87.5399 26.1745H86.7426L86.6515 25.943C86.7578 25.8893 86.8603 25.8523 86.959 25.8322C87.0577 25.8054 87.1412 25.7752 87.2096 25.7416C87.2855 25.7013 87.3424 25.6544 87.3804 25.6007C87.426 25.5403 87.4488 25.453 87.4488 25.3389C87.4488 25.198 87.426 25.057 87.3804 24.9161C87.3424 24.7685 87.2969 24.6275 87.2437 24.4933C87.1982 24.3523 87.1526 24.2114 87.1071 24.0705C87.0615 23.9295 87.0387 23.7953 87.0387 23.6678C87.0387 23.6208 87.0425 23.5705 87.0501 23.5168C87.0653 23.4631 87.0843 23.4161 87.1071 23.3758C87.1298 23.3289 87.1564 23.2919 87.1868 23.2651C87.2248 23.2315 87.2779 23.2148 87.3462 23.2148C87.445 23.2148 87.5209 23.2718 87.574 23.3859C87.6272 23.5 87.6689 23.6443 87.6993 23.8188C87.7297 23.9866 87.7525 24.1678 87.7677 24.3624C87.7828 24.557 87.8018 24.7416 87.8246 24.9161C87.855 25.0839 87.8891 25.2248 87.9271 25.3389C87.9727 25.453 88.041 25.5101 88.1321 25.5101C88.2081 25.5101 88.2688 25.5034 88.3144 25.4899C88.3675 25.4698 88.4434 25.4463 88.5421 25.4195C88.6333 25.3859 88.751 25.349 88.8952 25.3087C89.0471 25.2617 89.2065 25.2114 89.3736 25.1577C89.5406 25.0973 89.7077 25.0336 89.8747 24.9664C90.0494 24.8926 90.2088 24.8121 90.3531 24.7248C90.4973 24.6309 90.6188 24.5336 90.7175 24.4329C90.8238 24.3322 90.8922 24.2215 90.9226 24.1007C90.9301 24.0403 90.9339 23.9497 90.9339 23.8289C90.9415 23.7013 90.9567 23.5738 90.9795 23.4463C91.0023 23.3188 91.044 23.2081 91.1048 23.1141C91.1655 23.0134 91.2566 22.9631 91.3781 22.9631C91.4313 22.9631 91.473 22.9832 91.5034 23.0235C91.5414 23.0638 91.568 23.1141 91.5831 23.1745C91.6059 23.2282 91.6173 23.2819 91.6173 23.3356C91.6173 23.3893 91.6173 23.4329 91.6173 23.4664C91.6173 23.4799 91.6173 23.5034 91.6173 23.5369C91.6173 23.5638 91.6173 23.594 91.6173 23.6275C91.6173 23.6544 91.6173 23.6812 91.6173 23.7081C91.6173 23.7282 91.6173 23.7416 91.6173 23.7483C91.6097 23.8557 91.5983 24.0168 91.5831 24.2315C91.568 24.4463 91.549 24.6913 91.5262 24.9664C91.511 25.2349 91.492 25.5201 91.4693 25.8221C91.4541 26.1242 91.4351 26.4094 91.4123 26.6779C91.3895 26.9463 91.3705 27.1879 91.3554 27.4027C91.3402 27.6174 91.325 27.7752 91.3098 27.8758C91.3098 27.9094 91.3136 27.9698 91.3212 28.057C91.3364 28.1376 91.3478 28.2248 91.3554 28.3188C91.3705 28.4128 91.3819 28.5034 91.3895 28.5906C91.4047 28.6711 91.4123 28.7282 91.4123 28.7617C91.4275 28.8356 91.4541 28.906 91.492 28.9732C91.53 29.0336 91.5642 29.0973 91.5945 29.1644C91.6325 29.2315 91.6667 29.2987 91.697 29.3658C91.735 29.4329 91.754 29.5067 91.754 29.5872C91.6401 29.5872 91.53 29.5403 91.4237 29.4463C91.3174 29.3456 91.2225 29.2315 91.139 29.104C91.063 28.9698 90.9985 28.8389 90.9453 28.7114C90.8922 28.5772 90.8656 28.4732 90.8656 28.3993V24.9765H90.7289Z"
          fill="#61636A"/>
    <path d="M93.0068 27.6946C92.9005 27.6477 92.8208 27.6007 92.7677 27.5537C92.7221 27.5067 92.6993 27.4396 92.6993 27.3523C92.6993 27.3054 92.7069 27.2651 92.7221 27.2315C92.7449 27.198 92.7677 27.1678 92.7904 27.1409C92.8208 27.1074 92.8474 27.0738 92.8702 27.0403C92.8929 27.0067 92.9043 26.9664 92.9043 26.9195C92.9043 26.8389 92.9043 26.745 92.9043 26.6376C92.9119 26.5302 92.9081 26.4228 92.8929 26.3154C92.8778 26.2013 92.8474 26.0973 92.8018 26.0034C92.7639 25.9027 92.6955 25.8221 92.5968 25.7617C92.6196 25.755 92.6538 25.7315 92.6993 25.6913C92.7525 25.6443 92.7866 25.6141 92.8018 25.6007V25.5805C92.8018 25.5805 92.8018 25.5772 92.8018 25.5705C92.8018 25.5638 92.8018 25.557 92.8018 25.5503C92.8018 25.4631 92.7753 25.4027 92.7221 25.3691C92.6765 25.3356 92.6196 25.3121 92.5513 25.2987C92.4905 25.2852 92.426 25.2718 92.3576 25.2584C92.2893 25.245 92.2399 25.2114 92.2096 25.1577C92.2931 25.057 92.4298 24.9698 92.6196 24.896C92.8094 24.8221 93.022 24.7584 93.2574 24.7047C93.5004 24.6443 93.751 24.594 94.0091 24.5537C94.2749 24.5134 94.533 24.4799 94.7836 24.453C95.0342 24.4195 95.2582 24.3993 95.4556 24.3926C95.653 24.3792 95.8087 24.3725 95.9226 24.3725H96.1845C96.2529 24.3725 96.3402 24.3792 96.4465 24.3926C96.5604 24.3993 96.6705 24.4094 96.7768 24.4228C96.8831 24.4295 96.9742 24.4362 97.0501 24.443C97.1336 24.4497 97.1754 24.453 97.1754 24.453L97.2779 24.5336L97.1754 24.6342C96.5148 24.6544 95.877 24.6946 95.262 24.755C94.6545 24.8087 94.0319 24.9128 93.3941 25.0671C93.3865 25.0805 93.3789 25.1074 93.3713 25.1477C93.3637 25.1879 93.3523 25.2315 93.3371 25.2785C93.3295 25.3255 93.3219 25.3725 93.3144 25.4195C93.3068 25.4597 93.303 25.4866 93.303 25.5C93.303 25.5134 93.303 25.5369 93.303 25.5705C93.303 25.5973 93.303 25.6275 93.303 25.6611C93.3106 25.6946 93.3144 25.7248 93.3144 25.7517C93.3144 25.7785 93.3144 25.802 93.3144 25.8221C93.937 25.8221 94.552 25.7987 95.1595 25.7517C95.7669 25.698 96.3819 25.6711 97.0046 25.6711C97.0501 25.6711 97.0957 25.6711 97.1412 25.6711C97.1868 25.6711 97.2248 25.6779 97.2551 25.6913C97.2931 25.698 97.3235 25.7181 97.3462 25.7517C97.369 25.7785 97.3804 25.8188 97.3804 25.8725C97.3804 25.906 97.2855 25.953 97.0957 26.0134C96.9134 26.0738 96.6819 26.1443 96.4009 26.2248C96.12 26.2987 95.8125 26.3826 95.4784 26.4765C95.1519 26.5705 94.8481 26.6678 94.5672 26.7685C94.2863 26.8691 94.0509 26.9732 93.8611 27.0805C93.6788 27.1879 93.5877 27.2919 93.5877 27.3926V27.4228C93.5877 27.4228 93.5877 27.4262 93.5877 27.4329C93.5953 27.4396 93.6143 27.4564 93.6447 27.4832C93.675 27.5034 93.6902 27.5201 93.6902 27.5336C93.6902 27.5403 93.694 27.5436 93.7016 27.5436V27.5638C93.7016 27.5705 93.7054 27.5738 93.713 27.5738C93.713 27.5738 93.7092 27.5772 93.7016 27.5839C93.7016 27.5839 93.7016 27.5872 93.7016 27.594C93.694 27.6007 93.6902 27.6074 93.6902 27.6141C93.6902 27.6208 93.675 27.6376 93.6447 27.6644C93.6143 27.6846 93.5953 27.6946 93.5877 27.6946C93.5801 27.7148 93.5611 27.7483 93.5308 27.7953C93.508 27.8423 93.4966 27.8691 93.4966 27.8758C93.4966 28.0973 93.5383 28.2886 93.6219 28.4497C93.713 28.604 93.8307 28.7315 93.9749 28.8322C94.1192 28.9262 94.2863 28.9966 94.4761 29.0436C94.6735 29.0906 94.8785 29.1141 95.0911 29.1141C95.3872 29.1141 95.6568 29.0772 95.8998 29.0034C96.1428 28.9295 96.3705 28.8289 96.5831 28.7013C96.7958 28.5738 96.997 28.4262 97.1868 28.2584C97.3842 28.0839 97.5778 27.896 97.7677 27.6946C97.7753 27.6946 97.7866 27.6779 97.8018 27.6443C97.8246 27.6107 97.8474 27.5772 97.8702 27.5436C97.8929 27.5034 97.9119 27.4664 97.9271 27.4329C97.9499 27.3926 97.9613 27.3658 97.9613 27.3523C97.9613 27.3456 97.9613 27.3322 97.9613 27.3121C97.9689 27.2852 97.9727 27.2651 97.9727 27.2517C97.9727 27.2114 97.9575 27.1812 97.9271 27.1611C97.9043 27.1342 97.874 27.1141 97.836 27.1007C97.798 27.0872 97.7563 27.0805 97.7107 27.0805C97.6727 27.0738 97.631 27.0705 97.5854 27.0705C97.5854 26.9765 97.6348 26.9128 97.7335 26.8792C97.8322 26.8456 97.9309 26.8289 98.0296 26.8289C98.1435 26.8289 98.227 26.8624 98.2802 26.9295C98.3409 26.9966 98.3713 27.0805 98.3713 27.1812C98.3713 27.3691 98.3144 27.5604 98.2005 27.755C98.0866 27.943 97.9385 28.1275 97.7563 28.3087C97.574 28.4832 97.3614 28.6477 97.1185 28.802C96.8831 28.9497 96.6401 29.0805 96.3895 29.1946C96.139 29.302 95.8922 29.3893 95.6492 29.4564C95.4062 29.5235 95.186 29.557 94.9886 29.557C94.6545 29.557 94.3774 29.5101 94.1572 29.4161C93.937 29.3154 93.751 29.1812 93.5991 29.0134C93.4472 28.8389 93.3257 28.6409 93.2346 28.4195C93.1511 28.1913 93.0752 27.9497 93.0068 27.6946ZM93.2802 26.0034C93.2802 26.1443 93.2878 26.2651 93.303 26.3658C93.3106 26.4597 93.3182 26.5436 93.3257 26.6174C93.3409 26.6913 93.3637 26.7282 93.3941 26.7282H93.4966C93.5042 26.7282 93.5535 26.7148 93.6447 26.6879C93.7358 26.6544 93.8421 26.6141 93.9636 26.5671C94.0926 26.5201 94.2217 26.4732 94.3508 26.4262C94.4875 26.3725 94.5976 26.3322 94.6811 26.3054C94.7039 26.2987 94.7305 26.2852 94.7608 26.2651C94.7988 26.245 94.8406 26.2282 94.8861 26.2148C94.9317 26.1946 94.9696 26.1745 95 26.1544C95.038 26.1342 95.0683 26.1242 95.0911 26.1242C94.9544 26.0906 94.8064 26.0671 94.6469 26.0537C94.4875 26.0336 94.3242 26.0201 94.1572 26.0134C93.9977 26.0067 93.8383 26.0034 93.6788 26.0034C93.527 26.0034 93.3941 26.0034 93.2802 26.0034Z"
          fill="#61636A"/>
    <path d="M99.385 29.3154C99.385 29.2483 99.404 29.1812 99.4419 29.1141C99.4799 29.047 99.5482 29.0134 99.6469 29.0134C99.7305 29.0134 99.8102 29.0403 99.8861 29.094C99.962 29.1477 100 29.2114 100 29.2852C100 29.3792 99.9658 29.4497 99.8975 29.4966C99.8292 29.5369 99.7494 29.557 99.6583 29.557C99.552 29.557 99.4799 29.5403 99.4419 29.5067C99.404 29.4732 99.385 29.4094 99.385 29.3154Z"
          fill="#61636A"/>
</svg>
