<svg width="127" height="25" viewBox="0 0 127 25" fill="none" xmlns="http://www.w3.org/2000/svg">
    <path d="M20.0433 13.4156H14.3166V16.2208H17.18V19.026H11.4533V16.2208H8.58999V19.026H2.86333V16.2208H5.72666V13.4156H0V10.6104H5.72666V7.80519H2.86333V5H8.58999V7.80519H11.4533V5H17.18V7.80519H14.3166V10.6104H20.0433V13.4156Z"
          fill="#FF3E13"/>
    <path d="M20.0433 13.4156H14.3166V16.2208H17.18V19.026H11.4533V16.2208H8.58999V19.026H2.86333V16.2208H5.72666V13.4156H0V10.6104H5.72666V7.80519H2.86333V5H8.58999V7.80519H11.4533V5H17.18V7.80519H14.3166V10.6104H20.0433V13.4156Z"
          fill="#FF3E13"/>
    <path d="M26.9281 7.85714V19.2857H24.0117V5H38.5935V19.2857H35.6771V7.85714H26.9281Z" fill="white"/>
    <path d="M44.432 16.4285H41.5156V7.85714H44.432V16.4285ZM53.1812 7.85714H44.432V5H53.1812V7.85714ZM56.0975 16.4285H53.1812V7.85714H56.0975V16.4285ZM53.1812 19.2857H44.432V16.4285H53.1812V19.2857Z"
          fill="white"/>
    <path d="M61.9397 10.7143H59.0234V7.85714H61.9397V10.7143ZM59.0234 13.5714H61.9397V19.2857H59.0234V13.5714ZM70.6886 7.85714H61.9397V5H73.6049V19.2857H70.6886V13.5714H61.9397V10.7143H70.6886V7.85714Z"
          fill="white"/>
    <path d="M88.1891 7.85714H79.4397V5H88.1891V7.85714ZM79.4397 19.2857V25H76.5234V7.85714H79.4397V16.4285H88.1891V19.2857H79.4397ZM91.1054 16.4285H88.1891V7.85714H91.1054V16.4285Z"
          fill="white"/>
    <path d="M94.0391 5H96.9554V10.7143H94.0391V5ZM105.704 10.7143V5H108.621V19.2857H105.704V13.5714H96.9554V10.7143H105.704Z"
          fill="white"/>
    <path d="M123.205 7.85714H114.456V5H123.205V7.85714ZM114.456 13.5714V16.4285H111.539V7.85714H114.456V10.7143H123.205V7.85714H126.121V13.5714H114.456ZM126.121 19.2857H114.456V16.4285H126.121V19.2857Z"
          fill="white"/>
</svg>
