<svg viewBox="0 0 125 21" fill="none" xmlns="http://www.w3.org/2000/svg">
    <path d="M19.8648 8.51347H14.1891V11.3513H17.0269V14.1891H11.3513V11.3513H8.51347V14.1891H2.83782V11.3513H5.67565V8.51347H0V5.67565H5.67565V2.83782H2.83782V0H8.51347V2.83782H11.3513V0H17.0269V2.83782H14.1891V5.67565H19.8648V8.51347Z"
          fill="#D51A25"/>
    <path d="M26.6872 2.89038V14.4519H23.7969V0H38.2487V14.4519H35.3584V2.89038H26.6872Z" fill="white"/>
    <path d="M44.0349 11.5615H41.1445V2.89038H44.0349V11.5615ZM52.7062 2.89038H44.0349V0H52.7062V2.89038ZM55.5965 11.5615H52.7062V2.89038H55.5965V11.5615ZM52.7062 14.4519H44.0349V11.5615H52.7062V14.4519Z"
          fill="white"/>
    <path d="M61.3864 5.78074H58.4961V2.89038H61.3864V5.78074ZM58.4961 8.67112H61.3864V14.4519H58.4961V8.67112ZM70.0574 2.89038H61.3864V0H72.9477V14.4519H70.0574V8.67112H61.3864V5.78074H70.0574V2.89038Z"
          fill="white"/>
    <path d="M87.4055 2.89038H78.7341V0H87.4055V2.89038ZM78.7341 14.4519V20.2327H75.8438V2.89038H78.7341V11.5615H87.4055V14.4519H78.7341ZM90.2958 11.5615H87.4055V2.89038H90.2958V11.5615Z"
          fill="white"/>
    <path d="M93.1992 0H96.0895V5.78074H93.1992V0ZM104.761 5.78074V0H107.651V14.4519H104.761V8.67112H96.0895V5.78074H104.761Z"
          fill="white"/>
    <path d="M122.109 2.89038H113.438V0H122.109V2.89038ZM113.438 8.67112V11.5615H110.547V2.89038H113.438V5.78074H122.109V2.89038H124.999V8.67112H113.438ZM124.999 14.4519H113.438V11.5615H124.999V14.4519Z"
          fill="white"/>
</svg>
