<svg width="63" height="11" viewBox="0 0 63 11" fill="none" xmlns="http://www.w3.org/2000/svg">
<path d="M18.2128 0V10.841H16.0209V0H18.2128Z" fill="white"/>
<path d="M0 2.71258V10.8363H2.18281V5.95833C2.18281 5.65901 2.23738 5.39711 2.35107 5.17262C2.46476 4.94813 2.61483 4.77508 2.81037 4.64881C3.00136 4.52253 3.21964 4.46174 3.46521 4.46174C3.82447 4.46174 4.11551 4.57866 4.33834 4.81718C4.56116 5.0557 4.67031 5.37373 4.67031 5.77126V10.841H6.794V5.87883C6.794 5.45323 6.90768 5.11182 7.13051 4.85459C7.35334 4.59736 7.66712 4.46641 8.06276 4.46641C8.41292 4.46641 8.70396 4.57866 8.93588 4.80315C9.1678 5.02764 9.28604 5.36437 9.28604 5.81803V10.841H11.4734V5.37372C11.4734 4.49447 11.2415 3.81165 10.7822 3.32993C10.3229 2.84821 9.7226 2.60969 8.9859 2.60969C8.40382 2.60969 7.90359 2.75 7.48067 3.03061C7.05775 3.31123 6.76216 3.6807 6.603 4.14838H6.52115C6.39836 3.67602 6.1437 3.30187 5.76171 3.02594C5.38427 2.75 4.91132 2.60969 4.37926 2.60969C3.8472 2.60969 3.38336 2.74532 3.00136 3.02126C2.61937 3.29719 2.34197 3.67134 2.17826 4.14838H2.08731V2.71258H0Z" fill="white"/>
<path d="M12.5011 2.71258V10.841H14.693V2.71258H12.5011Z" fill="white"/>
<path d="M21.4416 10.841V0H19.2497V10.841H21.4416Z" fill="white"/>
<path fill-rule="evenodd" clip-rule="evenodd" d="M26.3711 11C25.5571 11 24.8613 10.8316 24.2747 10.4902C23.688 10.1488 23.2378 9.66709 22.9241 9.04039C22.6103 8.41369 22.4511 7.67475 22.4511 6.8142C22.4511 5.95366 22.6103 5.24277 22.9241 4.61139C23.2378 3.98002 23.6835 3.48895 24.261 3.1335C24.834 2.78274 25.5116 2.60502 26.2847 2.60502C26.8076 2.60502 27.2942 2.6892 27.7444 2.86224C28.1946 3.03529 28.5903 3.28784 28.9268 3.63393C29.2633 3.97534 29.5271 4.40561 29.7181 4.92007C29.9045 5.43452 30 6.04252 30 6.73002V7.34736H24.6203V7.35204C24.6203 7.75425 24.693 8.10034 24.8386 8.39498C24.9841 8.68963 25.1887 8.91412 25.457 9.07313C25.7253 9.23214 26.0437 9.31165 26.4075 9.31165C26.653 9.31165 26.8759 9.27424 27.0759 9.20408C27.276 9.13393 27.4534 9.02636 27.5944 8.88605C27.7353 8.74575 27.849 8.5727 27.9218 8.36692L29.95 8.50255C29.8454 9.00298 29.6362 9.43793 29.3179 9.81207C28.9995 10.1862 28.5903 10.4715 28.0946 10.682C27.5944 10.8878 27.0214 10.9906 26.3665 10.9906L26.3711 11ZM24.8431 5.14924C24.7091 5.39048 24.6368 5.65949 24.6226 5.94898H27.94C27.94 5.62628 27.8718 5.33631 27.7353 5.08844C27.5989 4.84056 27.4079 4.63945 27.1669 4.49915C26.9259 4.35417 26.6439 4.28401 26.3256 4.28401C26.0073 4.28401 25.698 4.36352 25.4434 4.51786C25.1887 4.67687 24.9886 4.88265 24.8431 5.14924Z" fill="white"/>
<path d="M14.693 0.00468144V1.76786H12.5011V0.00468144H14.693Z" fill="white"/>
<path d="M41.7209 0V1.85293H39.48V0H41.7209Z" fill="white"/>
<path d="M33.2409 6.17017V10.8965H31V2.72297H33.134V4.16675H33.227C33.4036 3.69176 33.7058 3.31553 34.1242 3.03806C34.5427 2.76059 35.0541 2.61951 35.6538 2.61951C36.2163 2.61951 36.7045 2.74178 37.1229 2.99104C37.5414 3.24029 37.8621 3.593 38.0946 4.05388C38.327 4.51476 38.4433 5.06029 38.4433 5.69518V10.8965H36.2024V6.09492C36.2024 5.59642 36.0815 5.20608 35.8258 4.92391C35.5701 4.64174 35.2168 4.50065 34.7705 4.50065C34.4683 4.50065 34.2033 4.56649 33.9755 4.69817C33.7477 4.82985 33.5663 5.01797 33.4408 5.27192C33.3106 5.52117 33.2455 5.82216 33.2455 6.17487L33.2409 6.17017Z" fill="white"/>
<path d="M39.4847 10.8965V2.72297H41.7256V10.8965H39.4847Z" fill="white"/>
<path d="M47.9647 2.72297V7.41642H47.9693C47.974 7.78325 47.8996 8.08893 47.7555 8.33818C47.6067 8.58273 47.4207 8.77085 47.1836 8.89782C46.9465 9.0248 46.6955 9.08594 46.4259 9.08594C46.0028 9.08594 45.6634 8.94955 45.4123 8.66738C45.1566 8.38992 45.0265 8.00898 45.0265 7.52459V2.72297H42.7856V7.92433C42.7902 8.56392 42.9065 9.11416 43.1343 9.57033C43.3621 10.0265 43.6782 10.3792 44.092 10.6285C44.5058 10.8777 44.98 11 45.5193 11C46.1236 11 46.6397 10.8542 47.0628 10.5626C47.4858 10.2758 47.788 9.89013 47.9693 9.41043H48.0531V10.8965H50.2056V2.72297H47.9647Z" fill="white"/>
<path d="M51.2702 10.8965V10.8918H53.5018V5.98675C53.5018 5.68577 53.5576 5.42241 53.6738 5.19667C53.7901 4.97094 53.9435 4.79693 54.1434 4.66996C54.3387 4.54298 54.5618 4.48184 54.8129 4.48184C55.1802 4.48184 55.4777 4.59941 55.7055 4.83926C55.9333 5.0791 56.0449 5.3989 56.0449 5.79864V10.8965H58.2161V5.90681C58.2161 5.47885 58.3323 5.13554 58.5601 4.87688C58.7879 4.61822 59.1087 4.48654 59.5132 4.48654C59.8711 4.48654 60.1687 4.59941 60.4058 4.82515C60.6429 5.05089 60.7638 5.38949 60.7638 5.84567V10.8965H63V5.3989C63 4.51476 62.7629 3.82814 62.2933 3.34375C61.8238 2.85935 61.2101 2.61951 60.4569 2.61951C59.8618 2.61951 59.3504 2.76059 58.9181 3.04277C58.4857 3.32494 58.1835 3.69646 58.0208 4.16675H57.9371C57.8116 3.69176 57.5512 3.31553 57.1607 3.03806C56.7748 2.76059 56.2913 2.61951 55.7474 2.61951C55.2034 2.61951 54.7292 2.75589 54.3387 3.03336C53.9481 3.31083 53.6645 3.68706 53.4972 4.16675H53.4042V2.72297H51.2702V10.8918H51.2609L51.2702 10.8965Z" fill="white"/>
</svg>
