<svg width="343" height="35" viewBox="0 0 343 35" fill="none" xmlns="http://www.w3.org/2000/svg">
    <path d="M0.03125 21.2109C0.65625 21.9141 1.30729 22.5651 1.98438 23.1641C2.66146 23.737 3.3776 24.2448 4.13281 24.6875C4.88802 25.1042 5.68229 25.4297 6.51562 25.6641C7.375 25.8984 8.27344 26.0156 9.21094 26.0156C10.3828 26.0156 11.5547 25.8073 12.7266 25.3906C13.8984 24.9479 14.9531 24.349 15.8906 23.5938C16.8542 22.8125 17.6354 21.888 18.2344 20.8203C18.8333 19.7526 19.1328 18.5938 19.1328 17.3438C19.1328 16.6406 18.9635 16.0286 18.625 15.5078C18.2865 14.9609 17.8438 14.5052 17.2969 14.1406C16.776 13.776 16.1771 13.5026 15.5 13.3203C14.849 13.112 14.1979 13.0078 13.5469 13.0078C13.2083 13.0078 12.7786 13.0599 12.2578 13.1641C11.763 13.2422 11.2292 13.3594 10.6562 13.5156C10.0833 13.6458 9.4974 13.8151 8.89844 14.0234C8.29948 14.2057 7.73958 14.4141 7.21875 14.6484C6.69792 14.8828 6.25521 15.1302 5.89062 15.3906C5.52604 15.625 5.26562 15.8594 5.10938 16.0938C5.10938 16.224 5.08333 16.4453 5.03125 16.7578C5.00521 17.0703 4.96615 17.4219 4.91406 17.8125C4.88802 18.1771 4.86198 18.5286 4.83594 18.8672C4.8099 19.1797 4.78385 19.401 4.75781 19.5312C4.75781 19.6875 4.73177 19.8828 4.67969 20.1172C4.6276 20.3255 4.5625 20.5469 4.48438 20.7812C4.43229 20.9896 4.34115 21.1979 4.21094 21.4062C4.10677 21.6146 3.96354 21.7839 3.78125 21.9141C3.41667 21.7578 3.15625 21.5104 3 21.1719C2.84375 20.8073 2.73958 20.4167 2.6875 20C2.66146 19.5573 2.66146 19.1276 2.6875 18.7109C2.71354 18.2682 2.72656 17.9036 2.72656 17.6172C2.72656 17.3568 2.72656 16.9271 2.72656 16.3281C2.7526 15.7292 2.77865 15.026 2.80469 14.2188C2.85677 13.4115 2.92188 12.5391 3 11.6016C3.10417 10.638 3.23438 9.6875 3.39062 8.75C3.54688 7.78646 3.74219 6.875 3.97656 6.01562C4.21094 5.13021 4.4974 4.34896 4.83594 3.67188C5.17448 2.96875 5.5651 2.42188 6.00781 2.03125C6.47656 1.61458 6.9974 1.40625 7.57031 1.40625C8.2474 1.40625 8.84635 1.5625 9.36719 1.875C9.91406 2.1875 10.3698 2.59115 10.7344 3.08594C11.125 3.55469 11.4245 4.10156 11.6328 4.72656C11.8672 5.32552 11.9844 5.9375 11.9844 6.5625C11.9844 7.05729 11.8932 7.53906 11.7109 8.00781C11.5286 8.45052 11.3333 8.88021 11.125 9.29688C10.9427 9.71354 10.7604 10.1302 10.5781 10.5469C10.3958 10.9635 10.3047 11.3932 10.3047 11.8359C10.9297 11.8359 11.6328 11.849 12.4141 11.875C13.1953 11.901 13.9896 11.9661 14.7969 12.0703C15.6042 12.1745 16.3854 12.3568 17.1406 12.6172C17.9219 12.8516 18.612 13.1901 19.2109 13.6328C19.8099 14.0495 20.2786 14.5833 20.6172 15.2344C20.9818 15.8854 21.1641 16.6797 21.1641 17.6172C21.1641 18.5547 20.9948 19.4531 20.6562 20.3125C20.3177 21.1458 19.849 21.9271 19.25 22.6562C18.6771 23.3854 18 24.0365 17.2188 24.6094C16.4635 25.1823 15.6432 25.6771 14.7578 26.0938C13.8984 26.5104 13.013 26.8359 12.1016 27.0703C11.2161 27.2786 10.3568 27.3828 9.52344 27.3828C9.08073 27.3828 8.52083 27.3177 7.84375 27.1875C7.19271 27.0312 6.51562 26.8359 5.8125 26.6016C5.10938 26.3411 4.40625 26.0286 3.70312 25.6641C3.02604 25.2734 2.41406 24.8698 1.86719 24.4531C1.32031 24.0104 0.877604 23.5286 0.539062 23.0078C0.200521 22.487 0.03125 21.9401 0.03125 21.3672V21.2109ZM8.03906 3.125C7.70052 3.125 7.40104 3.29427 7.14062 3.63281C6.88021 3.97135 6.64583 4.41406 6.4375 4.96094C6.25521 5.48177 6.09896 6.06771 5.96875 6.71875C5.86458 7.34375 5.76042 7.96875 5.65625 8.59375C5.57812 9.19271 5.52604 9.73958 5.5 10.2344C5.47396 10.7292 5.46094 11.0938 5.46094 11.3281C5.46094 11.4062 5.46094 11.5495 5.46094 11.7578C5.46094 11.9401 5.46094 12.1354 5.46094 12.3438C5.46094 12.5521 5.46094 12.7604 5.46094 12.9688C5.46094 13.151 5.46094 13.2812 5.46094 13.3594C6.08594 12.9427 6.6849 12.487 7.25781 11.9922C7.83073 11.4974 8.33854 10.9766 8.78125 10.4297C9.25 9.85677 9.61458 9.24479 9.875 8.59375C10.1615 7.91667 10.3047 7.17448 10.3047 6.36719C10.3047 6.0026 10.2656 5.625 10.1875 5.23438C10.1094 4.84375 9.97917 4.49219 9.79688 4.17969C9.64062 3.86719 9.40625 3.61979 9.09375 3.4375C8.80729 3.22917 8.45573 3.125 8.03906 3.125Z"
          fill="#3246F7"/>
    <path d="M31.3594 29.1016C31.3594 28.4245 31.4115 27.7474 31.5156 27.0703C31.6198 26.3932 31.737 25.7292 31.8672 25.0781C31.9974 24.401 32.1146 23.737 32.2188 23.0859C32.349 22.4089 32.4141 21.7318 32.4141 21.0547V20.8594C31.0078 20.599 29.6927 20.2083 28.4688 19.6875C27.2708 19.1406 26.2292 18.4375 25.3438 17.5781C24.4583 16.7188 23.7552 15.7031 23.2344 14.5312C22.7396 13.3333 22.4922 11.9401 22.4922 10.3516C22.4922 10.1172 22.4792 9.80469 22.4531 9.41406C22.4531 8.9974 22.4922 8.60677 22.5703 8.24219C22.6484 7.8776 22.7786 7.5651 22.9609 7.30469C23.1693 7.01823 23.4688 6.875 23.8594 6.875C24.224 6.875 24.4844 6.91406 24.6406 6.99219C24.8229 7.07031 24.9141 7.30469 24.9141 7.69531C24.9141 8.03385 24.875 8.35938 24.7969 8.67188C24.7188 8.98438 24.6406 9.29688 24.5625 9.60938C24.4844 9.89583 24.4062 10.2083 24.3281 10.5469C24.25 10.8594 24.2109 11.1719 24.2109 11.4844C24.2109 12.4219 24.4062 13.3464 24.7969 14.2578C25.1875 15.1432 25.7083 15.9245 26.3594 16.6016C27.0365 17.2786 27.8047 17.8255 28.6641 18.2422C29.5234 18.6589 30.4219 18.8672 31.3594 18.8672C31.4375 18.8672 31.5286 18.8672 31.6328 18.8672C31.763 18.8672 31.9062 18.8672 32.0625 18.8672C32.2188 18.8411 32.349 18.8281 32.4531 18.8281C32.5833 18.8281 32.6875 18.8281 32.7656 18.8281C33.2344 18.5156 33.599 17.9818 33.8594 17.2266C34.1458 16.4453 34.3802 15.5859 34.5625 14.6484C34.7448 13.6849 34.901 12.6823 35.0312 11.6406C35.1615 10.599 35.3307 9.66146 35.5391 8.82812C35.7474 7.96875 35.9948 7.26562 36.2812 6.71875C36.5938 6.14583 37.0104 5.85938 37.5312 5.85938C37.5573 5.85938 37.6094 5.91146 37.6875 6.01562C37.7656 6.09375 37.8177 6.15885 37.8438 6.21094C37.8698 6.23698 37.8958 6.34115 37.9219 6.52344C37.9479 6.67969 37.974 6.875 38 7.10938C38.026 7.31771 38.0521 7.53906 38.0781 7.77344C38.1302 7.98177 38.1693 8.15104 38.1953 8.28125V8.4375C38.1953 9.6875 38.0521 10.9115 37.7656 12.1094C37.5052 13.2812 37.1667 14.4401 36.75 15.5859C36.3594 16.7057 35.9297 17.8255 35.4609 18.9453C34.9922 20.0391 34.5495 21.1589 34.1328 22.3047C33.7422 23.4245 33.4036 24.5703 33.1172 25.7422C32.8568 26.9141 32.7266 28.138 32.7266 29.4141C32.7266 30.3516 32.7917 31.263 32.9219 32.1484C33.0781 33.0599 33.1562 33.9844 33.1562 34.9219C32.8177 34.9219 32.5312 34.8047 32.2969 34.5703C32.0625 34.3359 31.8802 34.0365 31.75 33.6719C31.6198 33.3073 31.5156 32.8906 31.4375 32.4219C31.3854 31.9792 31.3464 31.5365 31.3203 31.0938C31.3203 30.6771 31.3203 30.2865 31.3203 29.9219C31.3464 29.5573 31.3594 29.2839 31.3594 29.1016Z"
          fill="#3246F7"/>
    <path d="M77.9219 9.60938C77.6354 9.71354 77.4401 9.85677 77.3359 10.0391C77.2578 10.1953 77.1667 10.4036 77.0625 10.6641C77.0104 10.7682 76.9062 11.0156 76.75 11.4062C76.5938 11.7708 76.4115 12.2135 76.2031 12.7344C75.9948 13.2552 75.7604 13.8021 75.5 14.375C75.2656 14.9479 75.0443 15.4948 74.8359 16.0156C74.6276 16.5365 74.4453 16.9922 74.2891 17.3828C74.1328 17.7734 74.0286 18.0339 73.9766 18.1641C73.7943 18.5807 73.5599 19.0625 73.2734 19.6094C73.013 20.1562 72.6875 20.6771 72.2969 21.1719C71.9323 21.6667 71.5156 22.0833 71.0469 22.4219C70.6042 22.7604 70.1094 22.9297 69.5625 22.9297C68.7031 22.9297 68.013 22.6042 67.4922 21.9531C66.9714 21.276 66.5677 20.4167 66.2812 19.375C66.0208 18.3073 65.8385 17.1224 65.7344 15.8203C65.6302 14.4922 65.5391 13.2031 65.4609 11.9531C65.4089 10.7031 65.3438 9.53125 65.2656 8.4375C65.1875 7.34375 65.0312 6.48438 64.7969 5.85938C64.7448 5.85938 64.7057 5.85938 64.6797 5.85938C64.6536 5.85938 64.6276 5.85938 64.6016 5.85938C64.5755 5.85938 64.5625 5.85938 64.5625 5.85938C64.5625 5.85938 64.5495 5.85938 64.5234 5.85938H64.4453C64.1849 6.01562 63.9375 6.25 63.7031 6.5625C63.4948 6.875 63.2995 7.21354 63.1172 7.57812C62.9349 7.91667 62.7786 8.24219 62.6484 8.55469C62.5443 8.86719 62.4661 9.11458 62.4141 9.29688L57.9609 23.5938C57.9349 23.6719 57.8958 23.776 57.8438 23.9062C57.7917 24.0365 57.7135 24.1667 57.6094 24.2969C57.5312 24.401 57.4271 24.4922 57.2969 24.5703C57.1927 24.6484 57.0755 24.6615 56.9453 24.6094C56.8672 24.6094 56.763 24.5573 56.6328 24.4531C56.5286 24.3229 56.4245 24.1927 56.3203 24.0625C56.2161 23.9062 56.125 23.763 56.0469 23.6328C55.9688 23.4766 55.9167 23.3594 55.8906 23.2812C55.5 20.651 55.2786 17.9688 55.2266 15.2344C55.1745 12.5 55.1745 9.84375 55.2266 7.26562C55.2005 7.21354 55.1354 7.09635 55.0312 6.91406C54.9531 6.73177 54.9141 6.61458 54.9141 6.5625C54.9141 6.38021 54.9661 6.19792 55.0703 6.01562C55.2005 5.80729 55.3438 5.61198 55.5 5.42969C55.6823 5.2474 55.8646 5.10417 56.0469 5C56.2552 4.86979 56.4375 4.80469 56.5938 4.80469C56.8542 4.80469 57.0365 4.88281 57.1406 5.03906C57.2448 5.16927 57.2969 5.36458 57.2969 5.625C57.2969 7.03125 57.2318 8.42448 57.1016 9.80469C56.9714 11.1849 56.9062 12.5911 56.9062 14.0234C56.9062 14.2057 56.9062 14.4661 56.9062 14.8047C56.9062 15.1432 56.9062 15.4818 56.9062 15.8203C56.9323 16.1328 56.9453 16.4193 56.9453 16.6797C56.9453 16.9401 56.9453 17.0833 56.9453 17.1094L57.2969 18.5156C57.3229 18.4635 57.375 18.3984 57.4531 18.3203C57.5573 18.2422 57.6224 18.1901 57.6484 18.1641C57.7005 18.0599 57.7917 17.8646 57.9219 17.5781C58.0521 17.2917 58.1823 16.9922 58.3125 16.6797C58.4688 16.3411 58.612 16.0286 58.7422 15.7422C58.8724 15.4297 58.9505 15.2083 58.9766 15.0781C59.0286 14.9479 59.1198 14.7135 59.25 14.375C59.3802 14.0104 59.5365 13.5807 59.7188 13.0859C59.901 12.5651 60.0964 12.0312 60.3047 11.4844C60.5391 10.9375 60.7474 10.4167 60.9297 9.92188C61.112 9.42708 61.2682 8.9974 61.3984 8.63281C61.5547 8.26823 61.6589 8.02083 61.7109 7.89062C61.8151 7.68229 61.9714 7.31771 62.1797 6.79688C62.4141 6.25 62.6875 5.71615 63 5.19531C63.3385 4.64844 63.6901 4.16667 64.0547 3.75C64.4453 3.33333 64.849 3.125 65.2656 3.125C65.6562 3.125 65.9557 3.38542 66.1641 3.90625C66.3724 4.42708 66.5286 5.11719 66.6328 5.97656C66.763 6.8099 66.8542 7.77344 66.9062 8.86719C66.9583 9.9349 66.9974 11.0417 67.0234 12.1875C67.0755 13.3333 67.1406 14.4531 67.2188 15.5469C67.3229 16.6146 67.4661 17.5781 67.6484 18.4375C67.8307 19.2708 68.0781 19.9479 68.3906 20.4688C68.7292 20.9896 69.1719 21.25 69.7188 21.25C69.875 21.25 70.0443 21.1719 70.2266 21.0156C70.4349 20.8333 70.6302 20.625 70.8125 20.3906C70.9948 20.1562 71.151 19.9219 71.2812 19.6875C71.4375 19.4531 71.5417 19.2708 71.5938 19.1406C71.776 18.8021 72.0365 18.2682 72.375 17.5391C72.7135 16.8099 73.0911 15.9896 73.5078 15.0781C73.9505 14.1667 74.4062 13.2031 74.875 12.1875C75.3438 11.1719 75.7865 10.2083 76.2031 9.29688C76.6198 8.35938 76.9974 7.52604 77.3359 6.79688C77.6745 6.06771 77.9219 5.52083 78.0781 5.15625C78.2083 4.84375 78.3776 4.41406 78.5859 3.86719C78.8203 3.32031 78.9896 2.85156 79.0938 2.46094C79.4062 2.51302 79.7188 2.60417 80.0312 2.73438C80.3438 2.86458 80.5 3.09896 80.5 3.4375C80.5 3.48958 80.487 3.56771 80.4609 3.67188C80.4609 3.75 80.4609 3.80208 80.4609 3.82812C80.0964 5.96354 79.8229 8.04688 79.6406 10.0781C79.4844 12.0833 79.4062 14.1536 79.4062 16.2891C79.4062 16.4714 79.4062 16.7969 79.4062 17.2656C79.4062 17.7083 79.4062 18.2031 79.4062 18.75C79.4323 19.2708 79.4453 19.7656 79.4453 20.2344C79.4453 20.6771 79.4453 21.0026 79.4453 21.2109C79.5755 22.2786 79.9531 23.2552 80.5781 24.1406C81.2031 25.026 81.8411 25.8594 82.4922 26.6406V27.5391C82.2578 27.5391 81.9714 27.4219 81.6328 27.1875C81.2943 26.9271 80.9557 26.6016 80.6172 26.2109C80.2786 25.8203 79.9401 25.3776 79.6016 24.8828C79.2891 24.388 79.0026 23.9062 78.7422 23.4375C78.5078 22.9688 78.3125 22.5391 78.1562 22.1484C78 21.7578 77.9219 21.4453 77.9219 21.2109V9.60938Z"
          fill="#3246F7"/>
    <path d="M87.2969 26.3281C87.2969 26.276 87.2969 26.2109 87.2969 26.1328C87.3229 26.0547 87.3359 26.0156 87.3359 26.0156C87.7266 25.2604 88.1302 24.5312 88.5469 23.8281C88.9896 23.125 89.4323 22.4349 89.875 21.7578C90.3438 21.0547 90.7865 20.3516 91.2031 19.6484C91.6458 18.9193 92.0495 18.1901 92.4141 17.4609C92.3099 17.2266 92.0495 17.0182 91.6328 16.8359C91.2161 16.6536 90.7083 16.4583 90.1094 16.25C89.5365 16.0417 88.9245 15.8073 88.2734 15.5469C87.6224 15.2604 87.0234 14.9349 86.4766 14.5703C85.9297 14.1797 85.474 13.737 85.1094 13.2422C84.7448 12.7214 84.5625 12.1224 84.5625 11.4453C84.5625 10.7422 84.7969 10.1302 85.2656 9.60938C85.7344 9.0625 86.3073 8.61979 86.9844 8.28125C87.6615 7.91667 88.3776 7.64323 89.1328 7.46094C89.888 7.27865 90.5391 7.1875 91.0859 7.1875C92.2318 7.1875 93.2344 7.38281 94.0938 7.77344C94.9792 8.16406 95.8906 8.67188 96.8281 9.29688C97.1406 9.0625 97.401 8.80208 97.6094 8.51562C97.8438 8.22917 98.0521 7.91667 98.2344 7.57812C98.3125 7.39583 98.4818 7.07031 98.7422 6.60156C99.0286 6.10677 99.3021 5.58594 99.5625 5.03906C99.849 4.49219 100.122 3.98438 100.383 3.51562C100.669 3.02083 100.852 2.66927 100.93 2.46094C101.138 2.30469 101.307 2.21354 101.438 2.1875C101.568 2.13542 101.75 2.10938 101.984 2.10938C102.01 2.10938 102.062 2.10938 102.141 2.10938C102.245 2.10938 102.31 2.10938 102.336 2.10938C102.596 3.20312 102.792 4.32292 102.922 5.46875C103.052 6.61458 103.143 7.76042 103.195 8.90625C103.273 10.0521 103.339 11.1979 103.391 12.3438C103.443 13.4896 103.534 14.6354 103.664 15.7812C103.742 15.7812 103.885 15.7943 104.094 15.8203C104.302 15.8203 104.458 15.8203 104.562 15.8203C104.927 15.8203 105.292 15.7812 105.656 15.7031C106.021 15.625 106.385 15.5469 106.75 15.4688C107.115 15.3646 107.479 15.2734 107.844 15.1953C108.234 15.1172 108.625 15.0781 109.016 15.0781H109.133C109.159 15.1042 109.211 15.1562 109.289 15.2344C109.367 15.3125 109.432 15.3646 109.484 15.3906C109.328 15.6771 109.068 15.9115 108.703 16.0938C108.365 16.25 107.974 16.3802 107.531 16.4844C107.115 16.5885 106.672 16.6927 106.203 16.7969C105.734 16.875 105.318 16.9792 104.953 17.1094C104.589 17.2135 104.276 17.3438 104.016 17.5C103.781 17.6562 103.664 17.8776 103.664 18.1641C103.664 18.6849 103.69 19.2057 103.742 19.7266C103.82 20.2474 103.898 20.7812 103.977 21.3281C104.081 21.849 104.172 22.3828 104.25 22.9297C104.328 23.4505 104.367 23.9844 104.367 24.5312C104.367 24.6615 104.354 24.8438 104.328 25.0781C104.328 25.3125 104.302 25.5469 104.25 25.7812C104.224 26.0156 104.146 26.224 104.016 26.4062C103.911 26.5885 103.742 26.6797 103.508 26.6797C103.247 26.6797 103.013 26.4844 102.805 26.0938C102.596 25.7031 102.427 25.2083 102.297 24.6094C102.167 24.0104 102.049 23.3594 101.945 22.6562C101.867 21.9271 101.789 21.237 101.711 20.5859C101.659 19.9089 101.594 19.3229 101.516 18.8281C101.438 18.3073 101.359 17.9688 101.281 17.8125C101.073 17.7865 100.682 17.7604 100.109 17.7344C99.5625 17.7083 98.9766 17.6823 98.3516 17.6562C97.7526 17.6042 97.1797 17.5651 96.6328 17.5391C96.0859 17.487 95.7083 17.4609 95.5 17.4609H95.1094C94.5885 17.4609 94.0938 17.7083 93.625 18.2031C93.1823 18.6719 92.7656 19.2839 92.375 20.0391C92.0104 20.7682 91.6458 21.5625 91.2812 22.4219C90.9167 23.2552 90.5651 24.0495 90.2266 24.8047C89.888 25.5339 89.5365 26.1458 89.1719 26.6406C88.8073 27.1354 88.4167 27.3828 88 27.3828C87.7135 27.3828 87.5182 27.2786 87.4141 27.0703C87.3359 26.8359 87.2969 26.5885 87.2969 26.3281ZM95.1484 15.7812C95.3568 15.9115 95.6042 16.0156 95.8906 16.0938C96.2031 16.1458 96.5156 16.1719 96.8281 16.1719C97.1406 16.1719 97.4271 16.1719 97.6875 16.1719C97.974 16.1719 98.2214 16.1719 98.4297 16.1719C98.5339 16.1719 98.6641 16.1719 98.8203 16.1719C98.9766 16.1458 99.1328 16.1328 99.2891 16.1328C99.4453 16.1328 99.5755 16.1328 99.6797 16.1328C99.8099 16.1068 99.888 16.0938 99.9141 16.0938L100.266 15.7812C100.318 15.7292 100.227 15.4948 99.9922 15.0781C99.7578 14.6615 99.4583 14.2318 99.0938 13.7891C98.7552 13.3203 98.4167 12.9036 98.0781 12.5391C97.7396 12.1484 97.5052 11.9531 97.375 11.9531C97.349 11.9531 97.3229 11.9661 97.2969 11.9922C97.2708 12.0182 97.2318 12.0312 97.1797 12.0312C96.7891 12.6042 96.4245 13.2031 96.0859 13.8281C95.7474 14.4531 95.4349 15.1042 95.1484 15.7812ZM86.2812 11.4062C86.2812 12.0833 86.5156 12.6823 86.9844 13.2031C87.4531 13.6979 88.026 14.1146 88.7031 14.4531C89.3802 14.7917 90.0964 15.0391 90.8516 15.1953C91.6068 15.3516 92.2708 15.4297 92.8438 15.4297C93.2083 15.4297 93.5859 15.2474 93.9766 14.8828C94.3672 14.4922 94.7188 14.0495 95.0312 13.5547C95.3698 13.0599 95.6432 12.5521 95.8516 12.0312C96.0859 11.5104 96.2031 11.1068 96.2031 10.8203C96.2031 10.5078 95.9948 10.2214 95.5781 9.96094C95.1615 9.67448 94.6667 9.42708 94.0938 9.21875C93.5469 9.01042 93 8.85417 92.4531 8.75C91.9062 8.61979 91.5026 8.55469 91.2422 8.55469C90.8516 8.55469 90.3698 8.61979 89.7969 8.75C89.25 8.85417 88.7031 9.02344 88.1562 9.25781C87.6354 9.49219 87.1927 9.79167 86.8281 10.1562C86.4635 10.4948 86.2812 10.9115 86.2812 11.4062ZM98.5469 10.1172C98.5469 10.4557 98.6771 10.8724 98.9375 11.3672C99.1979 11.862 99.5104 12.3438 99.875 12.8125C100.24 13.2812 100.617 13.6849 101.008 14.0234C101.424 14.362 101.789 14.5312 102.102 14.5312C102.102 14.401 102.089 14.2057 102.062 13.9453C102.062 13.6849 102.049 13.3984 102.023 13.0859C102.023 12.7734 102.01 12.487 101.984 12.2266C101.984 11.9661 101.984 11.7708 101.984 11.6406C101.932 11.276 101.867 10.7943 101.789 10.1953C101.737 9.59635 101.672 9.01042 101.594 8.4375C101.542 7.86458 101.477 7.35677 101.398 6.91406C101.346 6.47135 101.307 6.23698 101.281 6.21094L100.93 5.54688C100.904 5.57292 100.839 5.625 100.734 5.70312C100.656 5.78125 100.604 5.83333 100.578 5.85938C100.5 6.01562 100.37 6.27604 100.188 6.64062C100.005 6.97917 99.7969 7.34375 99.5625 7.73438C99.3542 8.125 99.1589 8.5026 98.9766 8.86719C98.7943 9.23177 98.6641 9.47917 98.5859 9.60938C98.5859 9.66146 98.5729 9.7526 98.5469 9.88281C98.5469 10.013 98.5469 10.0911 98.5469 10.1172Z"
          fill="#3246F7"/>
    <path d="M124.055 20.7422C124.055 20.0391 124.12 19.3359 124.25 18.6328C124.406 17.9297 124.576 17.2526 124.758 16.6016C124.94 15.9245 125.096 15.2474 125.227 14.5703C125.383 13.8932 125.461 13.2161 125.461 12.5391V12.0312C125.122 12.4479 124.758 13.0208 124.367 13.75C123.977 14.4792 123.573 15.2734 123.156 16.1328C122.766 16.9922 122.336 17.8646 121.867 18.75C121.424 19.6354 120.956 20.4427 120.461 21.1719C119.966 21.901 119.458 22.5 118.938 22.9688C118.417 23.4115 117.87 23.6328 117.297 23.6328C116.958 23.6328 116.75 23.5417 116.672 23.3594C116.594 23.151 116.555 22.9036 116.555 22.6172C116.555 21.6797 116.75 20.8073 117.141 20C117.531 19.1667 118.013 18.3854 118.586 17.6562C119.185 16.9271 119.823 16.25 120.5 15.625C121.203 14.974 121.841 14.3359 122.414 13.7109C122.414 13.6328 122.414 13.5026 122.414 13.3203C122.44 13.112 122.453 12.9557 122.453 12.8516C122.453 12.0964 122.323 11.3932 122.062 10.7422C121.828 10.0651 121.49 9.49219 121.047 9.02344C120.604 8.55469 120.057 8.1901 119.406 7.92969C118.781 7.64323 118.065 7.5 117.258 7.5C116.607 7.5 115.969 7.65625 115.344 7.96875C114.719 8.25521 114.12 8.58073 113.547 8.94531C113 9.28385 112.492 9.59635 112.023 9.88281C111.581 10.1693 111.242 10.3125 111.008 10.3125C110.773 10.3125 110.617 10.2344 110.539 10.0781C110.461 9.92188 110.422 9.76562 110.422 9.60938C110.422 9.0625 110.721 8.56771 111.32 8.125C111.919 7.68229 112.622 7.29167 113.43 6.95312C114.237 6.61458 115.031 6.35417 115.812 6.17188C116.62 5.96354 117.232 5.85938 117.648 5.85938C118.794 5.85938 119.68 6.02865 120.305 6.36719C120.956 6.70573 121.477 7.14844 121.867 7.69531C122.284 8.24219 122.635 8.85417 122.922 9.53125C123.234 10.2083 123.638 10.9115 124.133 11.6406C124.133 11.6667 124.146 11.6797 124.172 11.6797H124.25C124.641 11.6797 124.979 11.5625 125.266 11.3281C125.552 11.0938 125.812 10.7943 126.047 10.4297C126.281 10.0651 126.49 9.6875 126.672 9.29688C126.854 8.88021 127.036 8.48958 127.219 8.125C127.427 7.76042 127.635 7.46094 127.844 7.22656C128.052 6.99219 128.286 6.875 128.547 6.875C128.729 6.875 128.885 6.91406 129.016 6.99219C129.146 7.07031 129.211 7.20052 129.211 7.38281V7.57812C128.872 8.61979 128.482 9.64844 128.039 10.6641C127.622 11.6536 127.219 12.6693 126.828 13.7109C126.438 14.7266 126.099 15.7682 125.812 16.8359C125.552 17.8776 125.422 18.9453 125.422 20.0391C125.422 20.8984 125.487 21.6406 125.617 22.2656C125.773 22.8906 125.995 23.4635 126.281 23.9844C126.568 24.4792 126.945 24.9479 127.414 25.3906C127.909 25.8073 128.508 26.224 129.211 26.6406V27.5C128.273 27.5 127.479 27.2917 126.828 26.875C126.177 26.4323 125.643 25.8854 125.227 25.2344C124.81 24.5833 124.51 23.8672 124.328 23.0859C124.146 22.2786 124.055 21.4974 124.055 20.7422ZM120.695 17.4609C120.357 17.6693 120.07 17.9818 119.836 18.3984C119.628 18.7891 119.458 19.1667 119.328 19.5312C119.641 19.2708 119.901 18.9583 120.109 18.5938C120.344 18.2031 120.539 17.8255 120.695 17.4609Z"
          fill="#3246F7"/>
    <path d="M131.594 20.8594C131.411 18.3594 131.242 15.9375 131.086 13.5938C130.956 11.25 130.891 8.84115 130.891 6.36719C130.891 6.3151 130.891 6.19792 130.891 6.01562C130.891 5.83333 130.891 5.65104 130.891 5.46875C130.917 5.26042 130.93 5.0651 130.93 4.88281C130.93 4.70052 130.93 4.58333 130.93 4.53125C130.956 4.34896 131.047 4.1276 131.203 3.86719C131.359 3.58073 131.542 3.4375 131.75 3.4375C131.932 3.4375 132.076 3.51562 132.18 3.67188C132.31 3.82812 132.401 4.01042 132.453 4.21875C132.505 4.42708 132.544 4.6224 132.57 4.80469C132.596 4.98698 132.609 5.10417 132.609 5.15625C132.635 5.36458 132.661 5.6901 132.688 6.13281C132.74 6.54948 132.779 6.99219 132.805 7.46094C132.831 7.92969 132.857 8.3724 132.883 8.78906C132.935 9.20573 132.961 9.47917 132.961 9.60938C132.961 9.79167 132.961 10.1432 132.961 10.6641C132.961 11.1849 132.961 11.7969 132.961 12.5C132.961 13.2031 132.961 13.9583 132.961 14.7656C132.961 15.5469 132.961 16.2891 132.961 16.9922C132.961 17.6953 132.961 18.3073 132.961 18.8281C132.961 19.3229 132.961 19.6615 132.961 19.8438C132.961 20.5208 133.052 21.1849 133.234 21.8359C133.443 22.4609 133.651 23.099 133.859 23.75C134.068 24.375 134.263 25.013 134.445 25.6641C134.628 26.2891 134.719 26.9271 134.719 27.5781C134.406 27.5781 134.107 27.4349 133.82 27.1484C133.56 26.862 133.312 26.5104 133.078 26.0938C132.87 25.651 132.674 25.1693 132.492 24.6484C132.336 24.1276 132.193 23.6198 132.062 23.125C131.932 22.6302 131.828 22.1875 131.75 21.7969C131.672 21.3802 131.62 21.0677 131.594 20.8594Z"
          fill="#3246F7"/>
    <path d="M159.016 9.60938C158.729 9.71354 158.534 9.85677 158.43 10.0391C158.352 10.1953 158.26 10.4036 158.156 10.6641C158.104 10.7682 158 11.0156 157.844 11.4062C157.688 11.7708 157.505 12.2135 157.297 12.7344C157.089 13.2552 156.854 13.8021 156.594 14.375C156.359 14.9479 156.138 15.4948 155.93 16.0156C155.721 16.5365 155.539 16.9922 155.383 17.3828C155.227 17.7734 155.122 18.0339 155.07 18.1641C154.888 18.5807 154.654 19.0625 154.367 19.6094C154.107 20.1562 153.781 20.6771 153.391 21.1719C153.026 21.6667 152.609 22.0833 152.141 22.4219C151.698 22.7604 151.203 22.9297 150.656 22.9297C149.797 22.9297 149.107 22.6042 148.586 21.9531C148.065 21.276 147.661 20.4167 147.375 19.375C147.115 18.3073 146.932 17.1224 146.828 15.8203C146.724 14.4922 146.633 13.2031 146.555 11.9531C146.503 10.7031 146.438 9.53125 146.359 8.4375C146.281 7.34375 146.125 6.48438 145.891 5.85938C145.839 5.85938 145.799 5.85938 145.773 5.85938C145.747 5.85938 145.721 5.85938 145.695 5.85938C145.669 5.85938 145.656 5.85938 145.656 5.85938C145.656 5.85938 145.643 5.85938 145.617 5.85938H145.539C145.279 6.01562 145.031 6.25 144.797 6.5625C144.589 6.875 144.393 7.21354 144.211 7.57812C144.029 7.91667 143.872 8.24219 143.742 8.55469C143.638 8.86719 143.56 9.11458 143.508 9.29688L139.055 23.5938C139.029 23.6719 138.99 23.776 138.938 23.9062C138.885 24.0365 138.807 24.1667 138.703 24.2969C138.625 24.401 138.521 24.4922 138.391 24.5703C138.286 24.6484 138.169 24.6615 138.039 24.6094C137.961 24.6094 137.857 24.5573 137.727 24.4531C137.622 24.3229 137.518 24.1927 137.414 24.0625C137.31 23.9062 137.219 23.763 137.141 23.6328C137.062 23.4766 137.01 23.3594 136.984 23.2812C136.594 20.651 136.372 17.9688 136.32 15.2344C136.268 12.5 136.268 9.84375 136.32 7.26562C136.294 7.21354 136.229 7.09635 136.125 6.91406C136.047 6.73177 136.008 6.61458 136.008 6.5625C136.008 6.38021 136.06 6.19792 136.164 6.01562C136.294 5.80729 136.438 5.61198 136.594 5.42969C136.776 5.2474 136.958 5.10417 137.141 5C137.349 4.86979 137.531 4.80469 137.688 4.80469C137.948 4.80469 138.13 4.88281 138.234 5.03906C138.339 5.16927 138.391 5.36458 138.391 5.625C138.391 7.03125 138.326 8.42448 138.195 9.80469C138.065 11.1849 138 12.5911 138 14.0234C138 14.2057 138 14.4661 138 14.8047C138 15.1432 138 15.4818 138 15.8203C138.026 16.1328 138.039 16.4193 138.039 16.6797C138.039 16.9401 138.039 17.0833 138.039 17.1094L138.391 18.5156C138.417 18.4635 138.469 18.3984 138.547 18.3203C138.651 18.2422 138.716 18.1901 138.742 18.1641C138.794 18.0599 138.885 17.8646 139.016 17.5781C139.146 17.2917 139.276 16.9922 139.406 16.6797C139.562 16.3411 139.706 16.0286 139.836 15.7422C139.966 15.4297 140.044 15.2083 140.07 15.0781C140.122 14.9479 140.214 14.7135 140.344 14.375C140.474 14.0104 140.63 13.5807 140.812 13.0859C140.995 12.5651 141.19 12.0312 141.398 11.4844C141.633 10.9375 141.841 10.4167 142.023 9.92188C142.206 9.42708 142.362 8.9974 142.492 8.63281C142.648 8.26823 142.753 8.02083 142.805 7.89062C142.909 7.68229 143.065 7.31771 143.273 6.79688C143.508 6.25 143.781 5.71615 144.094 5.19531C144.432 4.64844 144.784 4.16667 145.148 3.75C145.539 3.33333 145.943 3.125 146.359 3.125C146.75 3.125 147.049 3.38542 147.258 3.90625C147.466 4.42708 147.622 5.11719 147.727 5.97656C147.857 6.8099 147.948 7.77344 148 8.86719C148.052 9.9349 148.091 11.0417 148.117 12.1875C148.169 13.3333 148.234 14.4531 148.312 15.5469C148.417 16.6146 148.56 17.5781 148.742 18.4375C148.924 19.2708 149.172 19.9479 149.484 20.4688C149.823 20.9896 150.266 21.25 150.812 21.25C150.969 21.25 151.138 21.1719 151.32 21.0156C151.529 20.8333 151.724 20.625 151.906 20.3906C152.089 20.1562 152.245 19.9219 152.375 19.6875C152.531 19.4531 152.635 19.2708 152.688 19.1406C152.87 18.8021 153.13 18.2682 153.469 17.5391C153.807 16.8099 154.185 15.9896 154.602 15.0781C155.044 14.1667 155.5 13.2031 155.969 12.1875C156.438 11.1719 156.88 10.2083 157.297 9.29688C157.714 8.35938 158.091 7.52604 158.43 6.79688C158.768 6.06771 159.016 5.52083 159.172 5.15625C159.302 4.84375 159.471 4.41406 159.68 3.86719C159.914 3.32031 160.083 2.85156 160.188 2.46094C160.5 2.51302 160.812 2.60417 161.125 2.73438C161.438 2.86458 161.594 3.09896 161.594 3.4375C161.594 3.48958 161.581 3.56771 161.555 3.67188C161.555 3.75 161.555 3.80208 161.555 3.82812C161.19 5.96354 160.917 8.04688 160.734 10.0781C160.578 12.0833 160.5 14.1536 160.5 16.2891C160.5 16.4714 160.5 16.7969 160.5 17.2656C160.5 17.7083 160.5 18.2031 160.5 18.75C160.526 19.2708 160.539 19.7656 160.539 20.2344C160.539 20.6771 160.539 21.0026 160.539 21.2109C160.669 22.2786 161.047 23.2552 161.672 24.1406C162.297 25.026 162.935 25.8594 163.586 26.6406V27.5391C163.352 27.5391 163.065 27.4219 162.727 27.1875C162.388 26.9271 162.049 26.6016 161.711 26.2109C161.372 25.8203 161.034 25.3776 160.695 24.8828C160.383 24.388 160.096 23.9062 159.836 23.4375C159.602 22.9688 159.406 22.5391 159.25 22.1484C159.094 21.7578 159.016 21.4453 159.016 21.2109V9.60938Z"
          fill="#3246F7"/>
    <path d="M183.078 18.5156C182.896 18.4375 182.661 18.3333 182.375 18.2031C182.089 18.0469 181.815 17.8776 181.555 17.6953C181.294 17.513 181.06 17.3177 180.852 17.1094C180.669 16.875 180.578 16.6276 180.578 16.3672C180.969 16.3672 181.32 16.4323 181.633 16.5625C181.971 16.6927 182.31 16.7578 182.648 16.7578C182.648 14.8828 182.596 13.0208 182.492 11.1719C182.414 9.32292 182.375 7.44792 182.375 5.54688C182.375 5.44271 182.375 5.26042 182.375 5C182.375 4.73958 182.375 4.46615 182.375 4.17969C182.375 3.89323 182.375 3.61979 182.375 3.35938C182.375 3.07292 182.375 2.89062 182.375 2.8125C182.531 1.875 182.909 1.17188 183.508 0.703125C184.133 0.234375 184.914 0 185.852 0C186.451 0 187.102 0.15625 187.805 0.46875C188.534 0.78125 189.263 1.1849 189.992 1.67969C190.721 2.17448 191.424 2.76042 192.102 3.4375C192.805 4.08854 193.417 4.77865 193.938 5.50781C194.458 6.21094 194.875 6.91406 195.188 7.61719C195.526 8.32031 195.695 8.98438 195.695 9.60938C195.695 11.3542 195.448 12.7995 194.953 13.9453C194.458 15.0911 193.755 16.0156 192.844 16.7188C191.932 17.4219 190.839 17.9557 189.562 18.3203C188.312 18.6849 186.932 18.9583 185.422 19.1406C185.5 19.7396 185.565 20.2995 185.617 20.8203C185.669 21.3151 185.708 21.8099 185.734 22.3047C185.76 22.7734 185.786 23.2552 185.812 23.75C185.839 24.2188 185.852 24.7135 185.852 25.2344C185.852 25.3646 185.839 25.5469 185.812 25.7812C185.812 26.0156 185.786 26.25 185.734 26.4844C185.682 26.7188 185.591 26.9271 185.461 27.1094C185.357 27.2917 185.188 27.3828 184.953 27.3828C184.849 27.3828 184.745 27.3438 184.641 27.2656C184.536 27.1875 184.445 27.0964 184.367 26.9922C184.289 26.862 184.224 26.7448 184.172 26.6406C184.12 26.5104 184.094 26.4062 184.094 26.3281L183.078 18.5156ZM184.719 12.5391C184.719 12.9557 184.693 13.4505 184.641 14.0234C184.589 14.5964 184.589 15.1432 184.641 15.6641C184.693 16.1589 184.849 16.5885 185.109 16.9531C185.37 17.3177 185.812 17.5 186.438 17.5C187.479 17.5 188.456 17.3177 189.367 16.9531C190.279 16.5625 191.073 16.0417 191.75 15.3906C192.453 14.7135 193 13.9193 193.391 13.0078C193.781 12.0964 193.977 11.1198 193.977 10.0781C193.977 9.50521 193.846 8.89323 193.586 8.24219C193.352 7.59115 193.026 6.9401 192.609 6.28906C192.193 5.63802 191.698 5.02604 191.125 4.45312C190.578 3.85417 189.992 3.33333 189.367 2.89062C188.768 2.42188 188.156 2.05729 187.531 1.79688C186.906 1.53646 186.32 1.40625 185.773 1.40625C185.305 1.40625 184.914 1.54948 184.602 1.83594C184.289 2.1224 184.042 2.48698 183.859 2.92969C183.677 3.34635 183.547 3.80208 183.469 4.29688C183.417 4.79167 183.391 5.22135 183.391 5.58594C183.391 6.15885 183.482 6.5625 183.664 6.79688C183.846 7.03125 184.042 7.21354 184.25 7.34375C184.484 7.44792 184.693 7.55208 184.875 7.65625C185.057 7.76042 185.148 7.95573 185.148 8.24219C185.148 8.52865 185.109 8.76302 185.031 8.94531C184.979 9.1276 184.888 9.34896 184.758 9.60938C184.758 9.73958 184.758 9.94792 184.758 10.2344C184.758 10.4948 184.745 10.7812 184.719 11.0938C184.719 11.3802 184.719 11.6667 184.719 11.9531C184.719 12.2135 184.719 12.4089 184.719 12.5391Z"
          fill="#3246F7"/>
    <path d="M196.984 20.7031C196.984 19.9479 197.062 19.1016 197.219 18.1641C197.401 17.2266 197.648 16.2891 197.961 15.3516C198.299 14.388 198.716 13.4635 199.211 12.5781C199.732 11.6927 200.318 10.8984 200.969 10.1953C201.646 9.49219 202.388 8.93229 203.195 8.51562C204.003 8.09896 204.888 7.89062 205.852 7.89062C206.685 7.89062 207.453 8.08594 208.156 8.47656C208.859 8.84115 209.497 9.32292 210.07 9.92188C210.669 10.4948 211.19 11.1719 211.633 11.9531C212.076 12.7344 212.453 13.5417 212.766 14.375C213.078 15.1823 213.312 15.9896 213.469 16.7969C213.651 17.5781 213.742 18.2943 213.742 18.9453C213.742 19.8568 213.586 20.7031 213.273 21.4844C212.961 22.2656 212.531 22.9688 211.984 23.5938C211.464 24.2188 210.839 24.7656 210.109 25.2344C209.406 25.7031 208.651 26.1068 207.844 26.4453C207.036 26.7578 206.203 26.9922 205.344 27.1484C204.51 27.3047 203.677 27.3828 202.844 27.3828C201.724 27.3828 200.786 27.2266 200.031 26.9141C199.302 26.6016 198.703 26.1589 198.234 25.5859C197.792 24.987 197.466 24.2839 197.258 23.4766C197.076 22.6432 196.984 21.7188 196.984 20.7031ZM198.352 21.5625C198.352 22.2917 198.469 22.9297 198.703 23.4766C198.938 23.9974 199.263 24.4271 199.68 24.7656C200.096 25.0781 200.591 25.3125 201.164 25.4688C201.737 25.599 202.375 25.6641 203.078 25.6641C204.172 25.6641 205.279 25.5469 206.398 25.3125C207.518 25.0521 208.521 24.6484 209.406 24.1016C210.292 23.5286 211.008 22.8125 211.555 21.9531C212.128 21.0677 212.414 20 212.414 18.75C212.414 17.9688 212.258 17.0312 211.945 15.9375C211.659 14.8438 211.242 13.8021 210.695 12.8125C210.148 11.8229 209.471 10.9896 208.664 10.3125C207.883 9.60938 207.01 9.25781 206.047 9.25781C205.604 9.25781 205.227 9.28385 204.914 9.33594C204.628 9.36198 204.263 9.45312 203.82 9.60938V9.96094C203.82 9.98698 203.833 10.0521 203.859 10.1562C203.911 10.2604 203.964 10.3776 204.016 10.5078C204.068 10.612 204.107 10.7161 204.133 10.8203C204.159 10.9245 204.172 10.9896 204.172 11.0156C204.172 11.25 204.107 11.4323 203.977 11.5625C203.846 11.6667 203.69 11.7448 203.508 11.7969C203.352 11.849 203.169 11.888 202.961 11.9141C202.779 11.9401 202.609 11.9792 202.453 12.0312C201.594 12.3958 200.891 12.9427 200.344 13.6719C199.823 14.401 199.406 15.2214 199.094 16.1328C198.807 17.0182 198.612 17.9427 198.508 18.9062C198.404 19.8698 198.352 20.7552 198.352 21.5625Z"
          fill="#3246F7"/>
    <path d="M224.289 29.1016C224.289 28.4245 224.341 27.7474 224.445 27.0703C224.549 26.3932 224.667 25.7292 224.797 25.0781C224.927 24.401 225.044 23.737 225.148 23.0859C225.279 22.4089 225.344 21.7318 225.344 21.0547V20.8594C223.938 20.599 222.622 20.2083 221.398 19.6875C220.201 19.1406 219.159 18.4375 218.273 17.5781C217.388 16.7188 216.685 15.7031 216.164 14.5312C215.669 13.3333 215.422 11.9401 215.422 10.3516C215.422 10.1172 215.409 9.80469 215.383 9.41406C215.383 8.9974 215.422 8.60677 215.5 8.24219C215.578 7.8776 215.708 7.5651 215.891 7.30469C216.099 7.01823 216.398 6.875 216.789 6.875C217.154 6.875 217.414 6.91406 217.57 6.99219C217.753 7.07031 217.844 7.30469 217.844 7.69531C217.844 8.03385 217.805 8.35938 217.727 8.67188C217.648 8.98438 217.57 9.29688 217.492 9.60938C217.414 9.89583 217.336 10.2083 217.258 10.5469C217.18 10.8594 217.141 11.1719 217.141 11.4844C217.141 12.4219 217.336 13.3464 217.727 14.2578C218.117 15.1432 218.638 15.9245 219.289 16.6016C219.966 17.2786 220.734 17.8255 221.594 18.2422C222.453 18.6589 223.352 18.8672 224.289 18.8672C224.367 18.8672 224.458 18.8672 224.562 18.8672C224.693 18.8672 224.836 18.8672 224.992 18.8672C225.148 18.8411 225.279 18.8281 225.383 18.8281C225.513 18.8281 225.617 18.8281 225.695 18.8281C226.164 18.5156 226.529 17.9818 226.789 17.2266C227.076 16.4453 227.31 15.5859 227.492 14.6484C227.674 13.6849 227.831 12.6823 227.961 11.6406C228.091 10.599 228.26 9.66146 228.469 8.82812C228.677 7.96875 228.924 7.26562 229.211 6.71875C229.523 6.14583 229.94 5.85938 230.461 5.85938C230.487 5.85938 230.539 5.91146 230.617 6.01562C230.695 6.09375 230.747 6.15885 230.773 6.21094C230.799 6.23698 230.826 6.34115 230.852 6.52344C230.878 6.67969 230.904 6.875 230.93 7.10938C230.956 7.31771 230.982 7.53906 231.008 7.77344C231.06 7.98177 231.099 8.15104 231.125 8.28125V8.4375C231.125 9.6875 230.982 10.9115 230.695 12.1094C230.435 13.2812 230.096 14.4401 229.68 15.5859C229.289 16.7057 228.859 17.8255 228.391 18.9453C227.922 20.0391 227.479 21.1589 227.062 22.3047C226.672 23.4245 226.333 24.5703 226.047 25.7422C225.786 26.9141 225.656 28.138 225.656 29.4141C225.656 30.3516 225.721 31.263 225.852 32.1484C226.008 33.0599 226.086 33.9844 226.086 34.9219C225.747 34.9219 225.461 34.8047 225.227 34.5703C224.992 34.3359 224.81 34.0365 224.68 33.6719C224.549 33.3073 224.445 32.8906 224.367 32.4219C224.315 31.9792 224.276 31.5365 224.25 31.0938C224.25 30.6771 224.25 30.2865 224.25 29.9219C224.276 29.5573 224.289 29.2839 224.289 29.1016Z"
          fill="#3246F7"/>
    <path d="M235.539 26.3281C235.539 26.276 235.539 26.2109 235.539 26.1328C235.565 26.0547 235.578 26.0156 235.578 26.0156C235.969 25.2604 236.372 24.5312 236.789 23.8281C237.232 23.125 237.674 22.4349 238.117 21.7578C238.586 21.0547 239.029 20.3516 239.445 19.6484C239.888 18.9193 240.292 18.1901 240.656 17.4609C240.552 17.2266 240.292 17.0182 239.875 16.8359C239.458 16.6536 238.951 16.4583 238.352 16.25C237.779 16.0417 237.167 15.8073 236.516 15.5469C235.865 15.2604 235.266 14.9349 234.719 14.5703C234.172 14.1797 233.716 13.737 233.352 13.2422C232.987 12.7214 232.805 12.1224 232.805 11.4453C232.805 10.7422 233.039 10.1302 233.508 9.60938C233.977 9.0625 234.549 8.61979 235.227 8.28125C235.904 7.91667 236.62 7.64323 237.375 7.46094C238.13 7.27865 238.781 7.1875 239.328 7.1875C240.474 7.1875 241.477 7.38281 242.336 7.77344C243.221 8.16406 244.133 8.67188 245.07 9.29688C245.383 9.0625 245.643 8.80208 245.852 8.51562C246.086 8.22917 246.294 7.91667 246.477 7.57812C246.555 7.39583 246.724 7.07031 246.984 6.60156C247.271 6.10677 247.544 5.58594 247.805 5.03906C248.091 4.49219 248.365 3.98438 248.625 3.51562C248.911 3.02083 249.094 2.66927 249.172 2.46094C249.38 2.30469 249.549 2.21354 249.68 2.1875C249.81 2.13542 249.992 2.10938 250.227 2.10938C250.253 2.10938 250.305 2.10938 250.383 2.10938C250.487 2.10938 250.552 2.10938 250.578 2.10938C250.839 3.20312 251.034 4.32292 251.164 5.46875C251.294 6.61458 251.385 7.76042 251.438 8.90625C251.516 10.0521 251.581 11.1979 251.633 12.3438C251.685 13.4896 251.776 14.6354 251.906 15.7812C251.984 15.7812 252.128 15.7943 252.336 15.8203C252.544 15.8203 252.701 15.8203 252.805 15.8203C253.169 15.8203 253.534 15.7812 253.898 15.7031C254.263 15.625 254.628 15.5469 254.992 15.4688C255.357 15.3646 255.721 15.2734 256.086 15.1953C256.477 15.1172 256.867 15.0781 257.258 15.0781H257.375C257.401 15.1042 257.453 15.1562 257.531 15.2344C257.609 15.3125 257.674 15.3646 257.727 15.3906C257.57 15.6771 257.31 15.9115 256.945 16.0938C256.607 16.25 256.216 16.3802 255.773 16.4844C255.357 16.5885 254.914 16.6927 254.445 16.7969C253.977 16.875 253.56 16.9792 253.195 17.1094C252.831 17.2135 252.518 17.3438 252.258 17.5C252.023 17.6562 251.906 17.8776 251.906 18.1641C251.906 18.6849 251.932 19.2057 251.984 19.7266C252.062 20.2474 252.141 20.7812 252.219 21.3281C252.323 21.849 252.414 22.3828 252.492 22.9297C252.57 23.4505 252.609 23.9844 252.609 24.5312C252.609 24.6615 252.596 24.8438 252.57 25.0781C252.57 25.3125 252.544 25.5469 252.492 25.7812C252.466 26.0156 252.388 26.224 252.258 26.4062C252.154 26.5885 251.984 26.6797 251.75 26.6797C251.49 26.6797 251.255 26.4844 251.047 26.0938C250.839 25.7031 250.669 25.2083 250.539 24.6094C250.409 24.0104 250.292 23.3594 250.188 22.6562C250.109 21.9271 250.031 21.237 249.953 20.5859C249.901 19.9089 249.836 19.3229 249.758 18.8281C249.68 18.3073 249.602 17.9688 249.523 17.8125C249.315 17.7865 248.924 17.7604 248.352 17.7344C247.805 17.7083 247.219 17.6823 246.594 17.6562C245.995 17.6042 245.422 17.5651 244.875 17.5391C244.328 17.487 243.951 17.4609 243.742 17.4609H243.352C242.831 17.4609 242.336 17.7083 241.867 18.2031C241.424 18.6719 241.008 19.2839 240.617 20.0391C240.253 20.7682 239.888 21.5625 239.523 22.4219C239.159 23.2552 238.807 24.0495 238.469 24.8047C238.13 25.5339 237.779 26.1458 237.414 26.6406C237.049 27.1354 236.659 27.3828 236.242 27.3828C235.956 27.3828 235.76 27.2786 235.656 27.0703C235.578 26.8359 235.539 26.5885 235.539 26.3281ZM243.391 15.7812C243.599 15.9115 243.846 16.0156 244.133 16.0938C244.445 16.1458 244.758 16.1719 245.07 16.1719C245.383 16.1719 245.669 16.1719 245.93 16.1719C246.216 16.1719 246.464 16.1719 246.672 16.1719C246.776 16.1719 246.906 16.1719 247.062 16.1719C247.219 16.1458 247.375 16.1328 247.531 16.1328C247.688 16.1328 247.818 16.1328 247.922 16.1328C248.052 16.1068 248.13 16.0938 248.156 16.0938L248.508 15.7812C248.56 15.7292 248.469 15.4948 248.234 15.0781C248 14.6615 247.701 14.2318 247.336 13.7891C246.997 13.3203 246.659 12.9036 246.32 12.5391C245.982 12.1484 245.747 11.9531 245.617 11.9531C245.591 11.9531 245.565 11.9661 245.539 11.9922C245.513 12.0182 245.474 12.0312 245.422 12.0312C245.031 12.6042 244.667 13.2031 244.328 13.8281C243.99 14.4531 243.677 15.1042 243.391 15.7812ZM234.523 11.4062C234.523 12.0833 234.758 12.6823 235.227 13.2031C235.695 13.6979 236.268 14.1146 236.945 14.4531C237.622 14.7917 238.339 15.0391 239.094 15.1953C239.849 15.3516 240.513 15.4297 241.086 15.4297C241.451 15.4297 241.828 15.2474 242.219 14.8828C242.609 14.4922 242.961 14.0495 243.273 13.5547C243.612 13.0599 243.885 12.5521 244.094 12.0312C244.328 11.5104 244.445 11.1068 244.445 10.8203C244.445 10.5078 244.237 10.2214 243.82 9.96094C243.404 9.67448 242.909 9.42708 242.336 9.21875C241.789 9.01042 241.242 8.85417 240.695 8.75C240.148 8.61979 239.745 8.55469 239.484 8.55469C239.094 8.55469 238.612 8.61979 238.039 8.75C237.492 8.85417 236.945 9.02344 236.398 9.25781C235.878 9.49219 235.435 9.79167 235.07 10.1562C234.706 10.4948 234.523 10.9115 234.523 11.4062ZM246.789 10.1172C246.789 10.4557 246.919 10.8724 247.18 11.3672C247.44 11.862 247.753 12.3438 248.117 12.8125C248.482 13.2812 248.859 13.6849 249.25 14.0234C249.667 14.362 250.031 14.5312 250.344 14.5312C250.344 14.401 250.331 14.2057 250.305 13.9453C250.305 13.6849 250.292 13.3984 250.266 13.0859C250.266 12.7734 250.253 12.487 250.227 12.2266C250.227 11.9661 250.227 11.7708 250.227 11.6406C250.174 11.276 250.109 10.7943 250.031 10.1953C249.979 9.59635 249.914 9.01042 249.836 8.4375C249.784 7.86458 249.719 7.35677 249.641 6.91406C249.589 6.47135 249.549 6.23698 249.523 6.21094L249.172 5.54688C249.146 5.57292 249.081 5.625 248.977 5.70312C248.898 5.78125 248.846 5.83333 248.82 5.85938C248.742 6.01562 248.612 6.27604 248.43 6.64062C248.247 6.97917 248.039 7.34375 247.805 7.73438C247.596 8.125 247.401 8.5026 247.219 8.86719C247.036 9.23177 246.906 9.47917 246.828 9.60938C246.828 9.66146 246.815 9.7526 246.789 9.88281C246.789 10.013 246.789 10.0911 246.789 10.1172Z"
          fill="#3246F7"/>
    <path d="M262.844 20.1562C262.818 20.1562 262.792 20.2344 262.766 20.3906C262.74 20.5469 262.701 20.7422 262.648 20.9766C262.622 21.2109 262.583 21.4453 262.531 21.6797C262.505 21.9141 262.479 22.1094 262.453 22.2656C262.427 22.3698 262.401 22.5911 262.375 22.9297C262.349 23.2422 262.31 23.5807 262.258 23.9453C262.232 24.3099 262.206 24.6484 262.18 24.9609C262.154 25.2734 262.141 25.5078 262.141 25.6641C262.115 25.6901 262.062 25.7422 261.984 25.8203C261.906 25.8984 261.854 25.9635 261.828 26.0156C261.776 26.0156 261.737 26.0156 261.711 26.0156H261.516C261.49 26.0156 261.464 26.0156 261.438 26.0156C261.385 25.9635 261.268 25.8464 261.086 25.6641C260.904 25.4818 260.799 25.3646 260.773 25.3125C260.721 25.1042 260.643 24.7396 260.539 24.2188C260.461 23.6979 260.357 23.151 260.227 22.5781C260.122 22.0052 260.018 21.4583 259.914 20.9375C259.836 20.4167 259.771 20.0521 259.719 19.8438V19.5312C259.719 19.349 259.706 18.9974 259.68 18.4766C259.68 17.9557 259.667 17.3438 259.641 16.6406C259.615 15.9375 259.589 15.1953 259.562 14.4141C259.536 13.6328 259.51 12.8906 259.484 12.1875C259.484 11.4844 259.471 10.8724 259.445 10.3516C259.419 9.83073 259.406 9.47917 259.406 9.29688V9.0625C259.406 8.02083 259.589 6.99219 259.953 5.97656C260.344 4.9349 260.865 3.9974 261.516 3.16406C262.193 2.33073 262.987 1.65365 263.898 1.13281C264.836 0.611979 265.852 0.351562 266.945 0.351562C267.544 0.351562 268.13 0.46875 268.703 0.703125C269.276 0.9375 269.784 1.25 270.227 1.64062C270.669 2.03125 271.021 2.5 271.281 3.04688C271.568 3.59375 271.711 4.17969 271.711 4.80469C271.711 5.71615 271.49 6.58854 271.047 7.42188C270.604 8.25521 270.044 9.03646 269.367 9.76562C268.716 10.4948 268 11.1849 267.219 11.8359C266.464 12.487 265.747 13.099 265.07 13.6719C264.419 14.2448 263.872 14.7917 263.43 15.3125C262.987 15.8333 262.766 16.3281 262.766 16.7969C262.766 17.1615 262.922 17.5781 263.234 18.0469C263.573 18.4896 263.99 18.9583 264.484 19.4531C265.005 19.9219 265.578 20.3906 266.203 20.8594C266.828 21.3021 267.44 21.7318 268.039 22.1484C268.664 22.5391 269.237 22.8906 269.758 23.2031C270.279 23.5156 270.682 23.75 270.969 23.9062C271.073 23.9844 271.281 24.1016 271.594 24.2578C271.906 24.4141 272.245 24.5833 272.609 24.7656C273 24.9479 273.352 25.1302 273.664 25.3125C274.003 25.4688 274.25 25.5859 274.406 25.6641C274.641 25.7422 274.94 25.8073 275.305 25.8594C275.695 25.8854 276.086 25.9245 276.477 25.9766C276.867 26.0286 277.193 26.1198 277.453 26.25C277.74 26.3542 277.883 26.5495 277.883 26.8359C277.883 26.862 277.87 26.888 277.844 26.9141C277.844 26.9141 277.844 26.9271 277.844 26.9531V27.0312C277.792 27.0573 277.727 27.1094 277.648 27.1875C277.57 27.2656 277.505 27.3177 277.453 27.3438C277.427 27.3438 277.349 27.3438 277.219 27.3438C277.115 27.3438 276.997 27.3438 276.867 27.3438C276.737 27.3698 276.607 27.3828 276.477 27.3828C276.372 27.3828 276.294 27.3828 276.242 27.3828C275.044 27.3828 273.846 27.1484 272.648 26.6797C271.451 26.1849 270.292 25.5859 269.172 24.8828C268.052 24.1536 266.984 23.3724 265.969 22.5391C264.953 21.7057 264.016 20.9115 263.156 20.1562H262.844ZM262.102 6.79688C262.102 7.34375 262.089 7.92969 262.062 8.55469C262.036 9.15365 262.023 9.7526 262.023 10.3516C262.049 10.9505 262.115 11.5365 262.219 12.1094C262.349 12.6823 262.557 13.2161 262.844 13.7109C263.078 13.5547 263.43 13.2943 263.898 12.9297C264.367 12.5391 264.875 12.0964 265.422 11.6016C265.995 11.0807 266.568 10.5208 267.141 9.92188C267.74 9.32292 268.273 8.73698 268.742 8.16406C269.211 7.5651 269.602 6.99219 269.914 6.44531C270.227 5.89844 270.383 5.42969 270.383 5.03906C270.383 4.4401 270.266 3.95833 270.031 3.59375C269.797 3.20312 269.497 2.90365 269.133 2.69531C268.768 2.46094 268.352 2.30469 267.883 2.22656C267.414 2.14844 266.932 2.10938 266.438 2.10938C264.953 2.10938 263.859 2.53906 263.156 3.39844C262.453 4.25781 262.102 5.39062 262.102 6.79688Z"
          fill="#3246F7"/>
    <path d="M279.445 20C279.445 19.401 279.484 18.6328 279.562 17.6953C279.641 16.7318 279.771 15.7031 279.953 14.6094C280.161 13.4896 280.435 12.3828 280.773 11.2891C281.112 10.1693 281.516 9.15365 281.984 8.24219C282.479 7.33073 283.052 6.58854 283.703 6.01562C284.354 5.44271 285.109 5.15625 285.969 5.15625C287.01 5.15625 287.896 5.45573 288.625 6.05469C289.38 6.65365 289.992 7.39583 290.461 8.28125C290.956 9.14062 291.333 10.0651 291.594 11.0547C291.854 12.0443 292.023 12.9297 292.102 13.7109C292.049 14.0234 291.906 14.2839 291.672 14.4922C291.438 14.6745 291.19 14.7656 290.93 14.7656H290.734C290.708 14.7135 290.656 14.6484 290.578 14.5703C290.5 14.4922 290.448 14.4401 290.422 14.4141C290.422 14.3359 290.409 14.2448 290.383 14.1406C290.383 14.0104 290.383 13.8672 290.383 13.7109C290.383 13.5547 290.37 13.4245 290.344 13.3203C290.344 13.1901 290.344 13.099 290.344 13.0469C290.344 12.5521 290.409 12.1094 290.539 11.7188C290.669 11.3281 290.734 10.9245 290.734 10.5078V10.3125C290.422 9.94792 290.109 9.57031 289.797 9.17969C289.484 8.76302 289.146 8.38542 288.781 8.04688C288.443 7.70833 288.065 7.4349 287.648 7.22656C287.232 6.99219 286.763 6.875 286.242 6.875C285.591 6.875 284.992 7.1224 284.445 7.61719C283.924 8.08594 283.469 8.69792 283.078 9.45312C282.688 10.1823 282.349 11.0156 282.062 11.9531C281.776 12.8646 281.542 13.776 281.359 14.6875C281.177 15.5729 281.047 16.4062 280.969 17.1875C280.891 17.9427 280.852 18.5417 280.852 18.9844C280.852 20 280.969 20.9375 281.203 21.7969C281.438 22.6562 281.815 23.3984 282.336 24.0234C282.857 24.6484 283.495 25.1432 284.25 25.5078C285.031 25.8464 285.956 26.0156 287.023 26.0156C287.57 26.0156 288.143 25.9635 288.742 25.8594C289.341 25.7552 289.927 25.612 290.5 25.4297C291.099 25.2474 291.672 25.026 292.219 24.7656C292.792 24.5052 293.312 24.2188 293.781 23.9062C293.833 23.9062 293.924 23.8542 294.055 23.75C294.185 23.6458 294.315 23.5417 294.445 23.4375C294.602 23.3073 294.745 23.2031 294.875 23.125C295.031 23.0208 295.122 22.9427 295.148 22.8906C295.174 22.8906 295.227 22.8906 295.305 22.8906C295.409 22.8646 295.474 22.8516 295.5 22.8516C295.552 22.8516 295.617 22.8646 295.695 22.8906C295.773 22.8906 295.826 22.8906 295.852 22.8906C295.721 23.4375 295.474 23.9323 295.109 24.375C294.745 24.7917 294.302 25.1693 293.781 25.5078C293.286 25.8464 292.727 26.1328 292.102 26.3672C291.477 26.6016 290.852 26.7969 290.227 26.9531C289.602 27.1094 289.003 27.2266 288.43 27.3047C287.883 27.3568 287.388 27.3828 286.945 27.3828C285.826 27.3828 284.797 27.2135 283.859 26.875C282.948 26.5365 282.154 26.0547 281.477 25.4297C280.826 24.8047 280.318 24.0365 279.953 23.125C279.615 22.2135 279.445 21.1719 279.445 20Z"
          fill="#3246F7"/>
    <path d="M311.203 9.60938C310.474 10 309.732 10.3646 308.977 10.7031C308.221 11.0156 307.466 11.3281 306.711 11.6406C305.956 11.9531 305.201 12.2786 304.445 12.6172C303.716 12.9297 303 13.2943 302.297 13.7109C302.297 13.763 302.297 13.8672 302.297 14.0234C302.297 14.1536 302.297 14.3099 302.297 14.4922C302.297 14.6484 302.297 14.8047 302.297 14.9609C302.297 15.0911 302.297 15.1823 302.297 15.2344C302.297 16.4583 302.336 17.6953 302.414 18.9453C302.518 20.1953 302.714 21.4062 303 22.5781C303 22.6042 303.039 22.7214 303.117 22.9297C303.221 23.112 303.299 23.2292 303.352 23.2812C303.352 23.3073 303.352 23.3594 303.352 23.4375C303.352 23.5156 303.352 23.5677 303.352 23.5938C303.352 23.75 303.312 23.9193 303.234 24.1016C303.156 24.2578 303.013 24.3359 302.805 24.3359C302.544 24.3359 302.31 24.1667 302.102 23.8281C301.919 23.4896 301.75 23.0729 301.594 22.5781C301.464 22.0573 301.346 21.5104 301.242 20.9375C301.164 20.3385 301.099 19.7917 301.047 19.2969C301.021 18.776 300.995 18.3464 300.969 18.0078C300.969 17.6432 300.969 17.4609 300.969 17.4609C300.917 17.2526 300.865 17.0052 300.812 16.7188C300.786 16.4062 300.76 16.1068 300.734 15.8203C300.708 15.5339 300.682 15.2865 300.656 15.0781C300.63 14.8698 300.617 14.7656 300.617 14.7656L300.266 14.2578H297.531L297.219 13.3594C297.583 13.151 297.935 13.0078 298.273 12.9297C298.612 12.8255 298.898 12.7083 299.133 12.5781C299.393 12.4219 299.589 12.2396 299.719 12.0312C299.875 11.7969 299.953 11.4583 299.953 11.0156C299.953 10.4688 299.875 9.92188 299.719 9.375C299.589 8.80208 299.432 8.25521 299.25 7.73438C299.094 7.1875 298.938 6.64062 298.781 6.09375C298.625 5.54688 298.547 5.02604 298.547 4.53125C298.547 4.34896 298.56 4.15365 298.586 3.94531C298.638 3.73698 298.703 3.55469 298.781 3.39844C298.859 3.21615 298.951 3.07292 299.055 2.96875C299.185 2.83854 299.367 2.77344 299.602 2.77344C299.94 2.77344 300.201 2.99479 300.383 3.4375C300.565 3.88021 300.708 4.4401 300.812 5.11719C300.917 5.76823 300.995 6.47135 301.047 7.22656C301.099 7.98177 301.164 8.69792 301.242 9.375C301.346 10.026 301.464 10.5729 301.594 11.0156C301.75 11.4583 301.984 11.6797 302.297 11.6797C302.557 11.6797 302.766 11.6536 302.922 11.6016C303.104 11.5234 303.365 11.4323 303.703 11.3281C304.016 11.1979 304.419 11.0547 304.914 10.8984C305.435 10.7161 305.982 10.5208 306.555 10.3125C307.128 10.0781 307.701 9.83073 308.273 9.57031C308.872 9.28385 309.419 8.97135 309.914 8.63281C310.409 8.26823 310.826 7.89062 311.164 7.5C311.529 7.10938 311.763 6.67969 311.867 6.21094C311.893 5.97656 311.906 5.625 311.906 5.15625C311.932 4.66146 311.984 4.16667 312.062 3.67188C312.141 3.17708 312.284 2.7474 312.492 2.38281C312.701 1.99219 313.013 1.79688 313.43 1.79688C313.612 1.79688 313.755 1.875 313.859 2.03125C313.99 2.1875 314.081 2.38281 314.133 2.61719C314.211 2.82552 314.25 3.03385 314.25 3.24219C314.25 3.45052 314.25 3.61979 314.25 3.75C314.25 3.80208 314.25 3.89323 314.25 4.02344C314.25 4.1276 314.25 4.24479 314.25 4.375C314.25 4.47917 314.25 4.58333 314.25 4.6875C314.25 4.76562 314.25 4.81771 314.25 4.84375C314.224 5.26042 314.185 5.88542 314.133 6.71875C314.081 7.55208 314.016 8.5026 313.938 9.57031C313.885 10.612 313.82 11.7188 313.742 12.8906C313.69 14.0625 313.625 15.1693 313.547 16.2109C313.469 17.2526 313.404 18.1901 313.352 19.0234C313.299 19.8568 313.247 20.4688 313.195 20.8594C313.195 20.9896 313.208 21.224 313.234 21.5625C313.286 21.875 313.326 22.2135 313.352 22.5781C313.404 22.9427 313.443 23.2943 313.469 23.6328C313.521 23.9453 313.547 24.1667 313.547 24.2969C313.599 24.5833 313.69 24.8568 313.82 25.1172C313.951 25.3516 314.068 25.599 314.172 25.8594C314.302 26.1198 314.419 26.3802 314.523 26.6406C314.654 26.901 314.719 27.1875 314.719 27.5C314.328 27.5 313.951 27.3177 313.586 26.9531C313.221 26.5625 312.896 26.1198 312.609 25.625C312.349 25.1042 312.128 24.5964 311.945 24.1016C311.763 23.5807 311.672 23.1771 311.672 22.8906V9.60938H311.203Z"
          fill="#3246F7"/>
    <path d="M319.016 20.1562C318.651 19.974 318.378 19.7917 318.195 19.6094C318.039 19.4271 317.961 19.1667 317.961 18.8281C317.961 18.6458 317.987 18.4896 318.039 18.3594C318.117 18.2292 318.195 18.112 318.273 18.0078C318.378 17.8776 318.469 17.7474 318.547 17.6172C318.625 17.487 318.664 17.3307 318.664 17.1484C318.664 16.8359 318.664 16.4714 318.664 16.0547C318.69 15.638 318.677 15.2214 318.625 14.8047C318.573 14.362 318.469 13.9583 318.312 13.5938C318.182 13.2031 317.948 12.8906 317.609 12.6562C317.688 12.6302 317.805 12.5391 317.961 12.3828C318.143 12.2005 318.26 12.0833 318.312 12.0312V11.9531C318.312 11.9531 318.312 11.9401 318.312 11.9141C318.312 11.888 318.312 11.862 318.312 11.8359C318.312 11.4974 318.221 11.263 318.039 11.1328C317.883 11.0026 317.688 10.9115 317.453 10.8594C317.245 10.8073 317.023 10.7552 316.789 10.7031C316.555 10.651 316.385 10.5208 316.281 10.3125C316.568 9.92188 317.036 9.58333 317.688 9.29688C318.339 9.01042 319.068 8.76302 319.875 8.55469C320.708 8.32031 321.568 8.125 322.453 7.96875C323.365 7.8125 324.25 7.68229 325.109 7.57812C325.969 7.44792 326.737 7.36979 327.414 7.34375C328.091 7.29167 328.625 7.26562 329.016 7.26562H329.914C330.148 7.26562 330.448 7.29167 330.812 7.34375C331.203 7.36979 331.581 7.40885 331.945 7.46094C332.31 7.48698 332.622 7.51302 332.883 7.53906C333.169 7.5651 333.312 7.57812 333.312 7.57812L333.664 7.89062L333.312 8.28125C331.047 8.35938 328.859 8.51562 326.75 8.75C324.667 8.95833 322.531 9.36198 320.344 9.96094C320.318 10.013 320.292 10.1172 320.266 10.2734C320.24 10.4297 320.201 10.599 320.148 10.7812C320.122 10.9635 320.096 11.1458 320.07 11.3281C320.044 11.4844 320.031 11.5885 320.031 11.6406C320.031 11.6927 320.031 11.7839 320.031 11.9141C320.031 12.0182 320.031 12.1354 320.031 12.2656C320.057 12.3958 320.07 12.513 320.07 12.6172C320.07 12.7214 320.07 12.8125 320.07 12.8906C322.206 12.8906 324.315 12.7995 326.398 12.6172C328.482 12.4089 330.591 12.3047 332.727 12.3047C332.883 12.3047 333.039 12.3047 333.195 12.3047C333.352 12.3047 333.482 12.3307 333.586 12.3828C333.716 12.4089 333.82 12.487 333.898 12.6172C333.977 12.7214 334.016 12.8776 334.016 13.0859C334.016 13.2161 333.69 13.3984 333.039 13.6328C332.414 13.8672 331.62 14.1406 330.656 14.4531C329.693 14.7396 328.638 15.0651 327.492 15.4297C326.372 15.7943 325.331 16.1719 324.367 16.5625C323.404 16.9531 322.596 17.3568 321.945 17.7734C321.32 18.1901 321.008 18.5938 321.008 18.9844V19.1016C321.008 19.1016 321.008 19.1146 321.008 19.1406C321.034 19.1667 321.099 19.2318 321.203 19.3359C321.307 19.4141 321.359 19.4792 321.359 19.5312C321.359 19.5573 321.372 19.5703 321.398 19.5703V19.6484C321.398 19.6745 321.411 19.6875 321.438 19.6875C321.438 19.6875 321.424 19.7005 321.398 19.7266C321.398 19.7266 321.398 19.7396 321.398 19.7656C321.372 19.7917 321.359 19.8177 321.359 19.8438C321.359 19.8698 321.307 19.9349 321.203 20.0391C321.099 20.1172 321.034 20.1562 321.008 20.1562C320.982 20.2344 320.917 20.3646 320.812 20.5469C320.734 20.7292 320.695 20.8333 320.695 20.8594C320.695 21.7188 320.839 22.4609 321.125 23.0859C321.438 23.6849 321.841 24.1797 322.336 24.5703C322.831 24.9349 323.404 25.2083 324.055 25.3906C324.732 25.5729 325.435 25.6641 326.164 25.6641C327.18 25.6641 328.104 25.5208 328.938 25.2344C329.771 24.9479 330.552 24.5573 331.281 24.0625C332.01 23.5677 332.701 22.9948 333.352 22.3438C334.029 21.6667 334.693 20.9375 335.344 20.1562C335.37 20.1562 335.409 20.0911 335.461 19.9609C335.539 19.8307 335.617 19.7005 335.695 19.5703C335.773 19.4141 335.839 19.2708 335.891 19.1406C335.969 18.9844 336.008 18.8802 336.008 18.8281C336.008 18.8021 336.008 18.75 336.008 18.6719C336.034 18.5677 336.047 18.4896 336.047 18.4375C336.047 18.2812 335.995 18.1641 335.891 18.0859C335.812 17.9818 335.708 17.9036 335.578 17.8516C335.448 17.7995 335.305 17.7734 335.148 17.7734C335.018 17.7474 334.875 17.7344 334.719 17.7344C334.719 17.3698 334.888 17.1224 335.227 16.9922C335.565 16.862 335.904 16.7969 336.242 16.7969C336.633 16.7969 336.919 16.9271 337.102 17.1875C337.31 17.4479 337.414 17.7734 337.414 18.1641C337.414 18.8932 337.219 19.6354 336.828 20.3906C336.438 21.1198 335.93 21.8359 335.305 22.5391C334.68 23.2161 333.951 23.8542 333.117 24.4531C332.31 25.026 331.477 25.5339 330.617 25.9766C329.758 26.3932 328.911 26.7318 328.078 26.9922C327.245 27.2526 326.49 27.3828 325.812 27.3828C324.667 27.3828 323.716 27.2005 322.961 26.8359C322.206 26.4453 321.568 25.9245 321.047 25.2734C320.526 24.5964 320.109 23.8281 319.797 22.9688C319.51 22.0833 319.25 21.1458 319.016 20.1562ZM319.953 13.5938C319.953 14.1406 319.979 14.6094 320.031 15C320.057 15.3646 320.083 15.6901 320.109 15.9766C320.161 16.263 320.24 16.4062 320.344 16.4062H320.695C320.721 16.4062 320.891 16.3542 321.203 16.25C321.516 16.1198 321.88 15.9635 322.297 15.7812C322.74 15.599 323.182 15.4167 323.625 15.2344C324.094 15.026 324.471 14.8698 324.758 14.7656C324.836 14.7396 324.927 14.6875 325.031 14.6094C325.161 14.5312 325.305 14.4661 325.461 14.4141C325.617 14.3359 325.747 14.2578 325.852 14.1797C325.982 14.1016 326.086 14.0625 326.164 14.0625C325.695 13.9323 325.188 13.8411 324.641 13.7891C324.094 13.7109 323.534 13.6589 322.961 13.6328C322.414 13.6068 321.867 13.5938 321.32 13.5938C320.799 13.5938 320.344 13.5938 319.953 13.5938Z"
          fill="#3246F7"/>
    <path d="M340.891 26.4453C340.891 26.1849 340.956 25.9245 341.086 25.6641C341.216 25.4036 341.451 25.2734 341.789 25.2734C342.076 25.2734 342.349 25.3776 342.609 25.5859C342.87 25.7943 343 26.0417 343 26.3281C343 26.6927 342.883 26.9661 342.648 27.1484C342.414 27.3047 342.141 27.3828 341.828 27.3828C341.464 27.3828 341.216 27.3177 341.086 27.1875C340.956 27.0573 340.891 26.8099 340.891 26.4453Z"
          fill="#3246F7"/>
</svg>
